<svg xmlns="http://www.w3.org/2000/svg" width="65.941" height="61.823" viewBox="0 0 65.941 61.823">
  <g id="Grupo_9185" data-name="Grupo 9185" transform="translate(5547.154 -4019.606)">
    <path id="Trazado_2712" data-name="Trazado 2712" d="M-5483.273,4073.187h-28.85a2.061,2.061,0,0,1-2.06-2.061v-41.213a2.061,2.061,0,0,1,2.06-2.061h28.85a2.061,2.061,0,0,1,2.06,2.061v41.213a2.061,2.061,0,0,1-2.06,2.061Z" fill="#fff"/>
    <path id="Trazado_2713" data-name="Trazado 2713" d="M-5503.88,4040.216h-8.243a2.061,2.061,0,0,1-2.06-2.061,2.061,2.061,0,0,1,2.06-2.06h8.243a2.062,2.062,0,0,1,2.061,2.06,2.062,2.062,0,0,1-2.061,2.061Z" fill="#008a3c"/>
    <path id="Trazado_2714" data-name="Trazado 2714" d="M-5503.88,4048.459h-8.243a2.061,2.061,0,0,1-2.06-2.061,2.062,2.062,0,0,1,2.06-2.061h8.243a2.063,2.063,0,0,1,2.061,2.061,2.062,2.062,0,0,1-2.061,2.061Z" fill="#008a3c"/>
    <path id="Trazado_2715" data-name="Trazado 2715" d="M-5503.88,4056.7h-8.243a2.061,2.061,0,0,1-2.06-2.06,2.061,2.061,0,0,1,2.06-2.061h8.243a2.062,2.062,0,0,1,2.061,2.061,2.062,2.062,0,0,1-2.061,2.06Z" fill="#008a3c"/>
    <path id="Trazado_2716" data-name="Trazado 2716" d="M-5503.88,4064.944h-8.243a2.061,2.061,0,0,1-2.06-2.061,2.061,2.061,0,0,1,2.06-2.06h8.243a2.062,2.062,0,0,1,2.061,2.06,2.062,2.062,0,0,1-2.061,2.061Z" fill="#008a3c"/>
    <path id="Trazado_2717" data-name="Trazado 2717" d="M-5491.516,4040.216h-4.121a2.062,2.062,0,0,1-2.061-2.061,2.061,2.061,0,0,1,2.061-2.06h4.121a2.062,2.062,0,0,1,2.061,2.06,2.062,2.062,0,0,1-2.061,2.061Z" fill="#008a3c"/>
    <path id="Trazado_2718" data-name="Trazado 2718" d="M-5491.516,4048.459h-4.121a2.062,2.062,0,0,1-2.061-2.061,2.062,2.062,0,0,1,2.061-2.061h4.121a2.063,2.063,0,0,1,2.061,2.061,2.062,2.062,0,0,1-2.061,2.061Z" fill="#008a3c"/>
    <path id="Trazado_2719" data-name="Trazado 2719" d="M-5491.516,4056.7h-4.121a2.061,2.061,0,0,1-2.061-2.06,2.061,2.061,0,0,1,2.061-2.061h4.121a2.062,2.062,0,0,1,2.061,2.061,2.062,2.062,0,0,1-2.061,2.06Z" fill="#008a3c"/>
    <path id="Trazado_2720" data-name="Trazado 2720" d="M-5491.516,4064.944h-4.121a2.062,2.062,0,0,1-2.061-2.061,2.061,2.061,0,0,1,2.061-2.06h4.121a2.062,2.062,0,0,1,2.061,2.06,2.062,2.062,0,0,1-2.061,2.061Z" fill="#008a3c"/>
    <path id="Trazado_2721" data-name="Trazado 2721" d="M-5510.808,4020.083a2.028,2.028,0,0,0-1.694-.437l-32.971,6.182a2.056,2.056,0,0,0-1.681,2.024v45.335a2.057,2.057,0,0,0,1.681,2.023l32.971,6.182a1.925,1.925,0,0,0,.379.037,2.049,2.049,0,0,0,1.315-.474,2.059,2.059,0,0,0,.746-1.586v-57.7a2.056,2.056,0,0,0-.746-1.587Z" fill="#007b3b"/>
    <path id="Trazado_2722" data-name="Trazado 2722" d="M-5518.816,4057.406l-6.516-7.447,6.59-8.474a2.064,2.064,0,0,0-.358-2.893,2.065,2.065,0,0,0-2.893.359l-6.1,7.847-5.144-5.877a2.049,2.049,0,0,0-2.9-.194,2.058,2.058,0,0,0-.194,2.906l5.667,6.478-5.745,7.386a2.063,2.063,0,0,0,.358,2.893,2.074,2.074,0,0,0,1.27.433,2.054,2.054,0,0,0,1.628-.8l5.254-6.759,5.993,6.846a2.045,2.045,0,0,0,1.55.709,2.051,2.051,0,0,0,1.355-.511,2.057,2.057,0,0,0,.194-2.906Z" fill="#faf9fa"/>
  </g>
</svg>
