<svg xmlns="http://www.w3.org/2000/svg" width="867.349" height="533.823" viewBox="0 0 867.349 533.823">
  <g id="Grupo_8453" data-name="Grupo 8453" transform="translate(10208.271 688.766)">
    <path id="Trazado_1568" data-name="Trazado 1568" d="M-9935.413-678.378c-.479-4.346-1.748-7.307-4.758-8.939-8.923-4.84-31.315,3.012-40.626,15.124-12.984,16.892-1.143,42.866,11.471,44.525C-9954.651-625.738-9932.93-655.94-9935.413-678.378Z" fill="#f8f7ff"/>
    <g id="Grupo_8441" data-name="Grupo 8441">
      <path id="Trazado_1569" data-name="Trazado 1569" d="M-9766.894-170.621h0Z" fill="#dad5fd"/>
      <rect id="Rectángulo_3059" data-name="Rectángulo 3059" width="205.777" height="1.931" transform="translate(-9972.672 -171.586)" fill="#bfb6fc"/>
    </g>
    <g id="Grupo_8442" data-name="Grupo 8442">
      <path id="Trazado_1570" data-name="Trazado 1570" d="M-9922.027-155.908h0Z" fill="#dad5fd"/>
      <rect id="Rectángulo_3060" data-name="Rectángulo 3060" width="129.021" height="1.931" transform="translate(-10051.048 -156.874)" fill="#bfb6fc"/>
    </g>
    <g id="Grupo_8443" data-name="Grupo 8443">
      <path id="Trazado_1571" data-name="Trazado 1571" d="M-9697.611-155.908h0Z" fill="#dad5fd"/>
      <rect id="Rectángulo_3061" data-name="Rectángulo 3061" width="170.242" height="1.931" transform="translate(-9867.854 -156.874)" fill="#bfb6fc"/>
    </g>
    <g id="Grupo_8444" data-name="Grupo 8444">
      <path id="Trazado_1572" data-name="Trazado 1572" d="M-10030.667-170.4h0Z" fill="#dad5fd"/>
      <rect id="Rectángulo_3062" data-name="Rectángulo 3062" width="61.63" height="1.931" transform="translate(-10092.297 -171.361)" fill="#bfb6fc"/>
    </g>
    <g id="Grupo_8445" data-name="Grupo 8445">
      <path id="Trazado_1573" data-name="Trazado 1573" d="M-9609.736-170.621h0Z" fill="#dad5fd"/>
      <rect id="Rectángulo_3063" data-name="Rectángulo 3063" width="124.783" height="1.931" transform="translate(-9734.519 -171.586)" fill="#bfb6fc"/>
    </g>
    <g id="Grupo_8446" data-name="Grupo 8446">
      <path id="Trazado_1574" data-name="Trazado 1574" d="M-9839.7-236.662a14.114,14.114,0,0,1-14.1-14.1,14.114,14.114,0,0,1,14.1-14.1,14.115,14.115,0,0,1,14.1,14.1A14.114,14.114,0,0,1-9839.7-236.662Zm0-26.265a12.181,12.181,0,0,0-12.167,12.167,12.181,12.181,0,0,0,12.167,12.167,12.181,12.181,0,0,0,12.167-12.167A12.181,12.181,0,0,0-9839.7-262.927Z" fill="#3f3578"/>
      <rect id="Rectángulo_3064" data-name="Rectángulo 3064" width="92.684" height="63.719" transform="translate(-9886.044 -250.76)" fill="#bfb6fc"/>
      <rect id="Rectángulo_3065" data-name="Rectángulo 3065" width="9.654" height="63.719" transform="translate(-9803.015 -250.76)" fill="#3f3578"/>
      <rect id="Rectángulo_3066" data-name="Rectángulo 3066" width="83.029" height="1.931" transform="translate(-9886.044 -219.866)" fill="#3f3578"/>
      <rect id="Rectángulo_3067" data-name="Rectángulo 3067" width="13.516" height="8.689" transform="translate(-9851.287 -219.866)" fill="#fff"/>
    </g>
    <rect id="Rectángulo_3068" data-name="Rectángulo 3068" width="193.089" height="308.942" transform="translate(-10024.454 -612.927)" fill="#edeafe"/>
    <rect id="Rectángulo_3069" data-name="Rectángulo 3069" width="1.931" height="116.945" transform="translate(-9928.875 -303.985)" fill="#3f3578"/>
    <path id="Trazado_1575" data-name="Trazado 1575" d="M-9863.678-186.358l-64.232-64.232-64.231,64.232-1.365-1.365,65.6-65.6,65.6,65.6Z" fill="#3f3578"/>
    <path id="Trazado_1576" data-name="Trazado 1576" d="M-9831.365-334.068v30.083h-193.089Z" fill="#dad5fd"/>
    <path id="Trazado_1577" data-name="Trazado 1577" d="M-9960.976-580.91v44.169l-38.259,22.084a43.914,43.914,0,0,1-5.912-22.084,43.918,43.918,0,0,1,5.912-22.085A44.133,44.133,0,0,1-9960.976-580.91Z" fill="#efc261"/>
    <path id="Trazado_1578" data-name="Trazado 1578" d="M-9922.719-514.657a44.133,44.133,0,0,1-38.257,22.085,44.134,44.134,0,0,1-38.259-22.085l38.259-22.084Z" fill="#e37f9c"/>
    <path id="Trazado_1579" data-name="Trazado 1579" d="M-9916.807-536.741a43.9,43.9,0,0,1-5.912,22.084l-38.257-22.084V-580.91a44.132,44.132,0,0,1,38.257,22.084A43.908,43.908,0,0,1-9916.807-536.741Z" fill="#7060d7"/>
    <rect id="Rectángulo_3070" data-name="Rectángulo 3070" width="47.429" height="1.931" transform="translate(-10002.612 -471.007)" fill="#3f3578"/>
    <rect id="Rectángulo_3071" data-name="Rectángulo 3071" width="47.429" height="1.931" transform="translate(-10002.612 -465.214)" fill="#3f3578"/>
    <rect id="Rectángulo_3072" data-name="Rectángulo 3072" width="47.429" height="1.931" transform="translate(-10002.612 -459.422)" fill="#3f3578"/>
    <rect id="Rectángulo_3073" data-name="Rectángulo 3073" width="31.86" height="1.931" transform="translate(-10002.612 -453.629)" fill="#3f3578"/>
    <rect id="Rectángulo_3074" data-name="Rectángulo 3074" width="31.86" height="1.931" transform="translate(-10002.612 -447.836)" fill="#3f3578"/>
    <g id="Grupo_8447" data-name="Grupo 8447">
      <rect id="Rectángulo_3075" data-name="Rectángulo 3075" width="47.429" height="1.931" transform="translate(-9897.138 -571.92)" fill="#3f3578"/>
      <rect id="Rectángulo_3076" data-name="Rectángulo 3076" width="47.429" height="1.931" transform="translate(-9897.138 -566.127)" fill="#3f3578"/>
      <rect id="Rectángulo_3077" data-name="Rectángulo 3077" width="47.429" height="1.931" transform="translate(-9897.138 -560.334)" fill="#3f3578"/>
      <rect id="Rectángulo_3078" data-name="Rectángulo 3078" width="31.86" height="1.931" transform="translate(-9897.138 -554.542)" fill="#3f3578"/>
      <rect id="Rectángulo_3079" data-name="Rectángulo 3079" width="31.86" height="1.931" transform="translate(-9897.138 -548.749)" fill="#3f3578"/>
    </g>
    <g id="Grupo_8448" data-name="Grupo 8448">
      <rect id="Rectángulo_3080" data-name="Rectángulo 3080" width="74.339" height="17.378" transform="translate(-9924.048 -471.007)" fill="#efc261"/>
      <path id="Trazado_1580" data-name="Trazado 1580" d="M-9849.226-453.146h-75.306V-471.49h75.306Zm-74.34-.966h73.374v-16.412h-73.374Z" fill="#efc261"/>
    </g>
    <rect id="Rectángulo_3081" data-name="Rectángulo 3081" width="74.339" height="17.378" transform="translate(-9924.048 -443.974)" fill="#e37f9c"/>
    <rect id="Rectángulo_3082" data-name="Rectángulo 3082" width="74.339" height="17.378" transform="translate(-9924.048 -416.941)" fill="#7060d7"/>
    <rect id="Rectángulo_3083" data-name="Rectángulo 3083" width="867.348" height="1.931" transform="translate(-10208.271 -187.041)" fill="#bfb6fc"/>
    <g id="Grupo_8450" data-name="Grupo 8450">
      <path id="Trazado_1581" data-name="Trazado 1581" d="M-9585.794-503.008c-2.839,13.156-7.6,25.823-11.4,38.735-3.909,13.29-7.854,26.81-7.807,40.663a72.563,72.563,0,0,0,19.584,49.021c4.847,5.134,10.507,9.621,14.24,15.614s5.111,14.223.94,19.921c-6.016,8.22-18.885,6.439-27.682,11.574-11.076,6.465-12.615,22.945-6.3,34.107s35.071,43.1,76.1,35.191c18.365-3.539,43.259-21.017,42.548-39.706-.739-19.461-19.322-35.223-18.69-54.688.415-12.751,8.988-23.528,16.409-33.906s14.335-23.022,10.918-35.314c-5.03-18.1-28.333-23.684-39.619-38.7-7.268-9.667-8.867-22.383-9.318-34.469s-.143-24.471-4.174-35.874C-9539.817-558.491-9574.533-555.193-9585.794-503.008Z" fill="#bfb6fc"/>
      <rect id="Rectángulo_3084" data-name="Rectángulo 3084" width="1.931" height="209.743" transform="translate(-9543.635 -433.466)" fill="#3f3578"/>
      <path id="Trazado_1582" data-name="Trazado 1582" d="M-9541.716-372.861l-1.906-.314c3.123-18.974,24.7-30.774,25.619-31.267l.914,1.7C-9517.3-402.625-9538.75-390.89-9541.716-372.861Z" fill="#3f3578"/>
      <path id="Trazado_1583" data-name="Trazado 1583" d="M-9543.622-290.265c-2.111-12.832-17.4-21.186-17.551-21.268l.915-1.7c.663.357,16.276,8.9,18.542,22.656Z" fill="#3f3578"/>
      <path id="Rectángulo_3085" data-name="Rectángulo 3085" d="M0,0H69.512a0,0,0,0,1,0,0V23.2A20.725,20.725,0,0,1,48.787,43.922H20.725A20.725,20.725,0,0,1,0,23.2V0A0,0,0,0,1,0,0Z" transform="translate(-9577.59 -230.964)" fill="#efc261"/>
      <path id="Trazado_1584" data-name="Trazado 1584" d="M-9565.249-188.918a24.81,24.81,0,0,1-13.306-22.016V-218.3h1.93v7.366a22.886,22.886,0,0,0,12.275,20.307Z" fill="#3f3578"/>
      <rect id="Rectángulo_3086" data-name="Rectángulo 3086" width="69.512" height="1.931" transform="translate(-9577.59 -224.689)" fill="#fff"/>
      <rect id="Rectángulo_3087" data-name="Rectángulo 3087" width="44.279" height="1.931" transform="translate(-9552.356 -231.93)" fill="#3f3578"/>
      <g id="Grupo_8449" data-name="Grupo 8449">
        <path id="Trazado_1585" data-name="Trazado 1585" d="M-9541.974-186.075h0Z" fill="#f8f7ff"/>
        <rect id="Rectángulo_3088" data-name="Rectángulo 3088" width="44.527" height="1.931" transform="translate(-9541.974 -187.041)" fill="#3f3578"/>
      </g>
    </g>
    <path id="Trazado_1586" data-name="Trazado 1586" d="M-9998.751-513.821l-.966-1.672,37.774-21.806v-43.737h1.931v44.852Z" fill="#fff"/>
    <rect id="Rectángulo_3089" data-name="Rectángulo 3089" width="1.931" height="44.174" transform="translate(-9961.46 -535.905) rotate(-60.004)" fill="#fff"/>
    <rect id="Rectángulo_3090" data-name="Rectángulo 3090" width="54.637" height="1.931" transform="translate(-9829.233 -187.039)" fill="#3f3578"/>
    <rect id="Rectángulo_3091" data-name="Rectángulo 3091" width="110.222" height="1.931" transform="translate(-9759.592 -187.039)" fill="#3f3578"/>
    <rect id="Rectángulo_3092" data-name="Rectángulo 3092" width="8.871" height="1.931" transform="translate(-9641.601 -187.041)" fill="#3f3578"/>
    <rect id="Rectángulo_3093" data-name="Rectángulo 3093" width="8.872" height="1.931" transform="translate(-9476.029 -187.041)" fill="#3f3578"/>
    <rect id="Rectángulo_3094" data-name="Rectángulo 3094" width="1.931" height="308.942" transform="translate(-10025.42 -612.927)" fill="#fff"/>
    <path id="Trazado_1587" data-name="Trazado 1587" d="M-9830.4-303.02h-147.192v-1.931h145.261v-103.3h1.932Z" fill="#bfb6fc"/>
    <rect id="Rectángulo_3095" data-name="Rectángulo 3095" width="1.931" height="6.445" transform="translate(-9832.331 -423.386)" fill="#bfb6fc"/>
    <path id="Trazado_1588" data-name="Trazado 1588" d="M-9679.412-465.851c-2.783-3.911-5.565-7.728-5.565-13.388,0-13.946,6.218-14.484,5.658-28.431s-10.9-13.4-11.463-27.344a17.289,17.289,0,0,1,.435-4.791,35.179,35.179,0,0,0,2.752-5.783c.135-.352.259-.714.373-1.066a35.769,35.769,0,0,0,1.841-11.381,35.885,35.885,0,0,0-35.88-35.88,35.887,35.887,0,0,0-35.891,35.88,35.743,35.743,0,0,0,1.842,11.381c.113.352.237.693.361,1.045l.011.01a35.629,35.629,0,0,0,2.763,5.815,17.539,17.539,0,0,1,.424,4.77c-.559,13.946-10.895,13.4-11.453,27.344s5.659,14.485,5.659,28.431c0,5.66-2.783,9.477-5.576,13.388-2.772,3.921-5.556,7.936-5.556,13.957a31.27,31.27,0,0,0,31.275,31.276h32.28a31.261,31.261,0,0,0,31.266-31.276C-9673.856-457.915-9676.639-461.93-9679.412-465.851Z" fill="#3f3578"/>
    <circle id="Elipse_1" data-name="Elipse 1" cx="22.448" cy="22.448" r="22.448" transform="translate(-9746.656 -449.891)" fill="#d05050"/>
    <path id="Trazado_1589" data-name="Trazado 1589" d="M-9840.459-482.955a4.827,4.827,0,0,1,4.684-4.967,4.828,4.828,0,0,1,4.968,4.684,4.828,4.828,0,0,1-4.685,4.966A4.827,4.827,0,0,1-9840.459-482.955Z" fill="#ff95a9"/>
    <circle id="Elipse_2" data-name="Elipse 2" cx="12.551" cy="12.551" r="12.551" transform="translate(-9749.926 -510.783)" fill="#e79a40"/>
    <path id="Trazado_1590" data-name="Trazado 1590" d="M-9845.266-491.143v.006a6.779,6.779,0,0,0-2.2-.306,6.76,6.76,0,0,0-6.559,6.953,6.76,6.76,0,0,0,6.954,6.558l11.58-.34,1.291-9.436Z" fill="#ff95a9"/>
    <path id="Trazado_1591" data-name="Trazado 1591" d="M-9781.752-463.1a9.121,9.121,0,0,0,4.487,12.092,9.119,9.119,0,0,0,12.092-4.486,9.12,9.12,0,0,0-4.486-12.092A9.121,9.121,0,0,0-9781.752-463.1Z" fill="#efc261"/>
    <path id="Trazado_1592" data-name="Trazado 1592" d="M-9747.124-506.152l-33.423,41.108,13.36,12.363,38.447-36.458Z" fill="#efc261"/>
    <path id="Trazado_1593" data-name="Trazado 1593" d="M-9770.769-468.013l-63.439-19.7-3.438,9,60.382,27.7Z" fill="#ff95a9"/>
    <circle id="Elipse_3" data-name="Elipse 3" cx="6.275" cy="6.275" r="6.275" transform="translate(-9737.962 -202.005)" fill="#ff95a9"/>
    <path id="Trazado_1594" data-name="Trazado 1594" d="M-9749.905-497.652l3.249,70.209h44.9l18.553-73.732a7.724,7.724,0,0,0-7.49-9.608h-46.67A12.55,12.55,0,0,0-9749.905-497.652Z" fill="#efc261"/>
    <rect id="Rectángulo_3096" data-name="Rectángulo 3096" width="1.912" height="1.931" transform="matrix(0.244, -0.97, 0.97, 0.244, -9698.44, -448.554)" fill="#fff"/>
    <rect id="Rectángulo_3097" data-name="Rectángulo 3097" width="30.779" height="1.931" transform="matrix(0.244, -0.97, 0.97, 0.244, -9697.124, -453.792)" fill="#fff"/>
    <circle id="Elipse_4" data-name="Elipse 4" cx="12.551" cy="12.551" r="12.551" transform="translate(-9755.105 -499.066) rotate(-42.354)" fill="#efc261"/>
    <path id="Trazado_1595" data-name="Trazado 1595" d="M-9746.656-427.443h44.9l2.42,1.88a33.433,33.433,0,0,1,12.918,26.4v9.655a13.516,13.516,0,0,1-13.517,13.517h-38.989a13.518,13.518,0,0,1-13.517-13.517v-13.222A55.65,55.65,0,0,1-9746.656-427.443Z" fill="#7060d7"/>
    <path id="Trazado_1596" data-name="Trazado 1596" d="M-9720.715-488.913l-20.008-15.17-16.043,21.152.011.009a12.473,12.473,0,0,0-2.044,4.021,12.551,12.551,0,0,0,8.48,15.592,12.547,12.547,0,0,0,13.549-4.461l.011.009Z" fill="#efc261"/>
    <rect id="Rectángulo_3098" data-name="Rectángulo 3098" width="2.014" height="1.931" transform="matrix(0.604, -0.797, 0.797, 0.604, -9746.25, -496.796)" fill="#fff"/>
    <path id="Trazado_1597" data-name="Trazado 1597" d="M-9746.767-462.793a12.543,12.543,0,0,1-3.551-.516,12.467,12.467,0,0,1-7.47-6.04,12.463,12.463,0,0,1-1.012-9.552,12.5,12.5,0,0,1,2.044-4.021l8.856-11.7,1.539,1.167-8.856,11.7a10.582,10.582,0,0,0-1.731,3.4,10.546,10.546,0,0,0,.856,8.083,10.548,10.548,0,0,0,6.319,5.11,10.622,10.622,0,0,0,9.015-1.444l1.094,1.592A12.5,12.5,0,0,1-9746.767-462.793Z" fill="#fff"/>
    <path id="Trazado_1598" data-name="Trazado 1598" d="M-9718.707-462.793a12.543,12.543,0,0,1-3.551-.516,12.556,12.556,0,0,1-3.8-1.861l1.13-1.566a10.617,10.617,0,0,0,3.219,1.575,10.625,10.625,0,0,0,9.014-1.444l1.095,1.592A12.509,12.509,0,0,1-9718.707-462.793Z" fill="#fff"/>
    <path id="Trazado_1599" data-name="Trazado 1599" d="M-9698.716-419.739a4.828,4.828,0,0,0,6.211,2.835,4.827,4.827,0,0,0,2.834-6.211,4.827,4.827,0,0,0-6.21-2.834A4.827,4.827,0,0,0-9698.716-419.739Z" fill="#ff95a9"/>
    <circle id="Elipse_5" data-name="Elipse 5" cx="12.551" cy="12.551" r="12.551" transform="translate(-9706.405 -507.205) rotate(-14.635)" fill="#efc261"/>
    <path id="Trazado_1600" data-name="Trazado 1600" d="M-9702.009-409.235a6.766,6.766,0,0,0,1.925-1.114l0,.006,8.953-7.352-4.753-8.254-10.854,4.051a6.757,6.757,0,0,0-3.968,8.694A6.758,6.758,0,0,0-9702.009-409.235Z" fill="#ff95a9"/>
    <path id="Trazado_1601" data-name="Trazado 1601" d="M-9653.13-461.638a9.12,9.12,0,0,1-.829-12.871,9.121,9.121,0,0,1,12.871-.828,9.12,9.12,0,0,1,.829,12.871A9.12,9.12,0,0,1-9653.13-461.638Z" fill="#efc261"/>
    <path id="Trazado_1602" data-name="Trazado 1602" d="M-9683.39-508.144l41.877,32.454-10.207,15.071-45.716-26.784Z" fill="#efc261"/>
    <rect id="Rectángulo_3099" data-name="Rectángulo 3099" width="1.931" height="17.181" transform="matrix(0.506, -0.863, 0.863, 0.506, -9693.989, -485.384)" fill="#fff"/>
    <path id="Trazado_1603" data-name="Trazado 1603" d="M-9641.1-461.626l-49.912,43.831-6.807-6.819,43.859-49.895Z" fill="#ff95a9"/>
    <path id="Trazado_1604" data-name="Trazado 1604" d="M-9684.258-423.725l-7.627-7.643,37.926-43.144,12.862,12.888Z" fill="#efc261"/>
    <path id="Trazado_1605" data-name="Trazado 1605" d="M-9825.626-485.047l-3.852,10.087,52.212,23.952,6.5-17.01Z" fill="#efc261"/>
    <circle id="Elipse_6" data-name="Elipse 6" cx="13.516" cy="13.516" r="13.516" transform="translate(-9752.443 -403.029)" fill="#7060d7"/>
    <circle id="Elipse_7" data-name="Elipse 7" cx="13.516" cy="13.516" r="13.516" transform="translate(-9718.461 -384.791) rotate(-59.301)" fill="#7060d7"/>
    <path id="Trazado_1606" data-name="Trazado 1606" d="M-9737.962-195.73h12.551v8.689H-9743a2.69,2.69,0,0,1-2.69-2.69h0a2.692,2.692,0,0,1,1.349-2.333Z" fill="#3f3578"/>
    <circle id="Elipse_8" data-name="Elipse 8" cx="6.275" cy="6.275" r="6.275" transform="translate(-9695.441 -202.005)" fill="#ff95a9"/>
    <path id="Trazado_1607" data-name="Trazado 1607" d="M-9685.167-320.7l2.248,124.221-12.5,1.164-11.5-123.359Z" fill="#ff95a9"/>
    <g id="Grupo_8451" data-name="Grupo 8451">
      <path id="Trazado_1608" data-name="Trazado 1608" d="M-9713.4-388.258l6.483,69.588,21.76-1.2-1.271-69.876Z" fill="#7060d7"/>
    </g>
    <circle id="Elipse_9" data-name="Elipse 9" cx="10.919" cy="10.919" r="10.919" transform="translate(-9747.249 -330.542)" fill="#ff95a9"/>
    <path id="Trazado_1609" data-name="Trazado 1609" d="M-9725.412-319.623V-195.73h-12.551l-9.288-123.893Z" fill="#ff95a9"/>
    <g id="Grupo_8452" data-name="Grupo 8452">
      <path id="Trazado_1610" data-name="Trazado 1610" d="M-9725.412-389.512v69.889l-21.808.822-5.188-69.694Z" fill="#7060d7"/>
    </g>
    <path id="Trazado_1611" data-name="Trazado 1611" d="M-9747.219-318.8h62.086l-1.327-69.694h-65.947Z" fill="#7060d7"/>
    <rect id="Rectángulo_3100" data-name="Rectángulo 3100" width="1.931" height="41.983" transform="matrix(0.997, -0.074, 0.074, 0.997, -9752.33, -387.458)" fill="#3f3578"/>
    <path id="Trazado_1612" data-name="Trazado 1612" d="M-9732.881-318.8h-14.338l-1.994-26.789,1.925-.143,1.861,25h12.546Z" fill="#3f3578"/>
    <rect id="Rectángulo_3101" data-name="Rectángulo 3101" width="19.485" height="1.931" transform="translate(-9732.881 -320.732)" fill="#3f3578"/>
    <rect id="Rectángulo_3102" data-name="Rectángulo 3102" width="1.931" height="36.091" transform="translate(-9687.837 -359.367) rotate(-1.091)" fill="#3f3578"/>
    <rect id="Rectángulo_3103" data-name="Rectángulo 3103" width="1.931" height="3.58" transform="translate(-9687.95 -365.28) rotate(-1.094)" fill="#3f3578"/>
    <circle id="Elipse_10" data-name="Elipse 10" cx="10.62" cy="10.62" r="10.62" transform="translate(-9731.215 -521.155) rotate(-1.382)" fill="#ff95a9"/>
    <rect id="Rectángulo_3104" data-name="Rectángulo 3104" width="21.24" height="26.154" transform="translate(-9709.754 -509.977) rotate(-175.586)" fill="#ff95a9"/>
    <path id="Trazado_1613" data-name="Trazado 1613" d="M-9725.03-581.6l1.647.127a19.09,19.09,0,0,1,17.564,20.5l-2.767,35.855-19.938-1.538a18.185,18.185,0,0,1-16.73-19.53l1.5-19.372A17.438,17.438,0,0,1-9725.03-581.6Z" fill="#ff95a9"/>
    <path id="Trazado_1614" data-name="Trazado 1614" d="M-9706.052-546.4l-4.426-.341.683-8.853,4.426.341a4.44,4.44,0,0,1,4.085,4.769h0A4.438,4.438,0,0,1-9706.052-546.4Z" fill="#ff95a9"/>
    <path id="Trazado_1615" data-name="Trazado 1615" d="M-9706.254-555.323l.885.068,1.975-25.571-38.953-3.006-1.012,13.1.887.068a34.746,34.746,0,0,1,20.344,8.616h0a27.109,27.109,0,0,0,15.875,6.723Z" fill="#3f3578"/>
    <path id="Trazado_1616" data-name="Trazado 1616" d="M-9682.891-195.73h-12.552v8.689h17.584a2.691,2.691,0,0,0,2.691-2.69h0a2.69,2.69,0,0,0-1.349-2.333Z" fill="#3f3578"/>
    <path id="Trazado_1617" data-name="Trazado 1617" d="M-9725.809-540.967a5.309,5.309,0,0,1-5.747,4.833,5.31,5.31,0,0,1-4.833-5.748Z" fill="#fff"/>
  </g>
</svg>
