<svg xmlns="http://www.w3.org/2000/svg" width="504.366" height="469.798" viewBox="0 0 504.366 469.798">
  <g id="Grupo_15563" data-name="Grupo 15563" transform="translate(-764.634 -3208.974)">
    <path id="Trazado_17703" data-name="Trazado 17703" d="M1061.124,3324.947a29.9,29.9,0,0,1-26.316-44.063l11.254,6.071a16.853,16.853,0,0,0-2.038,8.1,17.119,17.119,0,0,0,17.1,17.1v12.786Z" fill="#e9e6ff"/>
    <path id="Trazado_17704" data-name="Trazado 17704" d="M1066.859,3324.4l-2.44-12.552a17.053,17.053,0,0,0,1.906-.487l3.887,12.18a29.714,29.714,0,0,1-3.353.859Z" fill="#e9e6ff"/>
    <path id="Trazado_17705" data-name="Trazado 17705" d="M1086.748,3551.435l-21.278-23.853a98.8,98.8,0,0,0,11.557-12.234l25.029,19.88a130.621,130.621,0,0,1-15.308,16.207Z" fill="#ffe4e0"/>
    <path id="Trazado_17706" data-name="Trazado 17706" d="M1109.918,3524.2l-26.964-17.166c.847-1.328,1.661-2.682,2.428-4.022l27.755,15.853c-1.018,1.784-2.1,3.578-3.219,5.335Z" fill="#ffe4e0"/>
    <path id="Trazado_17707" data-name="Trazado 17707" d="M1115.291,3514.942l-28.286-14.89a96.636,96.636,0,0,0,11.2-45.489,99.479,99.479,0,0,0-.678-11.594l31.745-3.739a131.692,131.692,0,0,1,.9,15.333,130.081,130.081,0,0,1-14.876,60.379Z" fill="#ffe4e0"/>
    <path id="Trazado_17708" data-name="Trazado 17708" d="M1096.954,3438.885q-.187-1.158-.4-2.3l31.429-5.823q.285,1.521.528,3.054l-31.558,5.074Z" fill="#e9e6ff"/>
    <path id="Trazado_17709" data-name="Trazado 17709" d="M1092.644,3421.969a97.692,97.692,0,0,0-85.375-64.979l2.209-31.888a129.637,129.637,0,0,1,113.3,86.219l-30.139,10.648Z" fill="#e9e6ff"/>
    <path id="Trazado_17710" data-name="Trazado 17710" d="M996.12,3356.843l-1.372-31.934c2.779-.12,5.6-.152,8.377-.093l-.675,31.957c-2.1-.044-4.232-.02-6.33.07Z" fill="#e9e6ff"/>
    <path id="Trazado_17711" data-name="Trazado 17711" d="M960.874,3365.058l-12.928-29.234a129.456,129.456,0,0,1,20.46-7.062l7.857,30.985a97.068,97.068,0,0,0-15.389,5.311Z" fill="#ffccd6"/>
    <path id="Trazado_17712" data-name="Trazado 17712" d="M949.976,3370.725l-16.5-27.377c3.527-2.126,7.2-4.1,10.9-5.882l13.813,28.827c-2.794,1.339-5.559,2.829-8.217,4.432Z" fill="#ffccd6"/>
    <path id="Trazado_17713" data-name="Trazado 17713" d="M925.733,3391.366,901.348,3370.7a130.447,130.447,0,0,1,25.06-22.773l18.241,26.249a98.485,98.485,0,0,0-18.916,17.19Z" fill="#ffccd6"/>
    <path id="Trazado_17714" data-name="Trazado 17714" d="M907.542,3423.7l-30.335-10.075q.5-1.492,1.025-2.968l30.087,10.8q-.4,1.117-.777,2.246Z" fill="#ddd6ff"/>
    <path id="Trazado_17715" data-name="Trazado 17715" d="M1000.39,3584.338a129.866,129.866,0,0,1-124.383-166.9l30.632,9.133a97.9,97.9,0,0,0,93.751,125.806,96.8,96.8,0,0,0,60.559-21l19.808,25.087a128.451,128.451,0,0,1-80.367,27.872Z" fill="#ddd6ff"/>
    <path id="Trazado_17716" data-name="Trazado 17716" d="M1031.381,3345.705c-.68-.192-1.36-.379-2.045-.56l.326-1.236q1.038.273,2.067.566l-.348,1.23Z" fill="#8b77e8"/>
    <path id="Trazado_17717" data-name="Trazado 17717" d="M887.488,3473.327a114.534,114.534,0,0,1,135.071-131.051l-.245,1.255a113.257,113.257,0,0,0-133.565,129.586l-1.261.21Z" fill="#8b77e8"/>
    <path id="Trazado_17718" data-name="Trazado 17718" d="M902.165,3513.307c-.56-.933-1.115-1.891-1.649-2.845l1.115-.625c.528.943,1.077,1.889,1.631,2.811l-1.1.659Z" fill="#8b77e8"/>
    <path id="Trazado_17719" data-name="Trazado 17719" d="M968.453,3564.478a114.926,114.926,0,0,1-61.619-44l1.045-.738a113.644,113.644,0,0,0,60.93,43.515l-.356,1.226Z" fill="#8b77e8"/>
    <path id="Trazado_17720" data-name="Trazado 17720" d="M1079.081,3537.645l-.878-.928q1.086-1.033,2.148-2.09l.9.905q-1.073,1.073-2.172,2.113Z" fill="#8b77e8"/>
    <path id="Trazado_17721" data-name="Trazado 17721" d="M1085.846,3530.67l-.954-.853a113.214,113.214,0,0,0,13.574-131.726l1.109-.639a114.5,114.5,0,0,1-13.729,133.218Z" fill="#8b77e8"/>
    <path id="Trazado_17722" data-name="Trazado 17722" d="M1096.569,3394.925q-.447-.725-.908-1.44l1.074-.691q.465.725.923,1.456l-1.089.675Z" fill="#8b77e8"/>
    <path id="Trazado_17723" data-name="Trazado 17723" d="M1089.568,3384.9a113.286,113.286,0,0,0-30.9-27.353l.659-1.095a114.521,114.521,0,0,1,31.252,27.661l-1.007.787Z" fill="#8b77e8"/>
    <path id="Trazado_17724" data-name="Trazado 17724" d="M859.488,3492.9l-.33-1.235L910.45,3478l.33,1.234L859.488,3492.9Z" fill="#b3a4f5"/>
    <path id="Trazado_17725" data-name="Trazado 17725" d="M913.774,3478.434l-.331-1.235,2.077-.554.331,1.235-2.077.554Z" fill="#b3a4f5"/>
    <path id="Trazado_17726" data-name="Trazado 17726" d="M919.922,3476.788l-.331-1.235,11.879-3.184.331,1.235-11.879,3.184Z" fill="#b3a4f5"/>
    <path id="Trazado_17727" data-name="Trazado 17727" d="M1060.33,3471.284l-3.184-.852.333-1.235,3.181.852-.33,1.234Z" fill="#b3a4f5"/>
    <path id="Trazado_17728" data-name="Trazado 17728" d="M1085.73,3478.093l-14.315-3.838.333-1.235,14.315,3.835-.333,1.237Z" fill="#b3a4f5"/>
    <path id="Trazado_17729" data-name="Trazado 17729" d="M1142.638,3493.339l-51.748-13.866.33-1.235,51.748,13.866-.33,1.234Z" fill="#b3a4f5"/>
    <path id="Trazado_17730" data-name="Trazado 17730" d="M1153.43,3496.231l-2.627-.7.33-1.235,2.63.7-.333,1.235Z" fill="#b3a4f5"/>
    <path id="Trazado_17731" data-name="Trazado 17731" d="M1039.912,3435.145l-.581-1.139,2.037-1.039.581,1.139-2.037,1.038Z" fill="#b3a4f5"/>
    <path id="Trazado_17732" data-name="Trazado 17732" d="M1049.972,3430.018l-.581-1.139,25.155-12.816.581,1.139-25.155,12.816Z" fill="#b3a4f5"/>
    <path id="Trazado_17733" data-name="Trazado 17733" d="M1080.29,3414.57l-.581-1.139,44.922-22.89.581,1.139-44.922,22.89Z" fill="#b3a4f5"/>
    <path id="Trazado_17734" data-name="Trazado 17734" d="M1128.311,3390.1l-.581-1.139,4.745-2.418.581,1.139-4.745,2.418Z" fill="#b3a4f5"/>
    <path id="Trazado_17735" data-name="Trazado 17735" d="M1147.185,3380.483l-.581-1.138,27.527-14.026.581,1.139-27.527,14.026Z" fill="#b3a4f5"/>
    <path id="Trazado_17736" data-name="Trazado 17736" d="M1025.191,3391.75l-1.194-.458,4.206-10.958,1.194.458-4.206,10.958Z" fill="#b3a4f5"/>
    <path id="Trazado_17737" data-name="Trazado 17737" d="M1030.824,3377.078l-1.194-.458,1.7-4.438,1.194.458-1.7,4.438Z" fill="#b3a4f5"/>
    <path id="Trazado_17738" data-name="Trazado 17738" d="M1038.616,3356.774l-1.194-.458,32.372-84.333,1.194.458-32.372,84.333Z" fill="#b3a4f5"/>
    <path id="Trazado_17739" data-name="Trazado 17739" d="M974.789,3389.652l-.949-2.469,1.194-.458.949,2.469-1.194.458Z" fill="#b3a4f5"/>
    <path id="Trazado_17740" data-name="Trazado 17740" d="M970.89,3379.5,929.8,3272.441l1.194-.458,41.094,107.058-1.194.458Z" fill="#b3a4f5"/>
    <path id="Trazado_17741" data-name="Trazado 17741" d="M920.207,3414.424l-60.035-30.591.581-1.139,60.034,30.591-.58,1.139Z" fill="#b3a4f5"/>
    <path id="Trazado_17742" data-name="Trazado 17742" d="M947.2,3428.178l-13.125-6.688.581-1.138,13.125,6.688-.581,1.139Z" fill="#b3a4f5"/>
    <path id="Trazado_17743" data-name="Trazado 17743" d="M958.131,3433.748l-2.7-1.374.581-1.139,2.7,1.375-.581,1.138Z" fill="#b3a4f5"/>
    <path id="Trazado_17744" data-name="Trazado 17744" d="M853.514,3358.35a35.317,35.317,0,1,1-35.317-35.317,35.317,35.317,0,0,1,35.317,35.317Z" fill="#f3f1ff"/>
    <path id="Trazado_17745" data-name="Trazado 17745" d="M862.716,3339.273c-.427-1-.9-2-1.393-2.966l1.137-.584c.511,1,.993,2.022,1.431,3.046l-1.175.5Z" fill="#b3a4f5"/>
    <path id="Trazado_17746" data-name="Trazado 17746" d="M857.238,3329.7a48.493,48.493,0,0,0-55.059-17.06l-.424-1.206a49.768,49.768,0,0,1,56.513,17.508l-1.03.758Z" fill="#b3a4f5"/>
    <path id="Trazado_17747" data-name="Trazado 17747" d="M786.064,3322.125l-.849-.956c.937-.832,1.912-1.635,2.9-2.385l.774,1.018c-.961.731-1.912,1.512-2.824,2.323Z" fill="#b3a4f5"/>
    <path id="Trazado_17748" data-name="Trazado 17748" d="M818.2,3408.051a49.706,49.706,0,0,1-40.546-78.452l1.042.74a48.424,48.424,0,0,0,74.055,61.936l.913.9a49.336,49.336,0,0,1-35.464,14.88Z" fill="#b3a4f5"/>
    <path id="Trazado_17749" data-name="Trazado 17749" d="M1234.643,3507.973l-.1-1.273a35.916,35.916,0,0,0,10.939-69.02l.487-1.182a37.193,37.193,0,0,1-11.33,71.475Z" fill="#b3a4f5"/>
    <path id="Trazado_17750" data-name="Trazado 17750" d="M1242.628,3436.643c-.359-.113-.715-.219-1.077-.321l.348-1.231q.559.157,1.115.333l-.386,1.219Z" fill="#b3a4f5"/>
    <path id="Trazado_17751" data-name="Trazado 17751" d="M1222.788,3436.129l-.321-1.237a37.279,37.279,0,0,1,4.58-.882l.163,1.268a35.93,35.93,0,0,0-4.422.851Z" fill="#b3a4f5"/>
    <path id="Trazado_17752" data-name="Trazado 17752" d="M1196.125,3466.912l-1.272-.14a37.229,37.229,0,0,1,22.32-30.071l.5,1.175a35.947,35.947,0,0,0-21.55,29.036Z" fill="#b3a4f5"/>
    <path id="Trazado_17753" data-name="Trazado 17753" d="M1245.459,3499.885l-.545-1.155a30.74,30.74,0,0,0,8.921-6.363l.914.893a32.008,32.008,0,0,1-9.29,6.625Z" fill="#ddd6ff"/>
    <path id="Trazado_17754" data-name="Trazado 17754" d="M1257.816,3489.609l-1.036-.747q.442-.617.855-1.252l1.074.695q-.433.665-.893,1.3Z" fill="#ddd6ff"/>
    <path id="Trazado_17755" data-name="Trazado 17755" d="M1260.183,3485.786l-1.129-.595a30.762,30.762,0,0,0-50.595-34.313l-.969-.833a32.04,32.04,0,0,1,52.693,35.741Z" fill="#ddd6ff"/>
    <path id="Trazado_17756" data-name="Trazado 17756" d="M1204.656,3456.446l-1.13-.6c.257-.482.529-.957.809-1.424l1.094.659c-.268.449-.528.905-.773,1.368Z" fill="#ddd6ff"/>
    <path id="Trazado_17757" data-name="Trazado 17757" d="M1244.814,3470.893a13,13,0,1,1-13-13,13,13,0,0,1,13,13Z" fill="#ffe985"/>
    <path id="Trazado_17758" data-name="Trazado 17758" d="M1061.124,3319.194a24.137,24.137,0,0,1-11.19-45.522l.6,1.133a22.857,22.857,0,1,0,29.354,33.313l1.048.732a24.17,24.17,0,0,1-19.808,10.344Z" fill="#b3a4f5"/>
    <path id="Trazado_17759" data-name="Trazado 17759" d="M1084.014,3302.727l-1.212-.406c.193-.577.362-1.162.505-1.739l1.241.307c-.152.61-.33,1.228-.534,1.838Z" fill="#b3a4f5"/>
    <path id="Trazado_17760" data-name="Trazado 17760" d="M1072.418,3295.06a11.294,11.294,0,1,1-11.294-11.294,11.294,11.294,0,0,1,11.294,11.294Z" fill="#ffe985"/>
    <path id="Trazado_17761" data-name="Trazado 17761" d="M835.3,3531.971l-.63-1.112c.6-.338,1.206-.706,1.8-1.088l.694,1.074c-.615.4-1.242.776-1.863,1.126Z" fill="#b3a4f5"/>
    <path id="Trazado_17762" data-name="Trazado 17762" d="M840.494,3528.414l-.81-.99a35.451,35.451,0,1,0-57.885-27.9l-1.279-.018a36.73,36.73,0,1,1,59.974,28.911Z" fill="#b3a4f5"/>
    <path id="Trazado_17763" data-name="Trazado 17763" d="M817.247,3536.708a36.9,36.9,0,0,1-33.272-21.153l1.158-.543a35.528,35.528,0,0,0,39.246,19.7l.256,1.252a37.024,37.024,0,0,1-7.388.744Z" fill="#b3a4f5"/>
    <path id="Trazado_17764" data-name="Trazado 17764" d="M839.94,3467.242c-1.039-.721-2.122-1.4-3.217-2.014l6.262-11.149c1.448.815,2.878,1.71,4.249,2.662l-7.294,10.5Z" fill="#e9e6ff"/>
    <path id="Trazado_17765" data-name="Trazado 17765" d="M834.216,3463.932a39.47,39.47,0,0,0-16.641-3.782l.1-12.785a52.16,52.16,0,0,1,21.995,5.005l-5.456,11.562Z" fill="#e9e6ff"/>
    <path id="Trazado_17766" data-name="Trazado 17766" d="M812.249,3460.459l-1.588-12.687c.547-.068,1.094-.128,1.645-.179l1.184,12.732q-.622.057-1.241.134Z" fill="#e9e6ff"/>
    <path id="Trazado_17767" data-name="Trazado 17767" d="M770.661,3524.447a52.648,52.648,0,0,1,23.906-71.956l5.518,11.535a40.058,40.058,0,0,0-22.666,35.95,39.349,39.349,0,0,0,4.557,18.518l-11.315,5.953Z" fill="#e9e6ff"/>
    <path id="Trazado_17768" data-name="Trazado 17768" d="M782.142,3539.165a53,53,0,0,1-6.327-6.756l10.063-7.889a40.2,40.2,0,0,0,4.8,5.125l-8.535,9.52Z" fill="#e9e6ff"/>
    <path id="Trazado_17769" data-name="Trazado 17769" d="M788.083,3543.774c-.781-.523-1.562-1.074-2.321-1.64l7.656-10.241c.575.429,1.166.849,1.756,1.243l-7.091,10.638Z" fill="#e9e6ff"/>
    <path id="Trazado_17770" data-name="Trazado 17770" d="M845.407,3499.976a28.16,28.16,0,1,1-28.16-28.158,28.16,28.16,0,0,1,28.16,28.158Z" fill="#ff95a9"/>
    <path id="Trazado_17771" data-name="Trazado 17771" d="M828,3486.606c-.426-.341-.878-.671-1.343-.978a17.051,17.051,0,0,0-9.406-2.816v-1.278a18.33,18.33,0,0,1,10.109,3.026c.5.33.985.683,1.443,1.051l-.8.995Z" fill="#fff"/>
    <path id="Trazado_17772" data-name="Trazado 17772" d="M831.866,3511.212l-1.013-.779a17.087,17.087,0,0,0,3.488-8.91c.047-.491.071-1.01.071-1.544a17.1,17.1,0,0,0-4.593-11.677l.936-.87a18.372,18.372,0,0,1,4.935,12.547c0,.575-.025,1.135-.076,1.663a18.358,18.358,0,0,1-3.748,9.57Z" fill="#fff"/>
    <path id="Trazado_17773" data-name="Trazado 17773" d="M829.8,3499.512a12.515,12.515,0,0,0-12.552-12.1v-1.279a13.788,13.788,0,0,1,13.829,13.329l-1.277.047Z" fill="#fff"/>
    <path id="Trazado_17774" data-name="Trazado 17774" d="M828.216,3508.41l-1.011-.782a12.5,12.5,0,0,0,2.451-5.682l1.263.2a13.773,13.773,0,0,1-2.7,6.266Z" fill="#fff"/>
    <path id="Trazado_17775" data-name="Trazado 17775" d="M816.141,3517.458h0a8.572,8.572,0,0,0,2.858,1.984h0a8.572,8.572,0,0,0,7.493-.373l2.564-1.41-5.372-9.771-2.867,1.021a4.883,4.883,0,0,1-3.593-.119h0a4.884,4.884,0,0,1-2.333-2.128l-4.434-8.064a4.892,4.892,0,0,1-.546-3.111h0a4.877,4.877,0,0,1,1.823-3.1l2.4-1.871-5.371-9.771-2.565,1.409a8.576,8.576,0,0,0-4.331,6.123h0a8.572,8.572,0,0,0,.145,3.479h0a57.736,57.736,0,0,0,14.128,25.7Z" fill="#fff"/>
    <path id="Trazado_17776" data-name="Trazado 17776" d="M977.608,3259.931a50.958,50.958,0,1,1-50.958-50.957,50.957,50.957,0,0,1,50.958,50.957Z" fill="#c4b8ff"/>
    <path id="Trazado_17777" data-name="Trazado 17777" d="M926.65,3311.528a51.532,51.532,0,0,1-39.383-18.261l.975-.826a50.322,50.322,0,1,0,54.377-80.241l.406-1.213a51.605,51.605,0,0,1-16.375,100.541Z" fill="#7760db"/>
    <path id="Trazado_17778" data-name="Trazado 17778" d="M878.757,3279.164a51.332,51.332,0,0,1-3.7-19.233,52.152,52.152,0,0,1,.633-8.1l1.262.2a50.932,50.932,0,0,0-.616,7.9,50.05,50.05,0,0,0,3.611,18.756l-1.186.477Z" fill="#7760db"/>
    <path id="Trazado_17779" data-name="Trazado 17779" d="M926.65,3304.571a44.641,44.641,0,1,1,44.639-44.64,44.691,44.691,0,0,1-44.639,44.64Z" fill="#fff"/>
    <path id="Trazado_17780" data-name="Trazado 17780" d="M967.738,3259.932a41.106,41.106,0,1,1-5.154-19.91,41.136,41.136,0,0,1,5.154,19.91Z" fill="#f8f7ff"/>
    <path id="Trazado_17781" data-name="Trazado 17781" d="M962.584,3240.022a62.048,62.048,0,0,1-55.842,55.84,41.081,41.081,0,1,1,55.842-55.84Z" fill="#e9e6ff"/>
    <path id="Trazado_17782" data-name="Trazado 17782" d="M901.41,3297.507a45.269,45.269,0,0,1,46.819-77.376l-.612,1.123a43.991,43.991,0,0,0-45.493,75.193l-.714,1.06Z" fill="#7760db"/>
    <path id="Trazado_17783" data-name="Trazado 17783" d="M928.793,3260.473l-4.287-1.084,6.793-26.861,4.287,1.084-6.793,26.862Z" fill="#7760db"/>
    <path id="Trazado_17784" data-name="Trazado 17784" d="M925.219,3261.615l2.863-3.37,27.3,23.2-2.863,3.37-27.3-23.2Z" fill="#7760db"/>
    <path id="Trazado_17785" data-name="Trazado 17785" d="M946.086,3296.151l-1.1-1.9,2.215-1.279,1.1,1.9-2.215,1.279Z" fill="#7760db"/>
    <path id="Trazado_17786" data-name="Trazado 17786" d="M906.1,3226.885l-1.1-1.9,2.214-1.281,1.1,1.895-2.214,1.281Z" fill="#7760db"/>
    <path id="Trazado_17787" data-name="Trazado 17787" d="M961.591,3281.582l-1.9-1.1,1.281-2.214,1.9,1.1-1.281,2.214Z" fill="#7760db"/>
    <path id="Trazado_17788" data-name="Trazado 17788" d="M892.328,3241.59l-1.9-1.1,1.278-2.215,1.9,1.1-1.279,2.215Z" fill="#7760db"/>
    <path id="Trazado_17789" data-name="Trazado 17789" d="M967.735,3261.21l-2.189,0,0-2.557,2.189,0,0,2.557Z" fill="#7760db"/>
    <path id="Trazado_17790" data-name="Trazado 17790" d="M887.756,3261.208h-2.192v-2.557h2.192v2.557Z" fill="#7760db"/>
    <path id="Trazado_17791" data-name="Trazado 17791" d="M960.972,3241.59l-1.279-2.215,1.9-1.1,1.278,2.215-1.9,1.1Z" fill="#7760db"/>
    <path id="Trazado_17792" data-name="Trazado 17792" d="M891.708,3281.582l-1.278-2.215,1.9-1.1,1.279,2.215-1.9,1.1Z" fill="#7760db"/>
    <path id="Trazado_17793" data-name="Trazado 17793" d="M947.205,3226.887l-2.215-1.279,1.1-1.9,2.215,1.279-1.1,1.9Z" fill="#7760db"/>
    <path id="Trazado_17794" data-name="Trazado 17794" d="M907.213,3296.151,905,3294.873l1.1-1.9,2.215,1.279-1.1,1.9Z" fill="#7760db"/>
    <path id="Trazado_17795" data-name="Trazado 17795" d="M927.929,3221.037h-2.557v-2.192h2.557v2.192Z" fill="#7760db"/>
    <path id="Trazado_17796" data-name="Trazado 17796" d="M927.927,3301.016H925.37v-2.192h2.557v2.192Z" fill="#7760db"/>
    <path id="Trazado_17797" data-name="Trazado 17797" d="M922.8,3262.675a4.732,4.732,0,1,1,6.664,1.2,4.793,4.793,0,0,1-6.664-1.2Z" fill="#7760db"/>
    <path id="Trazado_17798" data-name="Trazado 17798" d="M925.627,3260.659a1.256,1.256,0,1,1,1.768.319,1.272,1.272,0,0,1-1.768-.319Z" fill="#fff"/>
    <path id="Trazado_17799" data-name="Trazado 17799" d="M903.144,3233.177c-4.553,2.9-7.568,13.185-1.493,11.257s11.439-9.621,9.949-13.164c-.7-1.662-5.458,0-8.456,1.907Z" fill="#fff"/>
    <path id="Trazado_17800" data-name="Trazado 17800" d="M894.777,3253.336c-2.246-1.2-1.04-4.428.788-4.225,3.548.4,1.971,5.695-.788,4.225Z" fill="#fff"/>
    <path id="Trazado_17801" data-name="Trazado 17801" d="M1214.643,3381.842h-56.029v-36.267h56.029v36.267Z" fill="#ccc2ff"/>
    <path id="Trazado_17802" data-name="Trazado 17802" d="M1222.313,3374.172H1166.28v-36.267h56.032v36.267Z" fill="#e9e6ff"/>
    <path id="Trazado_17803" data-name="Trazado 17803" d="M1166.28,3374.172l56.032-8.732v8.732Z" fill="#fff"/>
    <path id="Trazado_17804" data-name="Trazado 17804" d="M1166.28,3337.906l28.018,18.977,28.015-18.977v-.633H1166.28v.633Z" fill="#fff"/>
    <path id="Trazado_17805" data-name="Trazado 17805" d="M1244.808,3361.78l-8.808-9.267a20.048,20.048,0,0,0,1.5-1.587l9.756,8.264a32.678,32.678,0,0,1-2.446,2.59Z" fill="#e9e6ff"/>
    <path id="Trazado_17806" data-name="Trazado 17806" d="M1249.426,3356.325l-10.595-7.157a20.1,20.1,0,0,0,3.4-10.054l12.763.75a32.835,32.835,0,0,1-5.571,16.461Z" fill="#e9e6ff"/>
    <path id="Trazado_17807" data-name="Trazado 17807" d="M1241.858,3333.83a20.159,20.159,0,0,0-37.392-5.653l-11.189-6.184a32.944,32.944,0,0,1,61.107,9.269l-12.526,2.568Z" fill="#e9e6ff"/>
    <path id="Trazado_17808" data-name="Trazado 17808" d="M1229.484,3337.906a7.365,7.365,0,1,1-7.364-7.365,7.365,7.365,0,0,1,7.364,7.365Z" fill="#ff95a9"/>
    <path id="Trazado_17809" data-name="Trazado 17809" d="M1222.952,3374.811h-57.311v-7.175h1.281v5.9h54.751V3349.4h1.278v25.411Z" fill="#7760db"/>
    <path id="Trazado_17810" data-name="Trazado 17810" d="M1194.3,3357.655l-28.657-19.41v-1.611h53.2v1.279H1167.43l26.868,18.2,6.327-4.287.718,1.059-7.045,4.773Z" fill="#7760db"/>
    <path id="Trazado_17811" data-name="Trazado 17811" d="M1203.868,3351.177l-.715-1.059,1.973-1.337.715,1.059-1.973,1.337Z" fill="#7760db"/>
    <path id="Trazado_17812" data-name="Trazado 17812" d="M1166.922,3360.151h-1.281v-16.816h1.281v16.816Z" fill="#fff"/>
    <path id="Trazado_17813" data-name="Trazado 17813" d="M1201.124,3382.482h-43.153v-29.764h1.281V3381.2h41.872v1.279Z" fill="#8b77e8"/>
    <path id="Trazado_17814" data-name="Trazado 17814" d="M1211.4,3382.482h-4.427V3381.2h4.427v1.279Z" fill="#8b77e8"/>
    <path id="Trazado_17815" data-name="Trazado 17815" d="M1231.789,3470.928l-1.623,34.771v.006l-.2,4.27-.309,6.627h0a4.6,4.6,0,0,1-4.594,4.384h-65.763l.2-4.384,2.125-45.674Z" fill="#8b77e8"/>
    <path id="Trazado_17816" data-name="Trazado 17816" d="M1229.662,3516.6l-.012.243a5.231,5.231,0,0,1-5.227,4.99H1132.3a5.233,5.233,0,0,1-5.235-5.233h102.6Z" fill="#ccc2ff"/>
    <path id="Trazado_17817" data-name="Trazado 17817" d="M1140.385,3522.477H1132.3a5.881,5.881,0,0,1-5.875-5.872h1.279a4.6,4.6,0,0,0,4.6,4.594h8.088v1.278Z" fill="#624ac9"/>
    <path id="Trazado_17818" data-name="Trazado 17818" d="M1148.834,3522.478h-2.055V3521.2h2.055v1.278Z" fill="#624ac9"/>
    <path id="Trazado_17819" data-name="Trazado 17819" d="M1224.423,3522.477h-72.986V3521.2h72.986a4.59,4.59,0,0,0,4.591-4.381l.008-.242,1.279.059-.012.242a5.864,5.864,0,0,1-5.866,5.6Z" fill="#624ac9"/>
    <path id="Trazado_17820" data-name="Trazado 17820" d="M1230.166,3505.7l-.2,4.27-.309,6.628h-69.443l2.39-.374,67.557-10.524Z" fill="#624ac9"/>
    <path id="Trazado_17821" data-name="Trazado 17821" d="M1208.421,3479.514h-20.707v-1.278h20.707v1.278Z" fill="#fff"/>
    <path id="Trazado_17822" data-name="Trazado 17822" d="M1215.606,3484.02H1192.83v-1.278h22.776v1.278Z" fill="#fff"/>
    <path id="Trazado_17823" data-name="Trazado 17823" d="M1219.867,3488.527h-20.526v-1.278h20.526v1.278Z" fill="#fff"/>
    <path id="Trazado_17824" data-name="Trazado 17824" d="M1208.421,3493.036h-5.849v-1.278h5.849v1.278Z" fill="#fff"/>
    <path id="Trazado_17825" data-name="Trazado 17825" d="M1219.867,3493.036h-7.915v-1.278h7.915v1.278Z" fill="#fff"/>
    <path id="Trazado_17826" data-name="Trazado 17826" d="M1219.867,3479.514h-7.308v-1.278h7.308v1.278Z" fill="#fff"/>
    <path id="Trazado_17827" data-name="Trazado 17827" d="M1230.3,3516.632l-1.275-.058,2.1-45.006h-52.758v-1.278h54.1l-2.16,46.343Z" fill="#624ac9"/>
    <path id="Trazado_17828" data-name="Trazado 17828" d="M1212.559,3517.242h-1.929v-1.278h1.929v1.278Z" fill="#fff"/>
    <path id="Trazado_17829" data-name="Trazado 17829" d="M1205.076,3517.239h-44.04l2.084-44.758h28.327v1.278H1164.34l-1.964,42.2h42.7v1.278Z" fill="#fff"/>
    <path id="Trazado_17830" data-name="Trazado 17830" d="M877.7,3363.187H850.523v2.618H877.7v-2.618Z" fill="#ff8faa"/>
    <path id="Trazado_17831" data-name="Trazado 17831" d="M877.7,3374.1H850.523v2.618H877.7V3374.1Z" fill="#ff8faa"/>
    <path id="Trazado_17832" data-name="Trazado 17832" d="M850.523,3363.187v13.528h2.618v-13.528Z" fill="#ff8faa"/>
    <path id="Trazado_17833" data-name="Trazado 17833" d="M850.523,3376.715H798.676v-13.528h51.847v13.528Z" fill="#ffd259"/>
    <path id="Trazado_17834" data-name="Trazado 17834" d="M841.45,3373.878a3.927,3.927,0,1,1,3.927-3.927,3.931,3.931,0,0,1-3.927,3.927Z" fill="#fff"/>
    <path id="Trazado_17835" data-name="Trazado 17835" d="M844.068,3369.951a2.618,2.618,0,1,1-2.618-2.618,2.618,2.618,0,0,1,2.618,2.618Z" fill="#40327a"/>
    <path id="Trazado_17836" data-name="Trazado 17836" d="M853.141,3365.805h21.637v8.291H853.141v-8.291Z" fill="#ccc2ff"/>
    <path id="Trazado_17837" data-name="Trazado 17837" d="M828.547,3373.278h-22.8v-6.655h22.8v6.655Z" fill="#fff"/>
    <path id="Trazado_17838" data-name="Trazado 17838" d="M877.7,3367.013H860.064v-1.279H877.7v1.279Z" fill="#7760db"/>
    <path id="Trazado_17839" data-name="Trazado 17839" d="M790.98,3349.659h27.172v2.618H790.98v-2.618Z" fill="#b3a4f5"/>
    <path id="Trazado_17840" data-name="Trazado 17840" d="M790.98,3360.569h27.172v2.618H790.98v-2.618Z" fill="#b3a4f5"/>
    <path id="Trazado_17841" data-name="Trazado 17841" d="M818.152,3349.659v13.528h-2.618v-13.528Z" fill="#b3a4f5"/>
    <path id="Trazado_17842" data-name="Trazado 17842" d="M818.152,3363.187H870v-13.528H818.152v13.528Z" fill="#8b77e8"/>
    <path id="Trazado_17843" data-name="Trazado 17843" d="M827.226,3360.351a3.927,3.927,0,1,0-3.928-3.928,3.932,3.932,0,0,0,3.928,3.928Z" fill="#fff"/>
    <path id="Trazado_17844" data-name="Trazado 17844" d="M824.607,3356.423a2.618,2.618,0,1,0,2.619-2.618,2.619,2.619,0,0,0-2.619,2.618Z" fill="#40327a"/>
    <path id="Trazado_17845" data-name="Trazado 17845" d="M815.534,3352.277H793.9v8.291h21.637v-8.291Z" fill="#e9e6ff"/>
    <path id="Trazado_17846" data-name="Trazado 17846" d="M840.129,3359.75h22.8V3353.1h-22.8v6.655Z" fill="#fff"/>
    <path id="Trazado_17847" data-name="Trazado 17847" d="M866.152,3377.354H798.676v-1.279h67.475v1.279Z" fill="#7760db"/>
    <path id="Trazado_17848" data-name="Trazado 17848" d="M843,3363.826H810.083v-1.279H843v1.279Z" fill="#7760db"/>
    <path id="Trazado_17849" data-name="Trazado 17849" d="M864.109,3363.826H850.523v-1.279h13.586v1.279Z" fill="#7760db"/>
    <path id="Trazado_17850" data-name="Trazado 17850" d="M846.692,3363.826h-2.275v-1.279h2.275v1.279Z" fill="#7760db"/>
    <path id="Trazado_17851" data-name="Trazado 17851" d="M794.536,3360.569h-1.279v-8.292h1.279v8.292Z" fill="#fff"/>
    <path id="Trazado_17852" data-name="Trazado 17852" d="M1136.132,3295.726H1060.07v-57.875h76.062v57.875Z" fill="#b3a4f5"/>
    <path id="Trazado_17853" data-name="Trazado 17853" d="M1063.377,3292.419v-51.261h69.449v51.261Z" fill="#fff"/>
    <path id="Trazado_17854" data-name="Trazado 17854" d="M1064.842,3241.158h-1.278V3236.6a3.247,3.247,0,1,1,6.493,0v1.249h-1.278V3236.6a1.969,1.969,0,1,0-3.937,0v4.556Z" fill="#4f37b3"/>
    <path id="Trazado_17855" data-name="Trazado 17855" d="M1075.273,3241.158h-1.279V3236.6a3.247,3.247,0,1,1,6.494,0v1.249h-1.278V3236.6a1.969,1.969,0,1,0-3.937,0v4.556Z" fill="#4f37b3"/>
    <path id="Trazado_17856" data-name="Trazado 17856" d="M1085.7,3241.158h-1.278V3236.6a3.247,3.247,0,1,1,6.494,0v1.249h-1.278V3236.6a1.969,1.969,0,1,0-3.938,0v4.556Z" fill="#4f37b3"/>
    <path id="Trazado_17857" data-name="Trazado 17857" d="M1096.134,3241.158h-1.278V3236.6a3.247,3.247,0,1,1,6.494,0v1.249h-1.282V3236.6a1.967,1.967,0,1,0-3.934,0v4.556Z" fill="#4f37b3"/>
    <path id="Trazado_17858" data-name="Trazado 17858" d="M1106.562,3241.158h-1.278V3236.6a3.246,3.246,0,1,1,6.493,0v1.249H1110.5V3236.6a1.969,1.969,0,1,0-3.937,0v4.556Z" fill="#4f37b3"/>
    <path id="Trazado_17859" data-name="Trazado 17859" d="M1116.993,3241.158h-1.279V3236.6a3.247,3.247,0,1,1,6.494,0v1.249h-1.278V3236.6a1.969,1.969,0,1,0-3.937,0v4.556Z" fill="#4f37b3"/>
    <path id="Trazado_17860" data-name="Trazado 17860" d="M1127.423,3241.158h-1.278V3236.6a3.247,3.247,0,1,1,6.494,0v1.249h-1.278V3236.6a1.969,1.969,0,1,0-3.938,0v4.556Z" fill="#4f37b3"/>
    <path id="Trazado_17861" data-name="Trazado 17861" d="M1132.826,3242.812l-67.794,10.565v-10.565Z" fill="#e9e6ff"/>
    <path id="Trazado_17862" data-name="Trazado 17862" d="M1100.226,3259.821h-4.249v-4.252h4.249v4.252Z" fill="#ddd6ff"/>
    <path id="Trazado_17863" data-name="Trazado 17863" d="M1108.73,3259.821h-4.252v-4.252h4.252v4.252Z" fill="#ddd6ff"/>
    <path id="Trazado_17864" data-name="Trazado 17864" d="M1117.235,3259.821h-4.252v-4.252h4.252v4.252Z" fill="#ddd6ff"/>
    <path id="Trazado_17865" data-name="Trazado 17865" d="M1125.74,3259.821h-4.252v-4.252h4.252v4.252Z" fill="#ddd6ff"/>
    <path id="Trazado_17866" data-name="Trazado 17866" d="M1074.715,3268.324h-4.252v-4.252h4.252v4.252Z" fill="#ddd6ff"/>
    <path id="Trazado_17867" data-name="Trazado 17867" d="M1083.22,3268.324h-4.252v-4.252h4.252v4.252Z" fill="#ddd6ff"/>
    <path id="Trazado_17868" data-name="Trazado 17868" d="M1091.724,3268.324h-4.252v-4.252h4.252v4.252Z" fill="#ddd6ff"/>
    <path id="Trazado_17869" data-name="Trazado 17869" d="M1100.226,3268.324h-4.249v-4.252h4.249v4.252Z" fill="#ff95a9"/>
    <path id="Trazado_17870" data-name="Trazado 17870" d="M1108.73,3268.324h-4.252v-4.252h4.252v4.252Z" fill="#ddd6ff"/>
    <path id="Trazado_17871" data-name="Trazado 17871" d="M1117.235,3268.324h-4.252v-4.252h4.252v4.252Z" fill="#ddd6ff"/>
    <path id="Trazado_17872" data-name="Trazado 17872" d="M1125.74,3268.324h-4.252v-4.252h4.252v4.252Z" fill="#ddd6ff"/>
    <path id="Trazado_17873" data-name="Trazado 17873" d="M1074.715,3276.829h-4.252v-4.252h4.252v4.252Z" fill="#ddd6ff"/>
    <path id="Trazado_17874" data-name="Trazado 17874" d="M1083.22,3276.829h-4.252v-4.252h4.252v4.252Z" fill="#ddd6ff"/>
    <path id="Trazado_17875" data-name="Trazado 17875" d="M1091.724,3276.829h-4.252v-4.252h4.252v4.252Z" fill="#ddd6ff"/>
    <path id="Trazado_17876" data-name="Trazado 17876" d="M1100.226,3276.829h-4.249v-4.252h4.249v4.252Z" fill="#ddd6ff"/>
    <path id="Trazado_17877" data-name="Trazado 17877" d="M1108.73,3276.829h-4.252v-4.252h4.252v4.252Z" fill="#ddd6ff"/>
    <path id="Trazado_17878" data-name="Trazado 17878" d="M1117.235,3276.829h-4.252v-4.252h4.252v4.252Z" fill="#8b77e8"/>
    <path id="Trazado_17879" data-name="Trazado 17879" d="M1125.74,3276.829h-4.252v-4.252h4.252v4.252Z" fill="#ddd6ff"/>
    <path id="Trazado_17880" data-name="Trazado 17880" d="M1074.715,3285.333h-4.252v-4.252h4.252v4.252Z" fill="#ddd6ff"/>
    <path id="Trazado_17881" data-name="Trazado 17881" d="M1083.22,3285.333h-4.252v-4.252h4.252v4.252Z" fill="#ddd6ff"/>
    <path id="Trazado_17882" data-name="Trazado 17882" d="M1091.724,3285.333h-4.252v-4.252h4.252v4.252Z" fill="#ddd6ff"/>
    <path id="Trazado_17883" data-name="Trazado 17883" d="M1100.226,3285.333h-4.249v-4.252h4.249v4.252Z" fill="#ddd6ff"/>
    <path id="Trazado_17884" data-name="Trazado 17884" d="M1108.73,3285.333h-4.252v-4.252h4.252v4.252Z" fill="#ddd6ff"/>
    <path id="Trazado_17885" data-name="Trazado 17885" d="M1133.465,3293.058h-70.088v-1.279h68.809v-50.621h1.278v51.9Z" fill="#7760db"/>
    <path id="Trazado_17886" data-name="Trazado 17886" d="M1060.709,3276.829h-1.278v-38.977h1.278v38.977Z" fill="#7760db"/>
    <path id="Trazado_17887" data-name="Trazado 17887" d="M1060.709,3282.307h-1.278v-3.617h1.278v3.617Z" fill="#7760db"/>
    <path id="Trazado_17888" data-name="Trazado 17888" d="M987.449,3668.391h0Z" fill="#ddd6ff"/>
    <path id="Trazado_17889" data-name="Trazado 17889" d="M1080.727,3669.03H987.446v-1.278h93.281v1.278Z" fill="#c4b8ff"/>
    <path id="Trazado_17890" data-name="Trazado 17890" d="M1087.866,3678.133h0Z" fill="#ddd6ff"/>
    <path id="Trazado_17891" data-name="Trazado 17891" d="M1115.568,3678.772h-27.7v-1.278h27.7v1.278Z" fill="#c4b8ff"/>
    <path id="Trazado_17892" data-name="Trazado 17892" d="M951.8,3678.133h0Z" fill="#ddd6ff"/>
    <path id="Trazado_17893" data-name="Trazado 17893" d="M1054.3,3678.772h-102.5v-1.278h102.5v1.278Z" fill="#c4b8ff"/>
    <path id="Trazado_17894" data-name="Trazado 17894" d="M891.155,3678.133h0Z" fill="#ddd6ff"/>
    <path id="Trazado_17895" data-name="Trazado 17895" d="M905.457,3678.772h-14.3v-1.278h14.3v1.278Z" fill="#c4b8ff"/>
    <path id="Trazado_17896" data-name="Trazado 17896" d="M1111.121,3668.54h0Z" fill="#ddd6ff"/>
    <path id="Trazado_17897" data-name="Trazado 17897" d="M1172.561,3669.179h-61.44V3667.9h61.44v1.278Z" fill="#c4b8ff"/>
    <path id="Trazado_17898" data-name="Trazado 17898" d="M875.385,3668.391h0Z" fill="#ddd6ff"/>
    <path id="Trazado_17899" data-name="Trazado 17899" d="M978.644,3669.03H875.385v-1.278H978.644v1.278Z" fill="#c4b8ff"/>
    <path id="Trazado_17900" data-name="Trazado 17900" d="M851.436,3668.391h0Z" fill="#ddd6ff"/>
    <path id="Trazado_17901" data-name="Trazado 17901" d="M865.316,3669.03h-13.88v-1.278h13.88v1.278Z" fill="#c4b8ff"/>
    <path id="Trazado_17902" data-name="Trazado 17902" d="M1204.644,3659.437h-6.5v-1.278h6.5v1.278Z" fill="#c4b8ff"/>
    <path id="Trazado_17903" data-name="Trazado 17903" d="M1189.217,3659.437H825.484v-1.278h363.733v1.278Z" fill="#c4b8ff"/>
    <path id="Trazado_17904" data-name="Trazado 17904" d="M819.42,3659.437H810.2v-1.278h9.217v1.278Z" fill="#c4b8ff"/>
    <path id="Trazado_17905" data-name="Trazado 17905" d="M1140.387,3659.437h-7.822v-1.278h7.822v1.278Z" fill="#624ac9"/>
    <path id="Trazado_17906" data-name="Trazado 17906" d="M1094.474,3659.437h-31.432v-1.278h31.432v1.278Z" fill="#624ac9"/>
    <path id="Trazado_17907" data-name="Trazado 17907" d="M1054.3,3659.437H905.457v-1.278H1054.3v1.278Z" fill="#624ac9"/>
    <path id="Trazado_17908" data-name="Trazado 17908" d="M881.653,3659.437h-12.33v-1.278h12.33v1.278Z" fill="#624ac9"/>
    <path id="Trazado_17909" data-name="Trazado 17909" d="M1106.512,3668.54h0Z" fill="#ddd6ff"/>
    <path id="Trazado_17910" data-name="Trazado 17910" d="M1106.512,3669.179H1099.8V3667.9h6.713v1.278Z" fill="#c4b8ff"/>
    <path id="Trazado_17911" data-name="Trazado 17911" d="M1222.117,3350.079a12.1,12.1,0,0,1-3.969-.665l.417-1.208a10.9,10.9,0,1,0,3.552-21.2,10.754,10.754,0,0,0-4.757,1.1l-.563-1.149a12.037,12.037,0,0,1,5.32-1.225,12.174,12.174,0,1,1,0,24.347Z" fill="#8b77e8"/>
    <path id="Trazado_17912" data-name="Trazado 17912" d="M1212.617,3332.58l-1.114-.626a12.135,12.135,0,0,1,1.581-2.2l.949.857a10.89,10.89,0,0,0-1.416,1.968Z" fill="#8b77e8"/>
    <path id="Trazado_17913" data-name="Trazado 17913" d="M964.732,3473l17.335,27.329h0l.523.829h4.185a22.3,22.3,0,0,1,4.074-4.142l1.462-1.138-10.576-35.591-17,12.713Z" fill="#40327a"/>
    <path id="Trazado_17914" data-name="Trazado 17914" d="M951.96,3475.314a5.689,5.689,0,0,1-.468-.633,6.01,6.01,0,0,1-.809-2c-.245.464-.477.943-.691,1.442-3.975,9.257-.445,26.844,23.472,27.031l-21.511-25.829.007-.006Z" fill="#40327a"/>
    <path id="Trazado_17915" data-name="Trazado 17915" d="M974.118,3446.1l3.487-3.391.006.007a8.572,8.572,0,0,1,.817-.711,8.272,8.272,0,0,1,4.973-1.646v-.009h9.941L991.585,3420l-.444.079a3.2,3.2,0,0,1-1.112-6.3l.628-.111h0a19.515,19.515,0,0,0,10.9-5.937h0a25.03,25.03,0,0,1,11.414-7.011l3.932,16.285a10.363,10.363,0,0,1-8.268,12.634l-2.067.366.89,10.334h6.55l.008.007a8.326,8.326,0,0,1,4.183,1.128,13.175,13.175,0,0,1-.683-8.694l.008-.036a9.866,9.866,0,0,1,2.35-4.3,23.987,23.987,0,0,0,1.7-2.108l.009,0c.146-.211.292-.415.432-.627a24.712,24.712,0,1,0-45.19-12.5c.012.254.029.517.052.775a24.832,24.832,0,0,0,.374,2.675,9.852,9.852,0,0,1-.187,4.893c0,.012-.009.023-.011.035-2.931,9.154-9.7,6.891-12.626,16.045-2.72,8.492.549,10.4-1.01,18.021l10.311-9.971.392.4Z" fill="#40327a"/>
    <path id="Trazado_17916" data-name="Trazado 17916" d="M1010.3,3422.788a3.517,3.517,0,0,0,2.849-4.076l-6.923,1.227a3.514,3.514,0,0,0,4.074,2.849Z" fill="#fff"/>
    <path id="Trazado_17917" data-name="Trazado 17917" d="M977.734,3614.714l-.64-.035-1.935,37.5h0c0,.072,0,.148,0,.221h8.307v.278l10.845-84.955-14.152.009-2.422,46.979Z" fill="#ff95a9"/>
    <path id="Trazado_17918" data-name="Trazado 17918" d="M1062.983,3535.894v0h-21.731v.038h-1.278v-.038H1032l-1.523,20.459h26.112v1.278h-21.734v4.477h-4.807l-1.194,15.979h27.737v-42.19Z" fill="#ff809f"/>
    <path id="Trazado_17919" data-name="Trazado 17919" d="M1062.983,3535.894h-6.389v42.193h6.394v-42.193Z" fill="#40327a"/>
    <path id="Trazado_17920" data-name="Trazado 17920" d="M1025.909,3562.1v-4.477h-2.557l-1.491,20.456h7l1.194-15.979Z" fill="#e5659b"/>
    <path id="Trazado_17921" data-name="Trazado 17921" d="M1008.112,3567.746v-.026l-6.5,0v10.361h5.811l-.009-10.337Z" fill="#e5659b"/>
    <path id="Trazado_17922" data-name="Trazado 17922" d="M1023.446,3556.35h7.034l1.523-20.459h-7.063l-1.494,20.459Z" fill="#e5659b"/>
    <path id="Trazado_17923" data-name="Trazado 17923" d="M1023.353,3557.628h2.557v-1.278h8.948v1.278h21.734v-1.278h-33.145l-.093,1.278Z" fill="#40327a"/>
    <path id="Trazado_17924" data-name="Trazado 17924" d="M1025.909,3556.35v5.755h8.948v-5.755Z" fill="#fff"/>
    <path id="Trazado_17925" data-name="Trazado 17925" d="M1037.288,3529.534h2.685v6.4h1.279v-7.673h-4.092a4.357,4.357,0,0,1,.14,1c0,.094-.006.187-.012.277Z" fill="#40327a"/>
    <path id="Trazado_17926" data-name="Trazado 17926" d="M1028.349,3529.356l-.012-1.1H1025.5l-.094,1.278h2.957c0-.058-.009-.116-.012-.178Z" fill="#40327a"/>
    <path id="Trazado_17927" data-name="Trazado 17927" d="M1023.446,3556.35l1.494-20.459.464-6.356.093-1.278.49-6.7,0,0,0,.009.006,0-3.438,46.147-14.438.009v.026h.581l.032,39.5h-.613v5.916l.616,0,.015,19.659h-.63v3.432h.633l0,2.612h-.636V3652.4h8.309l.012.006,5.428-74.325,1.491-20.456.093-1.278Z" fill="#ff95a9"/>
    <path id="Trazado_17928" data-name="Trazado 17928" d="M1028.264,3521.687l.073,6.569.012,1.1c0,.062.009.12.012.178a4.469,4.469,0,0,0,8.927,0c.006-.09.012-.183.012-.277a4.357,4.357,0,0,0-.14-1,4.451,4.451,0,0,0-.123-.446l.006,0-2.32-6.523.613-5.163-7.136-.385.064,5.951Z" fill="#ff95a9"/>
    <path id="Trazado_17929" data-name="Trazado 17929" d="M1038.19,3474.4l-.006,0,.307.531a5.382,5.382,0,0,1,.724,2.638,5.289,5.289,0,0,1-.044.7l-1.859,15.748.636.073.633.076,1.868-15.745.07-.666h-.026v-.2a6.658,6.658,0,0,0-.613-2.714l.044-.027-7.67-12.94-.552.327-.548.324,7.036,11.872Z" fill="#ff95a9"/>
    <path id="Trazado_17930" data-name="Trazado 17930" d="M1037.017,3496.532l-.934,7.874.633.076.636.076.934-7.877-.636-.076-.633-.073Z" fill="#ff95a9"/>
    <path id="Trazado_17931" data-name="Trazado 17931" d="M1022.55,3567.711l3.438-46.147-.006,0,0-.009c.009-.122.009-.248.012-.373,0-.1.014-.19.014-.289v-8.756a36.836,36.836,0,0,0-3.782-16.253v.528H1014.1v-.636h-2.247v.636h-1.97v-.636h-17.43l-.14.1-1.462,1.138a22.456,22.456,0,0,0-5.8,6.8l5.116-.094a4.475,4.475,0,1,1-1.29,8.729v.006l-6.2-2a21.852,21.852,0,0,0-.345,2.9h0l-.5,9.544.668.035-.122,2.39-.668-.035-.237,4.553.639.032-1.952,37.862,14.152-.009,7.3,0,6.5,0,14.438-.009Z" fill="#8b77e8"/>
    <path id="Trazado_17932" data-name="Trazado 17932" d="M1008.746,3636.255h-1.278l0,2.612h1.278l0-2.612Z" fill="#624ac9"/>
    <path id="Trazado_17933" data-name="Trazado 17933" d="M1008.728,3613.164l-.616,0h-.663l.015,19.656h1.278l-.015-19.659Z" fill="#624ac9"/>
    <path id="Trazado_17934" data-name="Trazado 17934" d="M1008.693,3567.746h-1.278l.009,10.337.023,29.167h1.278l-.032-39.5Z" fill="#624ac9"/>
    <path id="Trazado_17935" data-name="Trazado 17935" d="M1028.787,3458.486l.528-.312.572-.339-1.807-3.054-.575.34-.522.311,1.8,3.054Z" fill="#ff95a9"/>
    <path id="Trazado_17936" data-name="Trazado 17936" d="M1022.168,3495.131h-8.07v1.278h8.131v-1.278Z" fill="#624ac9"/>
    <path id="Trazado_17937" data-name="Trazado 17937" d="M975.156,3652.4h-.005l-4.221,2.429a1.775,1.775,0,0,0-.893,1.543h0a1.781,1.781,0,0,0,1.781,1.781h11.645V3652.4Z" fill="#40327a"/>
    <path id="Trazado_17938" data-name="Trazado 17938" d="M1016.421,3652.4h-8.309v5.753h11.642a1.782,1.782,0,0,0,1.783-1.781h0a1.779,1.779,0,0,0-.893-1.543l-4.211-2.423-.012-.006Z" fill="#40327a"/>
    <path id="Trazado_17939" data-name="Trazado 17939" d="M988.873,3512.449a4.473,4.473,0,1,0,1.29-8.729l-5.116.094-.761.014-1.7-2.67-.523-.829-5.772,4.217,3.808,4.573.015-.014a3.165,3.165,0,0,0,1.456.98l0,.015,1.1.356,6.2,2v-.006Z" fill="#ff95a9"/>
    <path id="Trazado_17940" data-name="Trazado 17940" d="M1010.812,3474.135a9.1,9.1,0,0,1-1.521-1.549l1.013-.78a7.734,7.734,0,0,0,1.3,1.328l-.8,1Zm-28.745,26.194h0L964.732,3473l17-12.713,10.576,35.591.14-.1h17.43v-.642h1.97v.642h2.247v-.642h8.07l.084-21.255a8.921,8.921,0,0,1-8.933,1.669l.438-1.2a7.667,7.667,0,0,0,10.191-8.467l1.261-.216a8.923,8.923,0,0,1-2.408,7.7l5,6.38.4,36h0l7.136.385h0l1.38-11.639-.633-.076.934-7.874.633.073.3-2.51-.636-.073,1.859-15.748a5.289,5.289,0,0,0,.044-.7,5.382,5.382,0,0,0-.724-2.638l-.307-.531.006,0-7.036-11.872.548-.324-2.387-4.031-.528.312-1.8-3.054.523-.311-6.336-10.692-.006.005a8.5,8.5,0,0,0-.607-.9,8.313,8.313,0,0,0-6.541-3.18l-.008-.007h-1.86l.628,14.76-24.726-14.76H983.4v.009a8.272,8.272,0,0,0-4.973,1.646,8.572,8.572,0,0,0-.817.711l-.006-.007-3.487,3.391.5.516L957.61,3463.06l-.454-.47L955.6,3464.1l.457.458-1.6,1.6-.479-.478-.862.837a6.043,6.043,0,0,0-1.627,8.166,5.689,5.689,0,0,0,.468.633l-.007.006,21.511,25.829,2.831,3.4h0l5.772-4.217Z" fill="#ffc7bd"/>
    <path id="Trazado_17941" data-name="Trazado 17941" d="M1010.3,3471.806l-1.013.78a9.1,9.1,0,0,0,1.521,1.549l.8-1a7.734,7.734,0,0,1-1.3-1.328Z" fill="#ff95a9"/>
    <path id="Trazado_17942" data-name="Trazado 17942" d="M1022.8,3473.359a8.923,8.923,0,0,0,2.408-7.7l-1.261.216a7.582,7.582,0,0,1,.1,1.258,7.676,7.676,0,0,1-10.3,7.209l-.438,1.2a8.921,8.921,0,0,0,8.933-1.669c.19-.164.374-.336.549-.517Z" fill="#ff95a9"/>
    <path id="Trazado_17943" data-name="Trazado 17943" d="M1013.15,3418.712a3.515,3.515,0,1,1-6.923,1.227l6.923-1.227Zm-5.692,21.634-.89-10.334,2.067-.366a10.363,10.363,0,0,0,8.268-12.634l-3.932-16.285a25.03,25.03,0,0,0-11.414,7.011h0a19.515,19.515,0,0,1-10.9,5.937h0l-.628.111a3.2,3.2,0,0,0,1.112,6.3l.444-.079,1.757,20.343H988.05l24.726,14.76-.628-14.76h-4.69Z" fill="#ff95a9"/>
    <path id="Trazado_17944" data-name="Trazado 17944" d="M974.617,3446.613l-.5-.516-.391-.4-10.311,9.971-6.695,6.475.435.449.454.47,17.007-16.447Z" fill="#ff95a9"/>
    <path id="Trazado_17945" data-name="Trazado 17945" d="M956.059,3464.56l-.457-.458-.447-.447-1.6,1.6.425.426.479.479,1.6-1.6Z" fill="#ff95a9"/>
    <path id="Trazado_17946" data-name="Trazado 17946" d="M980.156,3567.735l1.952-37.862-.639-.032-.636-.032-4.378,84.838.639.032.639.035,2.422-46.979Z" fill="#624ac9"/>
    <path id="Trazado_17947" data-name="Trazado 17947" d="M982.374,3525.323l.123-2.39-.668-.035-.61-.032-.123,2.39.61.032.668.035Z" fill="#624ac9"/>
    <path id="Trazado_17948" data-name="Trazado 17948" d="M1009.881,3495.131v1.278h1.97v-1.278Z" fill="#624ac9"/>
  </g>
</svg>
