<svg xmlns="http://www.w3.org/2000/svg" width="385.661" height="384.373" viewBox="0 0 385.661 384.373">
  <g id="Grupo_12634" data-name="Grupo 12634" transform="translate(-863.027 -1703.919)">
    <path id="Trazado_11281" data-name="Trazado 11281" d="M1178.618,1944.843c-5.452-7.289-10.9-14.4-11.155-25.131-.627-26.44,11.137-27.74,9.451-54.155s-21.277-24.909-22.963-51.324a32.748,32.748,0,0,1,.608-9.1,66.92,66.92,0,0,0,4.958-11.088c.238-.672.458-1.365.658-2.036a68.051,68.051,0,1,0-129.082,3.062c.231.662.482,1.3.733,1.965l.02.019a67.643,67.643,0,0,0,5.5,10.9,33.316,33.316,0,0,1,1.019,9.024c-.432,26.465-20.051,25.89-20.484,52.355s11.381,27.206,12.008,53.646c.255,10.729-4.85,18.092-9.969,25.633-5.081,7.557-10.177,15.294-9.906,26.709a59.3,59.3,0,0,0,60.7,57.887l61.2-1.452a59.284,59.284,0,0,0,57.868-60.7C1189.508,1959.637,1184.051,1952.152,1178.618,1944.843Z" fill="#40327a"/>
    <g id="Grupo_12633" data-name="Grupo 12633">
      <path id="Trazado_11282" data-name="Trazado 11282" d="M884.68,2035.271l14.371-13.666,118.251-36.69-12.313-32.246-114.514,52.506h0l-19.97,9.157a12.816,12.816,0,1,0,14.168,20.928Z" fill="#ff95a9"/>
      <path id="Trazado_11283" data-name="Trazado 11283" d="M1019.405,1984.11a17.2,17.2,0,0,0,6.77-5.549l.034.021,58.13-81.945-.021-.013a23.791,23.791,0,1,0-40.4-24.936h0L999.674,1955.1l-93.708,42.967,7.3,19.129,104.034-32.273-.009-.024A17.21,17.21,0,0,0,1019.405,1984.11Z" fill="#ffc7bd"/>
      <path id="Trazado_11284" data-name="Trazado 11284" d="M974.474,2000.127l-1.083-3.5,41.535-12.885v0l1.827-.591a15.086,15.086,0,0,0,1.89-.7,15.458,15.458,0,0,0,6.052-4.961l.984-1.355.019.011,22.914-32.3,2.986,2.118-24.874,35.067-.115-.069a19.121,19.121,0,0,1-6.439,4.821c-.173.078-.35.156-.53.231l.028.075-1.825.592Z" fill="#ff95a9"/>
      <rect id="Rectángulo_4565" data-name="Rectángulo 4565" width="22.713" height="3.662" transform="translate(944.786 2005.497) rotate(-17.211)" fill="#ff95a9"/>
      <rect id="Rectángulo_4566" data-name="Rectángulo 4566" width="27.121" height="3.661" transform="matrix(0.579, -0.815, 0.815, 0.579, 1056.433, 1932.939)" fill="#ff95a9"/>
    </g>
    <path id="Trazado_11285" data-name="Trazado 11285" d="M1043.593,2015.968l-.516-133.281a23.8,23.8,0,0,1,24.809-23.871l88.422,3.749a14.647,14.647,0,0,1,13.419,18.806l-41.074,138.2h0a42.568,42.568,0,1,1-85.06-3.607Z" fill="#ffc7bd"/>
    <path id="Trazado_11286" data-name="Trazado 11286" d="M1157.787,2088.292V2071.4a63.4,63.4,0,0,0-24.5-50.061l-4.588-3.565h-85.137a105.52,105.52,0,0,0-10.977,46.862v23.653Z" fill="#8b77e8"/>
    <path id="Trazado_11287" data-name="Trazado 11287" d="M1048.664,1800.923l5.969-57.11,68.741,2.915L1121.9,1781.5l1.829.078a9.154,9.154,0,1,1-.775,18.292l-1.829-.078-.493,11.616-.85,20.06-.17,3.993-1.081,25.5h0l18.279.775-66.311,39.58,1.794-42.315,6,.254h0l1.081-25.5-2.451-.1A29.673,29.673,0,0,1,1048.664,1800.923Z" fill="#ff95a9"/>
    <path id="Trazado_11288" data-name="Trazado 11288" d="M1135.246,2043.8l16.836.311,64.71-102,27.881,20.351-80.611,96.8-.047-.034a9.094,9.094,0,0,1-4.167,2.806l.006.042-20.91,6.74v-.012a12.812,12.812,0,1,1-3.7-25Z" fill="#ff95a9"/>
    <path id="Trazado_11289" data-name="Trazado 11289" d="M1135.54,1871.861a23.646,23.646,0,0,1,35.66-2.774l.016-.018,70.124,68.186a17.155,17.155,0,0,1,3.319,25.2l.02.014-69.708,83.7-16.537-12.075,49.653-78.264-67.739-50.652h0A23.8,23.8,0,0,1,1135.54,1871.861Z" fill="#ffc7bd"/>
    <rect id="Rectángulo_4567" data-name="Rectángulo 4567" width="3.661" height="67.754" transform="translate(1179.775 1880.254) rotate(-45.956)" fill="#ff95a9"/>
    <rect id="Rectángulo_4568" data-name="Rectángulo 4568" width="3.661" height="6.473" transform="translate(1232.921 1931.65) rotate(-44.998)" fill="#ff95a9"/>
    <rect id="Rectángulo_4569" data-name="Rectángulo 4569" width="23.283" height="3.662" transform="translate(1043.42 2015.938)" fill="#624ac9"/>
    <path id="Trazado_11290" data-name="Trazado 11290" d="M1121.9,1781.5l1.83.078,2.24-52.835-54.449-2.309a26.06,26.06,0,0,0-27.14,24.932l-.043,1.035,1.83.078a71.63,71.63,0,0,1,42.538,16.3h0a55.9,55.9,0,0,0,33.194,12.72Z" fill="#40327a"/>
    <path id="Trazado_11291" data-name="Trazado 11291" d="M1071.29,1808.411a27.514,27.514,0,0,0,10.509-2.072l-1.39-3.386a23.857,23.857,0,0,1-10.374,1.764,24.244,24.244,0,0,1-4.839-.736l-.914,3.547a28.032,28.032,0,0,0,5.568.847Q1070.572,1808.411,1071.29,1808.411Z" fill="#e5659b"/>
  </g>
</svg>
