<svg xmlns="http://www.w3.org/2000/svg" width="179.968" height="179.968" viewBox="0 0 179.968 179.968">
  <g id="Grupo_15956" data-name="Grupo 15956" transform="translate(-619.371 -1356.519)">
    <g id="Grupo_12999" data-name="Grupo 12999">
      <path id="Trazado_11708" data-name="Trazado 11708" d="M799.339,1446.5q0,2.776-.168,5.509a89.985,89.985,0,0,1-84.307,84.307q-2.731.171-5.509.168t-5.509-.168a89.985,89.985,0,0,1-84.307-84.307q-.169-2.731-.168-5.509t.168-5.509a89.985,89.985,0,0,1,84.307-84.307q2.731-.171,5.509-.168t5.509.168a89.985,89.985,0,0,1,84.307,84.307q.171,2.731.168,5.509Zm0,0" fill="#f49e21"/>
    </g>
    <g id="Grupo_13003" data-name="Grupo 13003">
      <path id="Trazado_11713" data-name="Trazado 11713" d="M742.349,1426.04a2.5,2.5,0,0,0-1.024-1l-31.417-17.6a2.844,2.844,0,0,0-2.679,0l-31.416,17.6a2.5,2.5,0,0,0-1.025,1,2.83,2.83,0,0,0-.367,1.392v38.141a2.705,2.705,0,0,0,1.392,2.391l31.416,17.6a2.794,2.794,0,0,0,2.679,0l31.417-17.6a2.707,2.707,0,0,0,1.392-2.391v-38.141a2.82,2.82,0,0,0-.368-1.392Z" fill="#f9637c"/>
      <path id="Trazado_11714" data-name="Trazado 11714" d="M742.717,1427.432v38.141a2.707,2.707,0,0,1-1.392,2.391l-31.417,17.6a2.681,2.681,0,0,1-1.339.342v-40.952l33.78-18.913a2.82,2.82,0,0,1,.368,1.392Z" fill="#c6385d"/>
      <path id="Trazado_11715" data-name="Trazado 11715" d="M742.349,1426.04l-33.78,18.913-33.781-18.913a2.5,2.5,0,0,1,1.025-1l31.416-17.6a2.844,2.844,0,0,1,2.679,0l31.417,17.6a2.5,2.5,0,0,1,1.024,1Z" fill="#e24b6c"/>
      <path id="Trazado_11716" data-name="Trazado 11716" d="M673.995,1498.613a7.9,7.9,0,0,1-11.718,1.629,70.923,70.923,0,0,1,46.292-124.662v-2.5a2.889,2.889,0,0,1,4.57-2.232l15.236,10.375a2.675,2.675,0,0,1,.761,3.7,2.7,2.7,0,0,1-.761.761l-15.236,10.376a2.889,2.889,0,0,1-4.57-2.236v-2.493a55.163,55.163,0,0,0-35.927,97.023,7.817,7.817,0,0,1,1.353,10.245Z" fill="#ff0"/>
      <path id="Trazado_11717" data-name="Trazado 11717" d="M743.284,1394.369a7.9,7.9,0,0,1,10.985-2.051,8.051,8.051,0,0,1,.689.53,70.923,70.923,0,0,1-46.389,124.578v2.5a2.89,2.89,0,0,1-4.571,2.232l-15.235-10.375a2.675,2.675,0,0,1,0-4.466L704,1496.937a2.89,2.89,0,0,1,4.571,2.233v2.495a55.162,55.162,0,0,0,36.008-96.954,7.82,7.82,0,0,1-1.293-10.342Z" fill="#ff0"/>
      <path id="Trazado_11718" data-name="Trazado 11718" d="M695.435,1428.722a2.627,2.627,0,0,1-1.285-4.917l13.134-7.355a2.627,2.627,0,0,1,2.74,4.483c-.057.035-.116.067-.176.1l-13.134,7.355A2.63,2.63,0,0,1,695.435,1428.722Z" fill="#f9637c"/>
      <path id="Trazado_11719" data-name="Trazado 11719" d="M684.928,1463.651a2.627,2.627,0,0,1-2.627-2.627v-17.148a2.626,2.626,0,1,1,5.253,0v17.148A2.627,2.627,0,0,1,684.928,1463.651Z" fill="#f794aa"/>
    </g>
  </g>
</svg>
