<svg xmlns="http://www.w3.org/2000/svg" width="898.393" height="552.93" viewBox="0 0 898.393 552.93">
  <g id="Grupo_15957" data-name="Grupo 15957" transform="translate(-227.036 -2062.353)">
    <path id="Trazado_12549" data-name="Trazado 12549" d="M345.6,3186.38h661.247c117.333-68.239,96.168-207.9,63.648-231.393-44.46-32.119-104.746,88.783-148.246,66.7-124.27-63.1,134.132-240.813,30-281.99-67.758-26.793-114.82,178.207-197.437,106.617-42.985-37.247-3.943-91.477-12.173-135.477-13.05-69.82-129.725-54.933-184.645,53.1-38.342,75.422-118.128,41.4-164.7,25.244-43.24-15-164,56.851-19.2,187.725C422.231,3020.409,205.189,3045.966,345.6,3186.38Z" transform="translate(-8.693 -603.342)" fill="#f8f7ff"/>
    <path id="Trazado_12550" data-name="Trazado 12550" d="M518.353,2676.455c-.5-4.5-1.812-7.569-4.929-9.259-9.243-5.013-32.436,3.119-42.08,15.666-13.449,17.5-1.183,44.4,11.881,46.118C498.426,2730.979,520.924,2699.7,518.353,2676.455Z" transform="translate(-8.693 -603.342)" fill="#f8f7ff"/>
    <g id="Grupo_13746" data-name="Grupo 13746" transform="translate(-8.693 -603.342)">
      <path id="Trazado_12551" data-name="Trazado 12551" d="M692.9,3202.386h0Z" fill="#dad5fd"/>
      <rect id="Rectángulo_5207" data-name="Rectángulo 5207" width="213.143" height="2" transform="translate(479.76 3201.385)" fill="#bfb6fc"/>
    </g>
    <g id="Grupo_13747" data-name="Grupo 13747" transform="translate(-8.693 -603.342)">
      <path id="Trazado_12552" data-name="Trazado 12552" d="M532.217,3217.625h0Z" fill="#dad5fd"/>
      <rect id="Rectángulo_5208" data-name="Rectángulo 5208" width="133.639" height="2" transform="translate(398.578 3216.625)" fill="#bfb6fc"/>
    </g>
    <g id="Grupo_13748" data-name="Grupo 13748" transform="translate(-8.693 -603.342)">
      <path id="Trazado_12553" data-name="Trazado 12553" d="M764.665,3217.625h0Z" fill="#dad5fd"/>
      <rect id="Rectángulo_5209" data-name="Rectángulo 5209" width="176.335" height="2" transform="translate(588.33 3216.625)" fill="#bfb6fc"/>
    </g>
    <g id="Grupo_13749" data-name="Grupo 13749" transform="translate(-8.693 -603.342)">
      <path id="Trazado_12554" data-name="Trazado 12554" d="M419.689,3202.619h0Z" fill="#dad5fd"/>
      <rect id="Rectángulo_5210" data-name="Rectángulo 5210" width="63.835" height="2" transform="translate(355.853 3201.619)" fill="#bfb6fc"/>
    </g>
    <g id="Grupo_13750" data-name="Grupo 13750" transform="translate(-8.693 -603.342)">
      <path id="Trazado_12555" data-name="Trazado 12555" d="M855.686,3202.386h0Z" fill="#dad5fd"/>
      <rect id="Rectángulo_5211" data-name="Rectángulo 5211" width="129.249" height="2" transform="translate(726.437 3201.385)" fill="#bfb6fc"/>
    </g>
    <g id="Grupo_13751" data-name="Grupo 13751" transform="translate(-8.693 -603.342)">
      <path id="Trazado_12556" data-name="Trazado 12556" d="M617.489,3133.981a14.6,14.6,0,1,1,14.6-14.6A14.62,14.62,0,0,1,617.489,3133.981Zm0-27.205a12.6,12.6,0,1,0,12.6,12.6A12.616,12.616,0,0,0,617.489,3106.776Z" fill="#3f3578"/>
      <rect id="Rectángulo_5212" data-name="Rectángulo 5212" width="96.001" height="66" transform="translate(569.488 3119.378)" fill="#bfb6fc"/>
      <rect id="Rectángulo_5213" data-name="Rectángulo 5213" width="10" height="66" transform="translate(655.489 3119.378)" fill="#3f3578"/>
      <rect id="Rectángulo_5214" data-name="Rectángulo 5214" width="86.001" height="2" transform="translate(569.488 3151.378)" fill="#3f3578"/>
      <rect id="Rectángulo_5215" data-name="Rectángulo 5215" width="14" height="9" transform="translate(605.489 3151.378)" fill="#fff"/>
    </g>
    <rect id="Rectángulo_5216" data-name="Rectángulo 5216" width="200" height="320" transform="translate(417.431 2140.906)" fill="#edeafe"/>
    <rect id="Rectángulo_5217" data-name="Rectángulo 5217" width="2" height="121.131" transform="translate(516.431 2460.906)" fill="#3f3578"/>
    <path id="Trazado_12557" data-name="Trazado 12557" d="M592.655,3186.086l-66.531-66.531-66.531,66.531-1.414-1.414,67.945-67.945,67.945,67.945Z" transform="translate(-8.693 -603.342)" fill="#3f3578"/>
    <path id="Trazado_12558" data-name="Trazado 12558" d="M626.124,3033.088v31.16h-200Z" transform="translate(-8.693 -603.342)" fill="#dad5fd"/>
    <path id="Trazado_12559" data-name="Trazado 12559" d="M491.874,2777.411v45.75l-39.627,22.875a45.75,45.75,0,0,1,39.627-68.625Z" transform="translate(-8.693 -603.342)" fill="#efc261"/>
    <path id="Trazado_12560" data-name="Trazado 12560" d="M531.5,2846.036a45.76,45.76,0,0,1-79.253,0l39.627-22.875Z" transform="translate(-8.693 -603.342)" fill="#e37f9c"/>
    <path id="Trazado_12561" data-name="Trazado 12561" d="M537.624,2823.161a45.47,45.47,0,0,1-6.124,22.875l-39.626-22.875v-45.75a45.737,45.737,0,0,1,45.75,45.75Z" transform="translate(-8.693 -603.342)" fill="#7060d7"/>
    <rect id="Rectángulo_5218" data-name="Rectángulo 5218" width="49.126" height="2" transform="translate(440.055 2287.906)" fill="#3f3578"/>
    <rect id="Rectángulo_5219" data-name="Rectángulo 5219" width="49.126" height="2" transform="translate(440.055 2293.906)" fill="#3f3578"/>
    <rect id="Rectángulo_5220" data-name="Rectángulo 5220" width="49.126" height="2" transform="translate(440.055 2299.906)" fill="#3f3578"/>
    <rect id="Rectángulo_5221" data-name="Rectángulo 5221" width="33" height="2" transform="translate(440.055 2305.906)" fill="#3f3578"/>
    <rect id="Rectángulo_5222" data-name="Rectángulo 5222" width="33" height="2" transform="translate(440.055 2311.906)" fill="#3f3578"/>
    <g id="Grupo_13752" data-name="Grupo 13752" transform="translate(-8.693 -603.342)">
      <rect id="Rectángulo_5223" data-name="Rectángulo 5223" width="49.126" height="2" transform="translate(557.998 2786.724)" fill="#3f3578"/>
      <rect id="Rectángulo_5224" data-name="Rectángulo 5224" width="49.126" height="2" transform="translate(557.998 2792.724)" fill="#3f3578"/>
      <rect id="Rectángulo_5225" data-name="Rectángulo 5225" width="49.126" height="2" transform="translate(557.998 2798.724)" fill="#3f3578"/>
      <rect id="Rectángulo_5226" data-name="Rectángulo 5226" width="33" height="2" transform="translate(557.998 2804.724)" fill="#3f3578"/>
      <rect id="Rectángulo_5227" data-name="Rectángulo 5227" width="33" height="2" transform="translate(557.998 2810.724)" fill="#3f3578"/>
    </g>
    <g id="Grupo_13753" data-name="Grupo 13753" transform="translate(-8.693 -603.342)">
      <rect id="Rectángulo_5228" data-name="Rectángulo 5228" width="77" height="18" transform="translate(530.124 2891.248)" fill="#efc261"/>
      <path id="Trazado_12562" data-name="Trazado 12562" d="M607.624,2909.748h-78v-19h78Zm-77-1h76v-17h-76Z" fill="#efc261"/>
    </g>
    <rect id="Rectángulo_5229" data-name="Rectángulo 5229" width="77" height="18" transform="translate(521.431 2315.907)" fill="#e37f9c"/>
    <rect id="Rectángulo_5230" data-name="Rectángulo 5230" width="77" height="18" transform="translate(521.431 2343.908)" fill="#7060d7"/>
    <rect id="Rectángulo_5231" data-name="Rectángulo 5231" width="898.393" height="2" transform="translate(227.036 2582.036)" fill="#bfb6fc"/>
    <g id="Grupo_13755" data-name="Grupo 13755" transform="translate(-8.693 -603.342)">
      <path id="Trazado_12563" data-name="Trazado 12563" d="M880.485,2858.1c-2.941,13.627-7.869,26.748-11.8,40.122-4.05,13.766-8.136,27.769-8.086,42.119a75.158,75.158,0,0,0,20.284,50.775c5.021,5.318,10.883,9.966,14.751,16.173s5.293,14.732.974,20.634c-6.231,8.514-19.561,6.669-28.673,11.988-11.473,6.7-13.067,23.766-6.526,35.328s36.327,44.642,78.827,36.451c19.021-3.667,44.805-21.769,44.07-41.127-.766-20.158-20.014-36.485-19.359-56.646.429-13.208,9.309-24.371,17-35.12s14.848-23.846,11.309-36.578c-5.209-18.743-29.347-24.531-41.036-40.081-7.527-10.014-9.185-23.185-9.652-35.7s-.148-25.347-4.324-37.158C928.108,2800.632,892.149,2804.049,880.485,2858.1Z" fill="#bfb6fc"/>
      <rect id="Rectángulo_5232" data-name="Rectángulo 5232" width="2" height="217.25" transform="translate(924.153 2930.132)" fill="#3f3578"/>
      <path id="Trazado_12564" data-name="Trazado 12564" d="M926.14,2992.907l-1.974-.325c3.235-19.653,25.586-31.876,26.536-32.387l.947,1.762C951.425,2962.077,929.213,2974.233,926.14,2992.907Z" fill="#3f3578"/>
      <path id="Trazado_12565" data-name="Trazado 12565" d="M924.166,3078.46c-2.187-13.292-18.019-21.945-18.179-22.03l.948-1.762c.687.37,16.859,9.214,19.205,23.467Z" fill="#3f3578"/>
      <path id="Rectángulo_5233" data-name="Rectángulo 5233" d="M0,0H72a0,0,0,0,1,0,0V20.747A24.747,24.747,0,0,1,47.253,45.494H24.747A24.747,24.747,0,0,1,0,20.747V0A0,0,0,0,1,0,0Z" transform="translate(888.983 3139.883)" fill="#efc261"/>
      <path id="Trazado_12566" data-name="Trazado 12566" d="M901.766,3183.434a25.7,25.7,0,0,1-13.784-22.8V3153h2v7.63a23.7,23.7,0,0,0,12.714,21.033Z" fill="#3f3578"/>
      <rect id="Rectángulo_5234" data-name="Rectángulo 5234" width="72" height="2" transform="translate(888.982 3146.383)" fill="#fff"/>
      <rect id="Rectángulo_5235" data-name="Rectángulo 5235" width="45.864" height="2" transform="translate(915.119 3138.883)" fill="#3f3578"/>
      <g id="Grupo_13754" data-name="Grupo 13754">
        <path id="Trazado_12567" data-name="Trazado 12567" d="M925.874,3186.378h0Z" fill="#f8f7ff"/>
        <rect id="Rectángulo_5236" data-name="Rectángulo 5236" width="46.121" height="2" transform="translate(925.873 3185.378)" fill="#3f3578"/>
      </g>
    </g>
    <path id="Trazado_12568" data-name="Trazado 12568" d="M452.747,2846.9l-1-1.732,39.126-22.587v-45.3h2v46.457Z" transform="translate(-8.693 -603.342)" fill="#fff"/>
    <rect id="Rectángulo_5237" data-name="Rectángulo 5237" width="2" height="45.755" transform="translate(482.681 2220.686) rotate(-60.004)" fill="#fff"/>
    <rect id="Rectángulo_5238" data-name="Rectángulo 5238" width="56.592" height="2" transform="translate(619.64 2582.038)" fill="#3f3578"/>
    <rect id="Rectángulo_5239" data-name="Rectángulo 5239" width="114.167" height="2" transform="translate(691.774 2582.038)" fill="#3f3578"/>
    <rect id="Rectángulo_5240" data-name="Rectángulo 5240" width="9.189" height="2" transform="translate(813.988 2582.036)" fill="#3f3578"/>
    <rect id="Rectángulo_5241" data-name="Rectángulo 5241" width="9.189" height="2" transform="translate(985.486 2582.036)" fill="#3f3578"/>
    <rect id="Rectángulo_5242" data-name="Rectángulo 5242" width="2" height="320" transform="translate(416.431 2140.906)" fill="#fff"/>
    <path id="Trazado_12569" data-name="Trazado 12569" d="M627.124,3065.248H474.664v-2h150.46v-107h2Z" transform="translate(-8.693 -603.342)" fill="#bfb6fc"/>
    <rect id="Rectángulo_5243" data-name="Rectángulo 5243" width="2" height="6.676" transform="translate(616.431 2337.231)" fill="#bfb6fc"/>
    <path id="Trazado_12570" data-name="Trazado 12570" d="M783.516,2896.589c-2.883-4.051-5.765-8.005-5.765-13.867,0-14.446,6.44-15,5.862-29.449s-11.295-13.878-11.874-28.323a17.861,17.861,0,0,1,.45-4.962A36.607,36.607,0,0,0,775.04,2814c.139-.364.267-.739.385-1.1a37.17,37.17,0,1,0-70.525,0c.118.364.247.718.376,1.082l.01.011a36.884,36.884,0,0,0,2.862,6.022,18.242,18.242,0,0,1,.439,4.941c-.579,14.445-11.284,13.877-11.863,28.323s5.862,15,5.862,29.449c0,5.862-2.883,9.816-5.776,13.867-2.873,4.061-5.755,8.22-5.755,14.456a32.39,32.39,0,0,0,32.4,32.4h33.435a32.381,32.381,0,0,0,32.385-32.4C789.271,2904.809,786.388,2900.65,783.516,2896.589Z" transform="translate(-8.693 -603.342)" fill="#3f3578"/>
    <circle id="Elipse_411" data-name="Elipse 411" cx="23.251" cy="23.251" r="23.251" transform="translate(705.173 2309.778)" fill="#d05050"/>
    <path id="Trazado_12571" data-name="Trazado 12571" d="M616.705,2878.872a5,5,0,1,1,5.144,4.851A5,5,0,0,1,616.705,2878.872Z" transform="translate(-8.693 -603.342)" fill="#ff95a9"/>
    <circle id="Elipse_412" data-name="Elipse 412" cx="13" cy="13" r="13" transform="translate(701.786 2246.707)" fill="#e79a40"/>
    <path id="Trazado_12572" data-name="Trazado 12572" d="M611.726,2870.391v.007a7,7,0,1,0-1.87,13.677l11.995-.352,1.336-9.774Z" transform="translate(-8.693 -603.342)" fill="#ff95a9"/>
    <path id="Trazado_12573" data-name="Trazado 12573" d="M677.513,2899.436a9.447,9.447,0,1,0,12.525-4.647A9.447,9.447,0,0,0,677.513,2899.436Z" transform="translate(-8.693 -603.342)" fill="#efc261"/>
    <path id="Trazado_12574" data-name="Trazado 12574" d="M713.38,2854.845l-34.618,42.58L692.6,2910.23l39.824-37.763Z" transform="translate(-8.693 -603.342)" fill="#efc261"/>
    <path id="Trazado_12575" data-name="Trazado 12575" d="M688.889,2894.349l-65.71-20.4-3.562,9.322,62.543,28.691Z" transform="translate(-8.693 -603.342)" fill="#ff95a9"/>
    <circle id="Elipse_413" data-name="Elipse 413" cx="6.5" cy="6.5" r="6.5" transform="translate(714.178 2566.537)" fill="#ff95a9"/>
    <path id="Trazado_12576" data-name="Trazado 12576" d="M710.5,2863.65l3.365,72.721h46.5L779.584,2860a8,8,0,0,0-7.758-9.952h-48.34A13,13,0,0,0,710.5,2863.65Z" transform="translate(-8.693 -603.342)" fill="#efc261"/>
    <rect id="Rectángulo_5244" data-name="Rectángulo 5244" width="1.98" height="2" transform="matrix(0.244, -0.97, 0.97, 0.244, 755.114, 2311.163)" fill="#fff"/>
    <rect id="Rectángulo_5245" data-name="Rectángulo 5245" width="31.881" height="2" transform="matrix(0.244, -0.97, 0.97, 0.244, 756.477, 2305.737)" fill="#fff"/>
    <circle id="Elipse_414" data-name="Elipse 414" cx="13" cy="13" r="13" transform="translate(696.42 2258.844) rotate(-42.354)" fill="#efc261"/>
    <path id="Trazado_12577" data-name="Trazado 12577" d="M713.865,2936.371h46.5l2.507,1.947a34.628,34.628,0,0,1,13.381,27.343v10a14,14,0,0,1-14,14H721.869a14,14,0,0,1-14-14v-13.7A57.641,57.641,0,0,1,713.865,2936.371Z" transform="translate(-8.693 -603.342)" fill="#7060d7"/>
    <path id="Trazado_12578" data-name="Trazado 12578" d="M740.735,2872.7l-20.724-15.713-16.618,21.91.012.008a12.989,12.989,0,1,0,20.7,15.7l.012.01Z" transform="translate(-8.693 -603.342)" fill="#efc261"/>
    <rect id="Rectángulo_5246" data-name="Rectángulo 5246" width="2.086" height="2" transform="matrix(0.604, -0.797, 0.797, 0.604, 705.593, 2261.195)" fill="#fff"/>
    <path id="Trazado_12579" data-name="Trazado 12579" d="M713.75,2899.756a12.982,12.982,0,0,1-10.345-20.85l9.174-12.119,1.594,1.208L705,2880.115a10.984,10.984,0,0,0,14.978,15.693l1.132,1.649A12.946,12.946,0,0,1,713.75,2899.756Z" transform="translate(-8.693 -603.342)" fill="#fff"/>
    <path id="Trazado_12580" data-name="Trazado 12580" d="M742.814,2899.756a13.1,13.1,0,0,1-7.616-2.462l1.171-1.622a11,11,0,0,0,12.671.136l1.132,1.649A12.951,12.951,0,0,1,742.814,2899.756Z" transform="translate(-8.693 -603.342)" fill="#fff"/>
    <path id="Trazado_12581" data-name="Trazado 12581" d="M763.522,2944.351a5,5,0,1,0,2.936-6.432A5,5,0,0,0,763.522,2944.351Z" transform="translate(-8.693 -603.342)" fill="#ff95a9"/>
    <circle id="Elipse_415" data-name="Elipse 415" cx="13" cy="13" r="13" transform="translate(746.863 2250.413) rotate(-14.635)" fill="#efc261"/>
    <path id="Trazado_12582" data-name="Trazado 12582" d="M760.111,2955.231a6.978,6.978,0,0,0,1.993-1.154l0,.006,9.273-7.615-4.922-8.549-11.243,4.2a7,7,0,0,0,4.9,13.116Z" transform="translate(-8.693 -603.342)" fill="#ff95a9"/>
    <path id="Trazado_12583" data-name="Trazado 12583" d="M810.738,2900.953a9.447,9.447,0,1,1,13.332-.858A9.447,9.447,0,0,1,810.738,2900.953Z" transform="translate(-8.693 -603.342)" fill="#efc261"/>
    <path id="Trazado_12584" data-name="Trazado 12584" d="M779.4,2852.782l43.376,33.616L812.2,2902.009l-47.353-27.743Z" transform="translate(-8.693 -603.342)" fill="#efc261"/>
    <rect id="Rectángulo_5247" data-name="Rectángulo 5247" width="2" height="17.796" transform="matrix(0.506, -0.863, 0.863, 0.506, 759.724, 2273.015)" fill="#fff"/>
    <path id="Trazado_12585" data-name="Trazado 12585" d="M823.2,2900.965l-51.7,45.4-7.05-7.063,45.43-51.681Z" transform="translate(-8.693 -603.342)" fill="#ff95a9"/>
    <path id="Trazado_12586" data-name="Trazado 12586" d="M778.5,2940.223l-7.9-7.917,39.283-44.688,13.323,13.349Z" transform="translate(-8.693 -603.342)" fill="#efc261"/>
    <path id="Trazado_12587" data-name="Trazado 12587" d="M632.069,2876.706l-3.99,10.448,54.081,24.809,6.729-17.619Z" transform="translate(-8.693 -603.342)" fill="#efc261"/>
    <circle id="Elipse_416" data-name="Elipse 416" cx="14" cy="14" r="14" transform="translate(699.178 2358.318)" fill="#7060d7"/>
    <circle id="Elipse_417" data-name="Elipse 417" cx="14" cy="14" r="14" transform="translate(734.376 2377.208) rotate(-59.301)" fill="#7060d7"/>
    <path id="Trazado_12588" data-name="Trazado 12588" d="M722.871,3176.378h13v9H717.657a2.787,2.787,0,0,1-2.787-2.787h0a2.787,2.787,0,0,1,1.4-2.416Z" transform="translate(-8.693 -603.342)" fill="#3f3578"/>
    <circle id="Elipse_418" data-name="Elipse 418" cx="6.5" cy="6.5" r="6.5" transform="translate(758.22 2566.537)" fill="#ff95a9"/>
    <path id="Trazado_12589" data-name="Trazado 12589" d="M777.555,3046.938l2.329,128.667-12.944,1.206-11.907-127.774Z" transform="translate(-8.693 -603.342)" fill="#ff95a9"/>
    <g id="Grupo_13756" data-name="Grupo 13756" transform="translate(-8.693 -603.342)">
      <path id="Trazado_12590" data-name="Trazado 12590" d="M748.315,2976.958l6.716,72.079,22.538-1.246-1.316-72.377Z" fill="#7060d7"/>
    </g>
    <circle id="Elipse_419" data-name="Elipse 419" cx="11.31" cy="11.31" r="11.31" transform="translate(704.558 2433.399)" fill="#ff95a9"/>
    <path id="Trazado_12591" data-name="Trazado 12591" d="M735.869,3048.051v128.328h-13l-9.62-128.328Z" transform="translate(-8.693 -603.342)" fill="#ff95a9"/>
    <g id="Grupo_13757" data-name="Grupo 13757" transform="translate(-8.693 -603.342)">
      <path id="Trazado_12592" data-name="Trazado 12592" d="M735.869,2975.66v72.391l-22.589.852-5.374-72.188Z" fill="#7060d7"/>
    </g>
    <path id="Trazado_12593" data-name="Trazado 12593" d="M713.282,3048.9H777.59l-1.375-72.188H707.908Z" transform="translate(-8.693 -603.342)" fill="#7060d7"/>
    <rect id="Rectángulo_5248" data-name="Rectángulo 5248" width="2" height="43.486" transform="matrix(0.997, -0.074, 0.074, 0.997, 699.295, 2374.446)" fill="#3f3578"/>
    <path id="Trazado_12594" data-name="Trazado 12594" d="M728.133,3048.9H713.282l-2.065-27.748,1.994-.148,1.928,25.9h12.995Z" transform="translate(-8.693 -603.342)" fill="#3f3578"/>
    <rect id="Rectángulo_5249" data-name="Rectángulo 5249" width="20.182" height="2" transform="translate(719.44 2443.56)" fill="#3f3578"/>
    <rect id="Rectángulo_5250" data-name="Rectángulo 5250" width="2" height="37.383" transform="translate(766.097 2403.542) rotate(-1.091)" fill="#3f3578"/>
    <rect id="Rectángulo_5251" data-name="Rectángulo 5251" width="2" height="3.708" transform="translate(765.98 2397.417) rotate(-1.094)" fill="#3f3578"/>
    <circle id="Elipse_420" data-name="Elipse 420" cx="11" cy="11" r="11" transform="matrix(1, -0.024, 0.024, 1, 721.166, 2235.964)" fill="#ff95a9"/>
    <rect id="Rectángulo_5252" data-name="Rectángulo 5252" width="22" height="27.09" transform="translate(743.395 2247.542) rotate(-175.586)" fill="#ff95a9"/>
    <path id="Trazado_12595" data-name="Trazado 12595" d="M736.266,2776.692l1.706.131a19.774,19.774,0,0,1,18.193,21.237L753.3,2835.2l-20.652-1.594a18.834,18.834,0,0,1-17.329-20.228l1.548-20.066A18.063,18.063,0,0,1,736.266,2776.692Z" transform="translate(-8.693 -603.342)" fill="#ff95a9"/>
    <path id="Trazado_12596" data-name="Trazado 12596" d="M755.923,2813.155l-4.585-.354.707-9.17,4.585.354a4.6,4.6,0,0,1,4.231,4.939h0A4.6,4.6,0,0,1,755.923,2813.155Z" transform="translate(-8.693 -603.342)" fill="#ff95a9"/>
    <path id="Trazado_12597" data-name="Trazado 12597" d="M755.713,2803.915l.917.07,2.045-26.486-40.348-3.114-1.047,13.57.917.071a35.993,35.993,0,0,1,21.073,8.924h0a28.082,28.082,0,0,0,16.443,6.965Z" transform="translate(-8.693 -603.342)" fill="#3f3578"/>
    <path id="Trazado_12598" data-name="Trazado 12598" d="M779.912,3176.378h-13v9h18.214a2.787,2.787,0,0,0,2.787-2.787h0a2.787,2.787,0,0,0-1.4-2.416Z" transform="translate(-8.693 -603.342)" fill="#3f3578"/>
    <path id="Trazado_12599" data-name="Trazado 12599" d="M735.459,2818.784a5.5,5.5,0,1,1-10.96-.948Z" transform="translate(-8.693 -603.342)" fill="#fff"/>
  </g>
</svg>
