<svg xmlns="http://www.w3.org/2000/svg" width="171.56" height="209.946" viewBox="0 0 171.56 209.946">
  <g id="Grupo_13907" data-name="Grupo 13907" transform="translate(-854.063 -4622.891)">
    <path id="Trazado_14621" data-name="Trazado 14621" d="M1006.55,4741.655c-3.8-3.2-7.586-6.307-9.053-11.983-3.617-13.985,2.479-16.137-1.7-29.978s-14.41-10.608-18.586-24.449a17.88,17.88,0,0,1-.807-4.916,36.514,36.514,0,0,0,1.26-6.514c.044-.387.074-.783.1-1.165a37.169,37.169,0,1,0-68.279,17.657c.206.323.419.633.635.953l.013.008a36.761,36.761,0,0,0,4.278,5.114,18.268,18.268,0,0,1,1.662,4.674c3.056,14.13-7.451,16.26-4.4,30.391s9.432,13.058,13.048,27.043c1.468,5.676-.333,10.226-2.12,14.872-1.764,4.651-3.514,9.4-1.952,15.437a32.388,32.388,0,0,0,39.474,23.253l32.371-8.37a32.382,32.382,0,0,0,23.243-39.472C1014.179,4748.172,1010.347,4744.867,1006.55,4741.655Z" fill="#40327a"/>
    <path id="Trazado_14622" data-name="Trazado 14622" d="M898.324,4744.7a12.922,12.922,0,0,1,1.041-4.555l-.014-.006,10.79-25.293.008,0a13,13,0,0,1,12.5-7.892l48.3,2.006a8,8,0,0,1,7.339,10.265l-22.368,75.507h0a23.251,23.251,0,0,1-46.462-1.93l-.165-34.731A13,13,0,0,1,898.324,4744.7Z" fill="#ffc7bd"/>
    <path id="Trazado_14623" data-name="Trazado 14623" d="M971.825,4832.837v-9.772a34.628,34.628,0,0,0-13.381-27.343l-2.506-1.947h-46.5a57.63,57.63,0,0,0-6,25.6v13.467Z" fill="#8b77e8"/>
    <path id="Trazado_14624" data-name="Trazado 14624" d="M854.133,4744.454l8.618-67.075-3.527-10.241h.007a6.988,6.988,0,0,1,9.629-8.589v-11.367a2,2,0,0,1,4,0v20h-.013l.013,9.668h0l.088,68.809Z" fill="#ff95a9"/>
    <path id="Trazado_14625" data-name="Trazado 14625" d="M854.144,4744.454h-.014l7.583-59.01,11.161.715.057,44.156,42.253-21.366a13,13,0,1,1,11.411,23.2l.026.061L866.8,4754.524l-.006-.015a9.423,9.423,0,0,1-12.653-10.055Z" fill="#ffc7bd"/>
    <rect id="Rectángulo_5341" data-name="Rectángulo 5341" width="6.246" height="2" transform="matrix(0.127, -0.992, 0.992, 0.127, 859.239, 4696.852)" fill="#ff95a9"/>
    <rect id="Rectángulo_5342" data-name="Rectángulo 5342" width="3.425" height="2" transform="translate(858.462 4702.896) rotate(-82.675)" fill="#ff95a9"/>
    <path id="Trazado_14626" data-name="Trazado 14626" d="M911.318,4759.243a14,14,0,0,0,2.684-.259l-.384-1.963a11.979,11.979,0,0,1-13.333-16.481l.392-.918-.014-.006,6.9-16.177-1.84-.785-7.684,18.014.045.019a13.827,13.827,0,0,0-.76,3.975,14.015,14.015,0,0,0,13.407,14.568C910.927,4759.238,911.123,4759.243,911.318,4759.243Z" fill="#ff95a9"/>
    <path id="Trazado_14627" data-name="Trazado 14627" d="M917.3,4757.9a13.965,13.965,0,0,0,4.311-3.186l-1.474-1.351a11.986,11.986,0,0,1-3.7,2.73Z" fill="#ff95a9"/>
    <path id="Trazado_14628" data-name="Trazado 14628" d="M915.59,4670.684l7.923-30.346,36.878,7.231-3.658,18.656.982.193a5,5,0,1,1-1.925,9.813l-.98-.193-4.447,32.073,9.934.413-36.2,21.65.96-23.114,3.278.137c.014-.35.043-.7.092-1.055l2.079-15-2.352-.461A16.207,16.207,0,0,1,915.59,4670.684Z" fill="#ff95a9"/>
    <path id="Trazado_14629" data-name="Trazado 14629" d="M956.733,4666.226l.982.192,5.558-28.345-29.211-5.728a14.233,14.233,0,0,0-16.706,11.229l-.109.555.982.193a39.125,39.125,0,0,1,21.627,12.3h0a30.54,30.54,0,0,0,16.877,9.6Z" fill="#40327a"/>
    <path id="Trazado_14630" data-name="Trazado 14630" d="M964.962,4808.228l9.474-1.6,32.491-57.928,15.809,10.274-41.1,55.178-.008-.006a4.98,4.98,0,0,1-1.617,1.387l.008.021-10.543,5.73,0-.006a7,7,0,1,1-4.509-13.047Z" fill="#ff95a9"/>
    <path id="Trazado_14631" data-name="Trazado 14631" d="M958.868,4715.225a12.915,12.915,0,0,1,19.232-3.441l.007-.012,42.949,34.16-.006.009a9.44,9.44,0,0,1,2.355,12,9.546,9.546,0,0,1-.677,1.027l.011.007L987.2,4806.684l-9.376-6.1,24.627-43.908-39.158-23.609A13,13,0,0,1,958.868,4715.225Z" fill="#ffc7bd"/>
    <path id="Trazado_14632" data-name="Trazado 14632" d="M1020.246,4763.994l3.912-5.252-.046-.032c.058-.094.113-.188.165-.282a10.389,10.389,0,0,0-1.915-12.671l.022-.033-.7-.575-13.591-10.81-1.245,1.565,13.584,10.819a8.364,8.364,0,0,1,1.5,11.645l-.618.828.012.009-2.678,3.593Z" fill="#ff95a9"/>
    <rect id="Rectángulo_5343" data-name="Rectángulo 5343" width="1.999" height="4.799" transform="translate(1000.044 4730.496) rotate(-51.49)" fill="#ff95a9"/>
    <rect id="Rectángulo_5344" data-name="Rectángulo 5344" width="7.278" height="2" transform="translate(932.631 4792.783) rotate(-0.061)" fill="#624ac9"/>
    <rect id="Rectángulo_5345" data-name="Rectángulo 5345" width="16.625" height="2" transform="translate(911.976 4792.775)" fill="#624ac9"/>
    <path id="Trazado_14633" data-name="Trazado 14633" d="M931.047,4677.314a15.042,15.042,0,0,0,2.862-.276l-.379-1.962a13.094,13.094,0,0,1-5.745-.175,13.341,13.341,0,0,1-2.511-.918l-.872,1.8a15.411,15.411,0,0,0,2.889,1.054A15.138,15.138,0,0,0,931.047,4677.314Z" fill="#e5659b"/>
  </g>
</svg>
