<svg xmlns="http://www.w3.org/2000/svg" width="61.823" height="61.823" viewBox="0 0 61.823 61.823">
  <g id="Grupo_10860" data-name="Grupo 10860" transform="translate(-3897.335 -1766.798)">
    <path id="Trazado_7110" data-name="Trazado 7110" d="M3902.216,1766.8h52.061a4.87,4.87,0,0,1,4.881,4.88v52.062a4.87,4.87,0,0,1-4.881,4.881h-52.061a4.87,4.87,0,0,1-4.881-4.881v-52.062a4.87,4.87,0,0,1,4.881-4.88Zm0,0" fill="red"/>
    <path id="Trazado_7111" data-name="Trazado 7111" d="M3938.362,1786.081h-20.231a6.152,6.152,0,0,0-6.153,6.157v10.942a6.152,6.152,0,0,0,6.153,6.158h20.231a6.152,6.152,0,0,0,6.153-6.158v-10.942a6.152,6.152,0,0,0-6.153-6.157Zm-14.4,16.615v-9.973l8.575,4.986Zm0,0" fill="#fff"/>
  </g>
</svg>
