<svg xmlns="http://www.w3.org/2000/svg" width="717.908" height="447.891" viewBox="0 0 717.908 447.891">
  <g id="Grupo_14067" data-name="Grupo 14067" transform="translate(-345.755 -7502.184)">
    <path id="Trazado_15114" data-name="Trazado 15114" d="M1022.012,7925.539s70.341-45.792,28.2-88.618-54.746-37.521-42.615-85.255,61.265-65.489,41.729-101.712c-23.45-43.479-76.91-3.815-110.139,11.411-61.777,28.306-61.407-14.009-37.682-53.594s25.428-105.587-29.363-105.587c-59.6,0-190.563,128.775-262.714,217.774-43.181,53.265-74.653,16.2-70.281-18.018,2.779-21.75,8.561-56.906-4.971-73.083-23.487-28.077-92.48,59.888-116.84,97.471C322,7873.42,437.889,7925.539,437.889,7925.539Z" fill="#f6f6ff"/>
    <path id="Trazado_15115" data-name="Trazado 15115" d="M489.735,7566.784c2.675-6.129,3.533-10.827,1.633-14.7-5.634-11.48-34.349-13.32-52.742-2.15-25.648,15.576-32.429,57.184-20.688,66.422C431.6,7627.106,475.922,7598.426,489.735,7566.784Z" fill="#f6f6ff"/>
    <g id="Grupo_14022" data-name="Grupo 14022">
      <path id="Trazado_15116" data-name="Trazado 15116" d="M672.857,7937.718h0Z" fill="#d9d4fc"/>
      <rect id="Rectángulo_5503" data-name="Rectángulo 5503" width="216.942" height="1.522" transform="translate(672.857 7936.957)" fill="#beb6fc"/>
    </g>
    <g id="Grupo_14023" data-name="Grupo 14023">
      <path id="Trazado_15117" data-name="Trazado 15117" d="M837.413,7949.314h0Z" fill="#d9d4fc"/>
      <rect id="Rectángulo_5504" data-name="Rectángulo 5504" width="94.391" height="1.522" transform="translate(837.414 7948.553)" fill="#beb6fc"/>
    </g>
    <g id="Grupo_14024" data-name="Grupo 14024">
      <path id="Trazado_15118" data-name="Trazado 15118" d="M635.725,7949.314h0Z" fill="#d9d4fc"/>
      <rect id="Rectángulo_5505" data-name="Rectángulo 5505" width="172.654" height="1.522" transform="translate(635.725 7948.553)" fill="#beb6fc"/>
    </g>
    <g id="Grupo_14025" data-name="Grupo 14025">
      <path id="Trazado_15119" data-name="Trazado 15119" d="M505.817,7949.314h0Z" fill="#d9d4fc"/>
      <rect id="Rectángulo_5506" data-name="Rectángulo 5506" width="25.647" height="1.522" transform="translate(505.817 7948.553)" fill="#beb6fc"/>
    </g>
    <g id="Grupo_14026" data-name="Grupo 14026">
      <path id="Trazado_15120" data-name="Trazado 15120" d="M539.044,7949.314h0Z" fill="#d9d4fc"/>
      <rect id="Rectángulo_5507" data-name="Rectángulo 5507" width="7.747" height="1.522" transform="translate(539.044 7948.553)" fill="#beb6fc"/>
    </g>
    <g id="Grupo_14027" data-name="Grupo 14027">
      <path id="Trazado_15121" data-name="Trazado 15121" d="M916.164,7937.9h0Z" fill="#d9d4fc"/>
      <rect id="Rectángulo_5508" data-name="Rectángulo 5508" width="44.116" height="1.522" transform="translate(916.164 7937.134)" fill="#beb6fc"/>
    </g>
    <g id="Grupo_14028" data-name="Grupo 14028">
      <path id="Trazado_15122" data-name="Trazado 15122" d="M588.628,7937.718h0Z" fill="#d9d4fc"/>
      <rect id="Rectángulo_5509" data-name="Rectángulo 5509" width="66.877" height="1.522" transform="translate(588.628 7936.957)" fill="#beb6fc"/>
    </g>
    <g id="Grupo_14029" data-name="Grupo 14029">
      <path id="Trazado_15123" data-name="Trazado 15123" d="M457.321,7937.718h0Z" fill="#d9d4fc"/>
      <rect id="Rectángulo_5510" data-name="Rectángulo 5510" width="116.945" height="1.522" transform="translate(457.321 7936.957)" fill="#beb6fc"/>
    </g>
    <g id="Grupo_14030" data-name="Grupo 14030">
      <path id="Trazado_15124" data-name="Trazado 15124" d="M422.954,7937.718h0Z" fill="#d9d4fc"/>
      <rect id="Rectángulo_5511" data-name="Rectángulo 5511" width="20.434" height="1.522" transform="translate(422.954 7936.957)" fill="#beb6fc"/>
    </g>
    <rect id="Rectángulo_5512" data-name="Rectángulo 5512" width="279.655" height="360.205" transform="translate(580.001 7565.333)" fill="#d9d4fc"/>
    <path id="Trazado_15125" data-name="Trazado 15125" d="M859.656,7790.091v135.448H580v-91.882Z" fill="#beb6fc"/>
    <rect id="Rectángulo_5513" data-name="Rectángulo 5513" width="329.764" height="249.209" transform="translate(844.433 7580.554) rotate(90)" fill="#fff"/>
    <path id="Trazado_15126" data-name="Trazado 15126" d="M795.144,7671.139l-17.7-14.606,4.843-5.869,11.723,9.673L818.6,7629.4l5.958,4.735Z" fill="#e593a6"/>
    <g id="Grupo_14031" data-name="Grupo 14031">
      <path id="Trazado_15127" data-name="Trazado 15127" d="M737.749,7651.953h0Z" fill="#fff"/>
      <rect id="Rectángulo_5514" data-name="Rectángulo 5514" width="23.083" height="1.522" transform="translate(737.748 7651.193)" fill="#3f3577"/>
    </g>
    <g id="Grupo_14032" data-name="Grupo 14032">
      <path id="Trazado_15128" data-name="Trazado 15128" d="M660,7651.953h0Z" fill="#fff"/>
      <rect id="Rectángulo_5515" data-name="Rectángulo 5515" width="69.122" height="1.522" transform="translate(660.002 7651.193)" fill="#3f3577"/>
    </g>
    <g id="Grupo_14033" data-name="Grupo 14033">
      <path id="Trazado_15129" data-name="Trazado 15129" d="M705.8,7663.111h0Z" fill="#fff"/>
      <rect id="Rectángulo_5516" data-name="Rectángulo 5516" width="55.03" height="1.522" transform="translate(705.801 7662.351)" fill="#3f3577"/>
    </g>
    <g id="Grupo_14034" data-name="Grupo 14034">
      <path id="Trazado_15130" data-name="Trazado 15130" d="M699.193,7663.111h0Z" fill="#fff"/>
      <rect id="Rectángulo_5517" data-name="Rectángulo 5517" width="3.184" height="1.522" transform="translate(699.193 7662.351)" fill="#3f3577"/>
    </g>
    <g id="Grupo_14035" data-name="Grupo 14035">
      <path id="Trazado_15131" data-name="Trazado 15131" d="M628.674,7663.111h0Z" fill="#fff"/>
      <rect id="Rectángulo_5518" data-name="Rectángulo 5518" width="62.655" height="1.522" transform="translate(628.674 7662.351)" fill="#3f3577"/>
    </g>
    <g id="Grupo_14036" data-name="Grupo 14036">
      <path id="Trazado_15132" data-name="Trazado 15132" d="M628.674,7674.269h0Z" fill="#fff"/>
      <rect id="Rectángulo_5519" data-name="Rectángulo 5519" width="89.543" height="1.522" transform="translate(628.674 7673.508)" fill="#3f3577"/>
    </g>
    <path id="Trazado_15133" data-name="Trazado 15133" d="M795.144,7729.443l-17.7-14.606,4.843-5.869,11.723,9.673L818.6,7687.7l5.957,4.735Z" fill="#e593a6"/>
    <g id="Grupo_14037" data-name="Grupo 14037">
      <path id="Trazado_15134" data-name="Trazado 15134" d="M660,7710.259h0Z" fill="#fff"/>
      <rect id="Rectángulo_5520" data-name="Rectángulo 5520" width="100.83" height="1.522" transform="translate(660.002 7709.497)" fill="#3f3577"/>
    </g>
    <g id="Grupo_14038" data-name="Grupo 14038">
      <path id="Trazado_15135" data-name="Trazado 15135" d="M628.674,7710.259h0Z" fill="#fff"/>
      <rect id="Rectángulo_5521" data-name="Rectángulo 5521" width="23.464" height="1.522" transform="translate(628.674 7709.497)" fill="#3f3577"/>
    </g>
    <g id="Grupo_14039" data-name="Grupo 14039">
      <path id="Trazado_15136" data-name="Trazado 15136" d="M628.674,7721.416h0Z" fill="#fff"/>
      <rect id="Rectángulo_5522" data-name="Rectángulo 5522" width="122.139" height="1.522" transform="translate(628.674 7720.656)" fill="#3f3577"/>
    </g>
    <g id="Grupo_14040" data-name="Grupo 14040">
      <path id="Trazado_15137" data-name="Trazado 15137" d="M673.078,7732.574h0Z" fill="#fff"/>
      <rect id="Rectángulo_5523" data-name="Rectángulo 5523" width="2.523" height="1.522" transform="translate(673.078 7731.813)" fill="#3f3577"/>
    </g>
    <g id="Grupo_14041" data-name="Grupo 14041">
      <path id="Trazado_15138" data-name="Trazado 15138" d="M628.674,7732.574h0Z" fill="#fff"/>
      <rect id="Rectángulo_5524" data-name="Rectángulo 5524" width="39.71" height="1.522" transform="translate(628.674 7731.813)" fill="#3f3577"/>
    </g>
    <path id="Trazado_15139" data-name="Trazado 15139" d="M795.144,7787.749l-17.7-14.606,4.843-5.87,11.723,9.673L818.6,7746.01l5.957,4.735Z" fill="#e593a6"/>
    <g id="Grupo_14046" data-name="Grupo 14046">
      <g id="Grupo_14042" data-name="Grupo 14042">
        <path id="Trazado_15140" data-name="Trazado 15140" d="M628.674,7768.564h0Z" fill="#fff"/>
        <rect id="Rectángulo_5525" data-name="Rectángulo 5525" width="132.158" height="1.522" transform="translate(628.674 7767.803)" fill="#3f3577"/>
      </g>
      <g id="Grupo_14043" data-name="Grupo 14043">
        <path id="Trazado_15141" data-name="Trazado 15141" d="M719.829,7779.722h0Z" fill="#fff"/>
        <rect id="Rectángulo_5526" data-name="Rectángulo 5526" width="41.003" height="1.522" transform="translate(719.829 7778.961)" fill="#3f3577"/>
      </g>
      <g id="Grupo_14044" data-name="Grupo 14044">
        <path id="Trazado_15142" data-name="Trazado 15142" d="M628.674,7779.722h0Z" fill="#fff"/>
        <rect id="Rectángulo_5527" data-name="Rectángulo 5527" width="81.68" height="1.522" transform="translate(628.674 7778.961)" fill="#3f3577"/>
      </g>
      <g id="Grupo_14045" data-name="Grupo 14045">
        <path id="Trazado_15143" data-name="Trazado 15143" d="M628.674,7790.88h0Z" fill="#fff"/>
        <rect id="Rectángulo_5528" data-name="Rectángulo 5528" width="113.387" height="1.522" transform="translate(628.674 7790.119)" fill="#3f3577"/>
      </g>
    </g>
    <g id="Grupo_14047" data-name="Grupo 14047">
      <path id="Trazado_15144" data-name="Trazado 15144" d="M789.621,7674.269h-4.9v-8.157Z" fill="#fff"/>
      <path id="Trazado_15145" data-name="Trazado 15145" d="M789.622,7675.03h-5.661v-8.919h1.522v7.4h4.139Z" fill="#7060d6"/>
    </g>
    <path id="Trazado_15146" data-name="Trazado 15146" d="M815.922,7675.03H793.259v-1.522H814.4v-23.2h1.522Z" fill="#7060d6"/>
    <g id="Grupo_14048" data-name="Grupo 14048">
      <path id="Trazado_15147" data-name="Trazado 15147" d="M803.178,7643.83h0Z" fill="#fff"/>
      <rect id="Rectángulo_5529" data-name="Rectángulo 5529" width="2.235" height="1.522" transform="translate(803.178 7643.069)" fill="#7060d6"/>
    </g>
    <g id="Grupo_14049" data-name="Grupo 14049">
      <path id="Trazado_15148" data-name="Trazado 15148" d="M784.722,7647.266v-3.436h15.744Z" fill="#fff"/>
      <path id="Trazado_15149" data-name="Trazado 15149" d="M785.483,7647.266h-1.522v-4.2h16.506v1.522H785.483Z" fill="#7060d6"/>
    </g>
    <path id="Trazado_15150" data-name="Trazado 15150" d="M798.278,7733.335H783.961v-4.12h1.522v2.6h12.8Z" fill="#7060d6"/>
    <path id="Trazado_15151" data-name="Trazado 15151" d="M815.922,7733.335H801.1v-1.522h13.3v-17.277h1.522Z" fill="#7060d6"/>
    <rect id="Rectángulo_5530" data-name="Rectángulo 5530" width="1.522" height="2.753" transform="translate(814.4 7708.258)" fill="#7060d6"/>
    <path id="Trazado_15152" data-name="Trazado 15152" d="M785.483,7726.328h-1.522v-24.954h21.928v1.522H785.483Z" fill="#7060d6"/>
    <path id="Trazado_15153" data-name="Trazado 15153" d="M815.922,7791.641H783.961V7776.9h1.522v13.219H814.4v-5.293h1.522Z" fill="#7060d6"/>
    <rect id="Rectángulo_5531" data-name="Rectángulo 5531" width="1.522" height="2.533" transform="translate(814.4 7782.292)" fill="#7060d6"/>
    <rect id="Rectángulo_5532" data-name="Rectángulo 5532" width="1.522" height="9.604" transform="translate(814.4 7769.323)" fill="#7060d6"/>
    <rect id="Rectángulo_5533" data-name="Rectángulo 5533" width="1.522" height="1.899" transform="translate(814.4 7767.424)" fill="#7060d6"/>
    <rect id="Rectángulo_5534" data-name="Rectángulo 5534" width="2.219" height="1.522" transform="translate(801.862 7759.679)" fill="#7060d6"/>
    <path id="Trazado_15154" data-name="Trazado 15154" d="M785.483,7765.77h-1.522v-6.091h15.3v1.522H785.483Z" fill="#7060d6"/>
    <rect id="Rectángulo_5535" data-name="Rectángulo 5535" width="1.522" height="2.088" transform="translate(783.961 7839.048)" fill="#7060d6"/>
    <path id="Trazado_15155" data-name="Trazado 15155" d="M815.922,7849.946H783.961v-5.893h1.522v4.371H814.4v-3.767h1.522Z" fill="#7060d6"/>
    <rect id="Rectángulo_5536" data-name="Rectángulo 5536" width="1.522" height="16.932" transform="translate(814.4 7824.205)" fill="#7060d6"/>
    <path id="Trazado_15156" data-name="Trazado 15156" d="M795.144,7846.054l-17.7-14.606,4.843-5.869,11.723,9.673,24.587-30.937,5.958,4.735Z" fill="#e593a6"/>
    <g id="Grupo_14050" data-name="Grupo 14050">
      <path id="Trazado_15157" data-name="Trazado 15157" d="M628.674,7826.869h0Z" fill="#fff"/>
      <rect id="Rectángulo_5537" data-name="Rectángulo 5537" width="122.139" height="1.522" transform="translate(628.674 7826.108)" fill="#3f3577"/>
    </g>
    <g id="Grupo_14051" data-name="Grupo 14051">
      <path id="Trazado_15158" data-name="Trazado 15158" d="M664.489,7838.027h0Z" fill="#fff"/>
      <rect id="Rectángulo_5538" data-name="Rectángulo 5538" width="96.343" height="1.522" transform="translate(664.489 7837.266)" fill="#3f3577"/>
    </g>
    <g id="Grupo_14052" data-name="Grupo 14052">
      <path id="Trazado_15159" data-name="Trazado 15159" d="M655.309,7838.027h0Z" fill="#fff"/>
      <rect id="Rectángulo_5539" data-name="Rectángulo 5539" width="2.608" height="1.522" transform="translate(655.309 7837.266)" fill="#3f3577"/>
    </g>
    <g id="Grupo_14053" data-name="Grupo 14053">
      <path id="Trazado_15160" data-name="Trazado 15160" d="M628.674,7838.027h0Z" fill="#fff"/>
      <rect id="Rectángulo_5540" data-name="Rectángulo 5540" width="17.757" height="1.522" transform="translate(628.674 7837.266)" fill="#3f3577"/>
    </g>
    <g id="Grupo_14054" data-name="Grupo 14054">
      <path id="Trazado_15161" data-name="Trazado 15161" d="M628.674,7849.185h0Z" fill="#fff"/>
      <rect id="Rectángulo_5541" data-name="Rectángulo 5541" width="46.928" height="1.522" transform="translate(628.674 7848.424)" fill="#3f3577"/>
    </g>
    <rect id="Rectángulo_5542" data-name="Rectángulo 5542" width="249.209" height="1.522" transform="translate(595.224 7909.557)" fill="#3f3577"/>
    <path id="Trazado_15162" data-name="Trazado 15162" d="M651.344,7565.333v38.049H788.321v-38.049H746.269l-10.814-23.324H704.217L693.4,7565.333Z" fill="#beb6fc"/>
    <path id="Trazado_15163" data-name="Trazado 15163" d="M651.344,7565.333v27.738l136.977-21.338v-6.4H746.269l-10.814-23.324H704.217L693.4,7565.333Z" fill="#a094ee"/>
    <rect id="Rectángulo_5543" data-name="Rectángulo 5543" width="672.465" height="1.522" transform="translate(373.692 7925.538)" fill="#beb6fc"/>
    <g id="Grupo_14055" data-name="Grupo 14055">
      <path id="Trazado_15164" data-name="Trazado 15164" d="M896.4,7676.486c-2.238,10.369-5.988,20.354-8.982,30.531-3.082,10.476-6.191,21.133-6.153,32.052a57.193,57.193,0,0,0,15.436,38.64c3.821,4.047,8.282,7.583,11.225,12.307s4.027,11.211.741,15.7c-4.742,6.48-14.885,5.075-21.82,9.123-8.73,5.1-9.943,18.086-4.965,26.884s27.643,33.972,59.985,27.739c14.475-2.79,34.1-16.566,33.537-31.3-.583-15.339-15.231-27.763-14.732-43.106.327-10.051,7.084-18.546,12.933-26.726s11.3-18.146,8.606-27.835c-3.964-14.263-22.333-18.668-31.228-30.5-5.728-7.619-6.989-17.643-7.345-27.169s-.113-19.289-3.29-28.276C932.637,7632.753,905.273,7635.353,896.4,7676.486Z" fill="#beb6fc"/>
      <rect id="Rectángulo_5544" data-name="Rectángulo 5544" width="1.522" height="165.324" transform="translate(929.628 7731.301)" fill="#3f3577"/>
      <path id="Trazado_15165" data-name="Trazado 15165" d="M931.14,7779.07l-1.5-.246c2.461-14.956,19.47-24.258,20.193-24.646l.721,1.34C950.382,7755.61,933.478,7764.86,931.14,7779.07Z" fill="#3f3577"/>
      <path id="Trazado_15166" data-name="Trazado 15166" d="M929.638,7844.175c-1.662-10.1-13.713-16.7-13.835-16.764l.721-1.341c.523.281,12.831,7.012,14.616,17.858Z" fill="#3f3577"/>
      <path id="Rectángulo_5545" data-name="Rectángulo 5545" d="M0,0H54.791a0,0,0,0,1,0,0V9.873A24.747,24.747,0,0,1,30.044,34.62h-5.3A24.747,24.747,0,0,1,0,9.873V0A0,0,0,0,1,0,0Z" transform="translate(902.864 7890.917)" fill="#eec161"/>
      <path id="Trazado_15167" data-name="Trazado 15167" d="M912.591,7924.059a19.556,19.556,0,0,1-10.489-17.353V7900.9h1.522v5.807a18.038,18.038,0,0,0,9.676,16.006Z" fill="#3f3577"/>
      <rect id="Rectángulo_5546" data-name="Rectángulo 5546" width="54.791" height="1.522" transform="translate(902.863 7895.864)" fill="#fff"/>
      <rect id="Rectángulo_5547" data-name="Rectángulo 5547" width="34.902" height="1.522" transform="translate(922.753 7890.156)" fill="#3f3577"/>
      <rect id="Rectángulo_5548" data-name="Rectángulo 5548" width="39.283" height="1.522" transform="translate(930.937 7925.538)" fill="#3f3577"/>
    </g>
    <rect id="Rectángulo_5549" data-name="Rectángulo 5549" width="70.467" height="1.522" transform="translate(429.244 7925.538)" fill="#3f3577"/>
    <rect id="Rectángulo_5550" data-name="Rectángulo 5550" width="7.149" height="1.522" transform="translate(743.663 7925.538)" fill="#3f3577"/>
    <rect id="Rectángulo_5551" data-name="Rectángulo 5551" width="217.887" height="1.522" transform="translate(516.898 7925.538)" fill="#3f3577"/>
    <rect id="Rectángulo_5552" data-name="Rectángulo 5552" width="104.509" height="1.522" transform="translate(775.493 7925.538)" fill="#3f3577"/>
    <rect id="Rectángulo_5553" data-name="Rectángulo 5553" width="5.517" height="1.522" transform="translate(412.693 7925.538)" fill="#3f3577"/>
    <rect id="Rectángulo_5554" data-name="Rectángulo 5554" width="14.839" height="1.522" transform="translate(978.296 7925.538)" fill="#3f3577"/>
    <rect id="Rectángulo_5555" data-name="Rectángulo 5555" width="1.522" height="35.64" transform="translate(858.895 7878.745)" fill="#7060d6"/>
    <rect id="Rectángulo_5556" data-name="Rectángulo 5556" width="1.522" height="147.975" transform="translate(858.895 7714.537)" fill="#7060d6"/>
    <rect id="Rectángulo_5557" data-name="Rectángulo 5557" width="1.522" height="45.531" transform="translate(579.24 7816.091)" fill="#7060d6"/>
    <rect id="Rectángulo_5558" data-name="Rectángulo 5558" width="1.522" height="3.111" transform="translate(579.24 7805.752)" fill="#7060d6"/>
    <rect id="Rectángulo_5559" data-name="Rectángulo 5559" width="1.522" height="36.649" transform="translate(579.24 7765.362)" fill="#7060d6"/>
    <path id="Trazado_15168" data-name="Trazado 15168" d="M789.082,7604.144H716.375v-1.522H787.56v-37.289h1.522Z" fill="#7060d6"/>
    <rect id="Rectángulo_5560" data-name="Rectángulo 5560" width="44.412" height="1.522" transform="translate(663.689 7602.622)" fill="#7060d6"/>
    <path id="Trazado_15169" data-name="Trazado 15169" d="M860.417,7624.174h-1.522v-58.079H836.863v-1.522h23.554Z" fill="#a094ee"/>
    <rect id="Rectángulo_5561" data-name="Rectángulo 5561" width="10.911" height="1.522" transform="translate(819.363 7564.573)" fill="#a094ee"/>
    <circle id="Elipse_449" data-name="Elipse 449" cx="6.5" cy="6.5" r="6.5" transform="translate(712.376 7561.208) rotate(-80.782)" fill="#fff"/>
    <path id="Trazado_15170" data-name="Trazado 15170" d="M726.755,7558.029l-1.451-.459a5.741,5.741,0,0,0-10.623-4.269l-1.365-.674a7.263,7.263,0,0,1,13.439,5.4Z" fill="#7060d6"/>
    <path id="Trazado_15171" data-name="Trazado 15171" d="M719.832,7563.094a7.27,7.27,0,0,1-7.26-7.261l0-.209,1.521.04,0,.169a5.742,5.742,0,0,0,7.494,5.465l.466,1.449A7.248,7.248,0,0,1,719.832,7563.094Z" fill="#7060d6"/>
    <path id="Trazado_15172" data-name="Trazado 15172" d="M785.483,7829.788h-1.522v-11.8h19.01v1.522H785.483Z" fill="#7060d6"/>
    <path id="Trazado_15173" data-name="Trazado 15173" d="M352.6,7752.081a6.849,6.849,0,1,1,6.849-6.849A6.858,6.858,0,0,1,352.6,7752.081Zm0-12.176a5.327,5.327,0,1,0,5.327,5.327A5.334,5.334,0,0,0,352.6,7739.9Z" fill="#beb6fc"/>
    <g id="Grupo_14062" data-name="Grupo 14062">
      <g id="Grupo_14056" data-name="Grupo 14056">
        <rect id="Rectángulo_5562" data-name="Rectángulo 5562" width="1.522" height="6.523" transform="translate(965.387 7567.85)" fill="#beb6fc"/>
        <rect id="Rectángulo_5563" data-name="Rectángulo 5563" width="1.522" height="6.523" transform="translate(965.387 7606.986)" fill="#beb6fc"/>
      </g>
      <g id="Grupo_14057" data-name="Grupo 14057">
        <rect id="Rectángulo_5564" data-name="Rectángulo 5564" width="1.522" height="6.523" transform="translate(954.074 7571.289) rotate(-30)" fill="#beb6fc"/>
        <rect id="Rectángulo_5565" data-name="Rectángulo 5565" width="1.522" height="6.523" transform="matrix(0.866, -0.5, 0.5, 0.866, 973.642, 7605.182)" fill="#beb6fc"/>
      </g>
      <g id="Grupo_14058" data-name="Grupo 14058">
        <rect id="Rectángulo_5566" data-name="Rectángulo 5566" width="1.522" height="6.523" transform="translate(945.996 7579.924) rotate(-59.998)" fill="#beb6fc"/>
        <rect id="Rectángulo_5567" data-name="Rectángulo 5567" width="1.522" height="6.522" transform="translate(979.889 7599.493) rotate(-60.003)" fill="#beb6fc"/>
      </g>
      <g id="Grupo_14059" data-name="Grupo 14059">
        <rect id="Rectángulo_5568" data-name="Rectángulo 5568" width="6.523" height="1.522" transform="translate(943.318 7589.918)" fill="#beb6fc"/>
        <rect id="Rectángulo_5569" data-name="Rectángulo 5569" width="6.523" height="1.522" transform="translate(982.455 7589.918)" fill="#beb6fc"/>
      </g>
      <g id="Grupo_14060" data-name="Grupo 14060">
        <rect id="Rectángulo_5570" data-name="Rectángulo 5570" width="6.523" height="1.522" transform="translate(945.996 7601.435) rotate(-29.995)" fill="#beb6fc"/>
        <rect id="Rectángulo_5571" data-name="Rectángulo 5571" width="6.523" height="1.522" transform="matrix(0.866, -0.5, 0.5, 0.866, 979.889, 7581.867)" fill="#beb6fc"/>
      </g>
      <g id="Grupo_14061" data-name="Grupo 14061">
        <rect id="Rectángulo_5572" data-name="Rectángulo 5572" width="6.523" height="1.522" transform="translate(954.074 7610.071) rotate(-60.005)" fill="#beb6fc"/>
        <rect id="Rectángulo_5573" data-name="Rectángulo 5573" width="6.523" height="1.522" transform="translate(973.642 7576.177) rotate(-60.005)" fill="#beb6fc"/>
      </g>
    </g>
    <path id="Trazado_15174" data-name="Trazado 15174" d="M624.691,7533.385h-1.522a10.665,10.665,0,0,0-10.654-10.654v-1.522a10.665,10.665,0,0,0,10.654-10.654h1.522a10.665,10.665,0,0,0,10.654,10.654v1.522A10.665,10.665,0,0,0,624.691,7533.385Zm-7.937-11.415a12.24,12.24,0,0,1,7.176,7.176,7.176,7.176,0,1,0,0-14.352A12.242,12.242,0,0,1,616.754,7521.97Z" fill="#beb6fc"/>
    <rect id="Rectángulo_5574" data-name="Rectángulo 5574" width="1.522" height="39.397" transform="translate(650.583 7565.333)" fill="#fff"/>
    <g id="Grupo_14066" data-name="Grupo 14066">
      <path id="Trazado_15175" data-name="Trazado 15175" d="M552.143,7630.208l8.388-1.442,10.57,44.027-14.144,2.433Z" fill="#ffc7bd"/>
      <g id="Grupo_14063" data-name="Grupo 14063">
        <rect id="Rectángulo_5575" data-name="Rectángulo 5575" width="208" height="11.394" transform="matrix(0.969, -0.247, 0.247, 0.969, 415.151, 7687.831)" fill="#e79b4d"/>
        <rect id="Rectángulo_5576" data-name="Rectángulo 5576" width="208" height="11.394" transform="translate(412.342 7676.788) rotate(-14.272)" fill="#eec161"/>
        <rect id="Rectángulo_5577" data-name="Rectángulo 5577" width="208" height="11.394" transform="translate(409.533 7665.746) rotate(-14.272)" fill="#eec161"/>
        <rect id="Rectángulo_5578" data-name="Rectángulo 5578" width="17.092" height="34.183" transform="translate(376.405 7674.172) rotate(-14.272)" fill="#e27f9b"/>
        <rect id="Rectángulo_5579" data-name="Rectángulo 5579" width="17.092" height="34.183" transform="translate(392.969 7669.959) rotate(-14.272)" fill="#ece9fd"/>
        <path id="Trazado_15176" data-name="Trazado 15176" d="M666.894,7617.915l-55.781-3.447,8.427,33.128Z" fill="#ece9fd"/>
        <path id="Trazado_15177" data-name="Trazado 15177" d="M650.143,7628.416l-30.6,19.183-2.805-11.042,32.416-12.045Z" fill="#d9d4fc"/>
        <path id="Trazado_15178" data-name="Trazado 15178" d="M666.9,7617.914l-16.752,10.5-.994-3.905Z" fill="#c96597"/>
        <path id="Trazado_15179" data-name="Trazado 15179" d="M666.9,7617.914l-17.746,6.6-1.988-7.818Z" fill="#e27f9b"/>
        <rect id="Rectángulo_5580" data-name="Rectángulo 5580" width="17.092" height="11.394" transform="matrix(0.969, -0.247, 0.247, 0.969, 398.587, 7692.044)" fill="#d9d4fc"/>
        <rect id="Rectángulo_5581" data-name="Rectángulo 5581" width="17.092" height="11.394" transform="translate(382.023 7696.258) rotate(-14.272)" fill="#c96597"/>
        <rect id="Rectángulo_5582" data-name="Rectángulo 5582" width="162.947" height="1.521" transform="matrix(0.969, -0.247, 0.247, 0.969, 451.844, 7689.341)" fill="#3f3577"/>
        <rect id="Rectángulo_5583" data-name="Rectángulo 5583" width="33.134" height="1.521" transform="matrix(0.969, -0.247, 0.247, 0.969, 410.817, 7699.909)" fill="#7060d6"/>
        <path id="Trazado_15180" data-name="Trazado 15180" d="M384.281,7708.226l-5.853-23.011,1.475-.375,5.478,21.535L408,7700.624l.375,1.474Z" fill="#7060d6"/>
        <path id="Trazado_15181" data-name="Trazado 15181" d="M377.233,7680.514l-1.753-6.891,17.3-4.4.375,1.474-15.827,4.026,1.378,5.417Z" fill="#7060d6"/>
        <rect id="Rectángulo_5584" data-name="Rectángulo 5584" width="1.522" height="29.486" transform="translate(408.795 7665.934) rotate(-14.272)" fill="#fff"/>
        <rect id="Rectángulo_5585" data-name="Rectángulo 5585" width="1.522" height="3.241" transform="translate(397.05 7689.091) rotate(-14.271)" fill="#fff"/>
        <rect id="Rectángulo_5586" data-name="Rectángulo 5586" width="1.522" height="8.789" transform="matrix(0.969, -0.247, 0.247, 0.969, 394.167, 7677.756)" fill="#fff"/>
        <rect id="Rectángulo_5587" data-name="Rectángulo 5587" width="1.522" height="22.792" transform="translate(610.375 7614.655) rotate(-14.277)" fill="#fff"/>
      </g>
      <path id="Trazado_15182" data-name="Trazado 15182" d="M520.427,7626.728l-3.917-12.559Z" fill="none"/>
      <path id="Trazado_15183" data-name="Trazado 15183" d="M469.073,7711.162c2.385-3.222,4.768-6.367,4.856-11.093.216-11.646-4.968-12.191-4.285-23.829s9.313-11.018,10-22.655a14.438,14.438,0,0,0-.288-4.007,29.484,29.484,0,0,1-2.209-4.872c-.107-.3-.205-.6-.294-.9a29.97,29.97,0,1,1,56.855,1.056c-.1.292-.209.575-.319.866l-.008.009a29.872,29.872,0,0,1-2.4,4.812,14.677,14.677,0,0,0-.428,3.977c.25,11.654,8.889,11.356,9.14,23.011s-4.951,12.007-5.167,23.653c-.088,4.726,2.177,7.957,4.449,11.266,2.255,3.317,4.517,6.712,4.423,11.74a26.116,26.116,0,0,1-26.6,25.632l-26.955-.5a26.109,26.109,0,0,1-25.623-26.6C464.311,7717.7,466.7,7714.393,469.073,7711.162Z" fill="#3f3577"/>
      <circle id="Elipse_450" data-name="Elipse 450" cx="17.694" cy="17.694" r="17.694" transform="translate(490.982 7737.704) rotate(-48.824)" fill="#ffc7bd"/>
      <circle id="Elipse_451" data-name="Elipse 451" cx="9.893" cy="9.893" r="9.893" transform="matrix(0.658, -0.753, 0.753, 0.658, 508.624, 7680.603)" fill="#e593a6"/>
      <path id="Trazado_15184" data-name="Trazado 15184" d="M562.431,7667.481a7.189,7.189,0,1,1-5.312,8.668A7.189,7.189,0,0,1,562.431,7667.481Z" fill="#ffc7bd"/>
      <path id="Trazado_15185" data-name="Trazado 15185" d="M522,7669.79l41.686-2.5,1.772,14.238-41.019,7.852Z" fill="#ffc7bd"/>
      <circle id="Elipse_452" data-name="Elipse 452" cx="4.946" cy="4.946" r="4.946" transform="translate(460.572 7913.742)" fill="#e593a6"/>
      <circle id="Elipse_453" data-name="Elipse 453" cx="4.946" cy="4.946" r="4.946" transform="translate(516.898 7913.742)" fill="#8b77e8"/>
      <path id="Trazado_15186" data-name="Trazado 15186" d="M532.468,7679.467l1.136,55.388-35.309,2.36L479.828,7680.2a6.088,6.088,0,0,1,5.385-7.95l36.7-2.454A9.894,9.894,0,0,1,532.468,7679.467Z" fill="#ffc7bd"/>
      <circle id="Elipse_454" data-name="Elipse 454" cx="9.893" cy="9.893" r="9.893" transform="translate(510.756 7672.19) rotate(-12.696)" fill="#ffc7bd"/>
      <path id="Trazado_15187" data-name="Trazado 15187" d="M533.643,7736.046H498.256l-1.907,1.482a26.351,26.351,0,0,0-10.183,20.808v7.611A10.654,10.654,0,0,0,496.82,7776.6h30.733a10.654,10.654,0,0,0,10.653-10.655v-10.422A43.864,43.864,0,0,0,533.643,7736.046Z" fill="#8b77e8"/>
      <path id="Trazado_15188" data-name="Trazado 15188" d="M541.148,7698.044a9.853,9.853,0,0,0-.879-3.445l.01,0-8.7-19.034-18,8.219,8.694,19.035.011,0a9.887,9.887,0,0,0,18.862-4.765Z" fill="#ffc7bd"/>
      <rect id="Rectángulo_5588" data-name="Rectángulo 5588" width="1.522" height="3.127" transform="translate(532.911 7680.297) rotate(-24.552)" fill="#ff95a9"/>
      <path id="Trazado_15189" data-name="Trazado 15189" d="M531.258,7709.359a10.479,10.479,0,0,1-4.184-.866l.6-1.4a9.014,9.014,0,0,0,4.209.721,9.111,9.111,0,0,0,7.69-12.9l-.323-.708.01,0-3.819-8.361,1.384-.632,4.467,9.778-.036.015a10.538,10.538,0,0,1,.648,2.991,10.667,10.667,0,0,1-9.919,11.342Q531.62,7709.359,531.258,7709.359Z" fill="#ff95a9"/>
      <path id="Trazado_15190" data-name="Trazado 15190" d="M477.964,7687.61a9.892,9.892,0,1,0,2.711-13.725A9.892,9.892,0,0,0,477.964,7687.61Z" fill="#ffc7bd"/>
      <path id="Trazado_15191" data-name="Trazado 15191" d="M479.651,7674.671l-31.4,27.527,8.748,11.372,34.694-23.249Z" fill="#ffc7bd"/>
      <circle id="Elipse_455" data-name="Elipse 455" cx="10.654" cy="10.654" r="10.654" transform="translate(516.898 7755.291)" fill="#8b77e8"/>
      <circle id="Elipse_456" data-name="Elipse 456" cx="10.654" cy="10.654" r="10.654" transform="translate(486.166 7755.291)" fill="#8b77e8"/>
      <circle id="Elipse_457" data-name="Elipse 457" cx="8.607" cy="8.607" r="8.607" transform="translate(516.898 7812.426)" fill="#8b77e8"/>
      <g id="Grupo_14064" data-name="Grupo 14064">
        <path id="Trazado_15192" data-name="Trazado 15192" d="M516.9,7765.944v55.088l17.189.648,4.089-54.935Z" fill="#e593a6"/>
      </g>
      <g id="Grupo_14065" data-name="Grupo 14065">
        <rect id="Rectángulo_5589" data-name="Rectángulo 5589" width="16.742" height="20.615" transform="translate(517.544 7669.532) rotate(172.349)" fill="#e593a6"/>
        <path id="Trazado_15193" data-name="Trazado 15193" d="M500.951,7671.761a8.371,8.371,0,1,0,7.182-9.411A8.371,8.371,0,0,0,500.951,7671.761Z" fill="#e593a6"/>
      </g>
      <path id="Trazado_15194" data-name="Trazado 15194" d="M496.477,7644.324l3.771-.507-1.013-7.542-3.771.507a3.8,3.8,0,0,0-3.264,4.277h0A3.8,3.8,0,0,0,496.477,7644.324Z" fill="#e593a6"/>
      <path id="Trazado_15195" data-name="Trazado 15195" d="M522.636,7618.534l-28.344,3.807,4.915,36.588,17.6-2.364a12.333,12.333,0,0,0,10.457-14.617Z" fill="#e593a6"/>
      <path id="Trazado_15196" data-name="Trazado 15196" d="M496.218,7636.68l-.754.1L492.538,7615l22.45-3.016a10.831,10.831,0,0,1,12.177,9.293l.058.427-.755.1a29.783,29.783,0,0,0-16.991,8.357h0a23.24,23.24,0,0,1-13.259,6.521Z" fill="#3f3577"/>
      <path id="Trazado_15197" data-name="Trazado 15197" d="M521.262,7687.487l-1.174-17.565-26.781,1.791Z" fill="#e593a6"/>
      <path id="Trazado_15198" data-name="Trazado 15198" d="M534.087,7821.687l-7.31,97.378-9.879-.376v-97.656Z" fill="#e593a6"/>
      <path id="Trazado_15199" data-name="Trazado 15199" d="M490.389,7747.773a3.8,3.8,0,1,1-3.937-3.668A3.8,3.8,0,0,1,490.389,7747.773Z" fill="#e593a6"/>
      <path id="Trazado_15200" data-name="Trazado 15200" d="M495.954,7754.429a5.318,5.318,0,0,1-1.737-.23v0l-8.737-2.654.971-7.445,9.127-.323a5.327,5.327,0,1,1,.376,10.647Z" fill="#e593a6"/>
      <path id="Trazado_15201" data-name="Trazado 15201" d="M457.23,7713.406a7.188,7.188,0,1,0-10.044-1.571A7.189,7.189,0,0,0,457.23,7713.406Z" fill="#ffc7bd"/>
      <path id="Trazado_15202" data-name="Trazado 15202" d="M447.785,7712.554l36.045,37.977,5.831-4.866-30.859-42.3Z" fill="#e593a6"/>
      <path id="Trazado_15203" data-name="Trazado 15203" d="M478.952,7745.394l6.534-5.454-26.684-36.58-11.019,9.2Z" fill="#ffc7bd"/>
      <path id="Trazado_15204" data-name="Trazado 15204" d="M486.312,7764.176,460.64,7917.868l9.685,1.995,36.847-151.39Z" fill="#e593a6"/>
      <path id="Trazado_15205" data-name="Trazado 15205" d="M460.572,7918.689h9.893v6.848H456.6a2.121,2.121,0,0,1-2.121-2.12h0a2.12,2.12,0,0,1,1.064-1.839Z" fill="#3f3577"/>
      <path id="Trazado_15206" data-name="Trazado 15206" d="M521.778,7645.12a4.186,4.186,0,1,1-8.272,1.287Z" fill="#fff"/>
      <rect id="Rectángulo_5590" data-name="Rectángulo 5590" width="4.458" height="1.522" transform="matrix(0.165, -0.986, 0.986, 0.165, 460.577, 7913.617)" fill="#624ac9"/>
      <rect id="Rectángulo_5591" data-name="Rectángulo 5591" width="1.522" height="4.921" transform="translate(516.137 7798.78)" fill="#624ac9"/>
      <rect id="Rectángulo_5592" data-name="Rectángulo 5592" width="3.258" height="1.522" transform="translate(466.21 7706.479) rotate(-33.815)" fill="#ff95a9"/>
      <rect id="Rectángulo_5593" data-name="Rectángulo 5593" width="20.45" height="1.522" transform="translate(471.422 7702.984) rotate(-33.812)" fill="#ff95a9"/>
      <rect id="Rectángulo_5594" data-name="Rectángulo 5594" width="30.001" height="1.522" transform="translate(528.769 7668.624) rotate(-3.432)" fill="#ff95a9"/>
      <rect id="Rectángulo_5595" data-name="Rectángulo 5595" width="30.753" height="1.521" transform="matrix(0.969, -0.247, 0.247, 0.969, 537.225, 7632.481)" fill="#7060d6"/>
      <path id="Trazado_15207" data-name="Trazado 15207" d="M550.285,7628.338a3.8,3.8,0,1,1,5.116,1.668A3.8,3.8,0,0,1,550.285,7628.338Z" fill="#e593a6"/>
      <path id="Trazado_15208" data-name="Trazado 15208" d="M542.434,7624.644a5.324,5.324,0,0,1,1.672-.522v0l9.042-1.272,2.254,7.161-8.142,4.137a5.327,5.327,0,1,1-4.825-9.5Z" fill="#e593a6"/>
      <path id="Trazado_15209" data-name="Trazado 15209" d="M477.679,7815.859h56.842l3.656-49.112-51.865-2.57Z" fill="#8b77e8"/>
      <rect id="Rectángulo_5596" data-name="Rectángulo 5596" width="139.142" height="1.522" transform="translate(461.742 7906.523) rotate(-80.5)" fill="#624ac9"/>
      <rect id="Rectángulo_5597" data-name="Rectángulo 5597" width="1.522" height="89.342" transform="translate(516.137 7824.4)" fill="#624ac9"/>
      <path id="Trazado_15210" data-name="Trazado 15210" d="M526.79,7918.689H516.9v6.848h13.86a2.121,2.121,0,0,0,2.121-2.12h0a2.12,2.12,0,0,0-1.064-1.839Z" fill="#3f3577"/>
    </g>
  </g>
</svg>
