<svg xmlns="http://www.w3.org/2000/svg" width="546.144" height="396.024" viewBox="0 0 546.144 396.024">
  <g id="Grupo_15206" data-name="Grupo 15206" transform="translate(-719.813 -6027.01)">
    <path id="Trazado_17266" data-name="Trazado 17266" d="M1177.281,6333.928h0l60.75-47.371c-2.523,38.821-29.687,55.722-59.379,56.907q-2.235-3.537-4.732-6.92l3.357-2.616Z" fill="#40327a"/>
    <path id="Trazado_17267" data-name="Trazado 17267" d="M1156.744,6322.542h0l23.207-92.218,42.622,29.924-58.312,59.014h0l-5.333,5.4c-.728-.707-1.434-1.431-2.184-2.121Z" fill="#40327a"/>
    <path id="Trazado_17268" data-name="Trazado 17268" d="M1186.19,6177.078c-.525-.478-1.066-.935-1.646-1.371a22.686,22.686,0,0,0-13.223-4.533c-.152,0-.3-.025-.453-.025H1140.94v-52.872l1.4.278a8.77,8.77,0,0,0,10.311-6.891h0a8.771,8.771,0,0,0-6.891-10.31l-1.723-.342h0a53.528,53.528,0,0,1-29.551-16.916,68.651,68.651,0,0,0-30.9-19.89l-11.728,44.437a28.421,28.421,0,0,0,21.941,35.129l8.554,1.7v25.675H1092.05c-.161,0-.317.021-.478.025-.47.008-.94.03-1.41.072-.161.013-.326.008-.486.025-.144.017-.288.051-.432.068h0c-.415.051-.834.114-1.249.191-.207.038-.419.063-.622.1-.161.03-.313.081-.47.119-.339.08-.677.165-1.02.262-.241.068-.491.127-.736.2-.174.055-.339.127-.513.187-.279.1-.554.2-.829.3s-.529.195-.787.309c-.187.081-.36.174-.542.259-.14.067-.284.114-.419.182-.114.055-.22.122-.335.182-.245.127-.491.245-.732.376-.169.1-.33.2-.495.3-.271.161-.542.321-.8.491-.072.046-.144.084-.216.131l0-.008-28.062,18.517c-.038-.394-.081-.77-.114-1.177-2.07-25.268,16.909-26.584,14.615-51.836-.525-5.743-6.294-14.886-8.084-18.378l-.022-.017c-.3-.606-.6-1.195-.884-1.8a65.19,65.19,0,1,1,122.769-15.041c-.127.66-.271,1.34-.436,2-.9,3.8-4.372,13.526-3.412,19.769,3.865,25.058,22.623,21.748,26.712,46.771a53.968,53.968,0,0,1,.25,18.369l-16.6-15.042,0,.008Z" fill="#40327a"/>
    <path id="Trazado_17269" data-name="Trazado 17269" d="M1075.188,6322.542h0a100.237,100.237,0,0,0-4.707,11.157c-8.046-6.488-13.015-16.071-13.015-29.073,0-10.937,5.9-18.928,8.9-30.182.284-1.063.635-2.315,1-3.657a26.228,26.228,0,0,0,5.515,1.938l2.3,49.817Z" fill="#40327a"/>
    <path id="Trazado_17270" data-name="Trazado 17270" d="M1069.436,6267.892c-.165-.072-.322-.153-.483-.233.161.08.318.161.483.233Z" fill="#40327a"/>
    <path id="Trazado_17271" data-name="Trazado 17271" d="M1071.37,6268.658c-.2-.072-.406-.144-.6-.22.2.076.4.148.6.22Z" fill="#40327a"/>
    <path id="Trazado_17272" data-name="Trazado 17272" d="M1072.716,6269.077h0c-.021,0-.038-.013-.055-.017a.28.28,0,0,1,.055.017Z" fill="#40327a"/>
    <path id="Trazado_17273" data-name="Trazado 17273" d="M1156.744,6322.542Z" fill="#f04f4f"/>
    <path id="Trazado_17274" data-name="Trazado 17274" d="M1081.49,6173.769c-.169.088-.343.16-.5.249.241-.131.487-.249.732-.376-.076.038-.152.084-.228.127Z" fill="#ff95a9"/>
    <path id="Trazado_17275" data-name="Trazado 17275" d="M1079.479,6174.954l-.008-.013c.072-.047.144-.085.216-.131-.072.046-.14.1-.208.144Z" fill="#ff95a9"/>
    <path id="Trazado_17276" data-name="Trazado 17276" d="M1087.864,6171.555c-.165.03-.334.046-.495.08.2-.042.415-.067.622-.1l-.127.025Z" fill="#ff95a9"/>
    <path id="Trazado_17277" data-name="Trazado 17277" d="M1083.615,6172.791c-.2.08-.407.144-.6.228.258-.114.524-.207.787-.309-.064.026-.123.055-.186.081Z" fill="#ff95a9"/>
    <path id="Trazado_17278" data-name="Trazado 17278" d="M1090.095,6171.25c-.14.013-.28.009-.419.021.16-.017.325-.012.486-.025-.025,0-.046,0-.067,0Z" fill="#ff95a9"/>
    <path id="Trazado_17279" data-name="Trazado 17279" d="M1089.24,6171.339Z" fill="#ff95a9"/>
    <path id="Trazado_17280" data-name="Trazado 17280" d="M1085.718,6172.067c-.19.055-.385.093-.575.152.245-.076.495-.135.736-.2l-.161.051Z" fill="#ff95a9"/>
    <path id="Trazado_17281" data-name="Trazado 17281" d="M1092.054,6171.149c-.152,0-.3.021-.453.025h-.029c.161,0,.317-.025.478-.025Z" fill="#ff95a9"/>
    <path id="Trazado_17282" data-name="Trazado 17282" d="M1024.4,6237.925h0l-32.6,5.532h0l32.6-5.532Z" fill="#ff95a9"/>
    <path id="Trazado_17283" data-name="Trazado 17283" d="M1192.958,6395.935c-.085-.923-.182-1.837-.288-2.752-.08-.694-.173-1.388-.271-2.078a114.219,114.219,0,0,0-14.847-42.753c-.077-.127-.153-.249-.225-.376q-2.85-4.775-6.162-9.278l2.759-2.154q2.5,3.384,4.732,6.92a118.48,118.48,0,0,1,18.323,62.989h-3.505c0-1.787-.055-3.569-.139-5.346-.034-.7-.089-1.4-.136-2.095-.067-1.029-.144-2.053-.241-3.077Z" fill="#fff"/>
    <path id="Trazado_17284" data-name="Trazado 17284" d="M1111.257,6322.542h45.487c.75.69,1.456,1.414,2.184,2.121l-3.737,3.784-17.607.838a12.277,12.277,0,1,0,5.113,23.664v.013l19.562-7.763-.008-.042a8.639,8.639,0,0,0,2.146-1.2l.008.013,6.76-5.27q3.313,4.495,6.162,9.278c.072.127.148.249.225.376A114.219,114.219,0,0,1,1192.4,6391.1c.093.69.191,1.384.271,2.078.106.915.2,1.829.288,2.752q.146,1.536.241,3.077c.047.7.1,1.4.136,2.095.08,1.777.139,3.559.139,5.346V6416H1089.227a24.552,24.552,0,0,1-24.553-24.553v-24.019a101.713,101.713,0,0,1,10.518-44.891Z" fill="#7760db"/>
    <path id="Trazado_17285" data-name="Trazado 17285" d="M1171.165,6338.7l-6.76,5.27-.008-.013a8.639,8.639,0,0,1-2.146,1.2l.008.042-19.562,7.763v-.013a12.273,12.273,0,1,1-5.113-23.664l17.607-.838,3.737-3.784,5.333-5.4,13.02,14.666-3.357,2.616-2.759,2.154Z" fill="#ff95a9"/>
    <path id="Trazado_17286" data-name="Trazado 17286" d="M1000.416,6136.374l18.538,78.484,32.451-21.408,28.062-18.517,0,.008.008.013c.068-.047.136-.1.208-.144.262-.17.533-.33.8-.491.165-.1.326-.2.495-.3s.335-.161.5-.249c.076-.043.152-.089.228-.127.115-.06.221-.127.335-.182.135-.068.279-.115.419-.182.182-.085.355-.178.542-.259s.4-.148.6-.228c.063-.026.122-.055.186-.081.275-.1.55-.207.829-.3.174-.06.339-.132.513-.187.19-.059.385-.1.575-.152l.161-.051c.343-.1.681-.182,1.02-.262.157-.038.309-.089.47-.119s.33-.05.495-.08l.127-.025c.415-.077.834-.14,1.249-.191h0c.144-.017.288-.051.432-.068s.279-.008.419-.021c.021,0,.042,0,.067,0,.47-.042.94-.064,1.41-.072h.029c.153,0,.3-.025.453-.025h4.554v40.573l61.859-40.573h12.4c.149,0,.3.021.453.025a22.686,22.686,0,0,1,13.223,4.533c.58.436,1.121.893,1.646,1.371l0-.008,16.6,15.042,57.706,52.285-.013.017c.183.165.369.313.542.487a16.563,16.563,0,0,1,.14,23.427,16.03,16.03,0,0,1-1.621,1.422l.017.017-21.535,16.79-60.75,47.371h0l-13.02-14.666h0l58.312-59.014.246.173,2.014-2.874-49.372-34.66-2.015,2.87,6.505,4.567-23.207,92.218h-81.556l-2.3-49.817a25.946,25.946,0,0,0,4.982.661v.042h14.183v-3.505H1078.8v0c-.051,0-.1,0-.157,0-.656,0-1.312-.038-1.964-.1-.338-.029-.664-.084-1-.131-.352-.046-.7-.093-1.05-.161-.406-.072-.8-.165-1.2-.262-.237-.059-.474-.114-.711-.182h0a.28.28,0,0,0-.055-.017c-.436-.123-.868-.254-1.291-.4-.2-.072-.406-.144-.6-.22-.449-.17-.9-.347-1.329-.546-.165-.072-.322-.153-.483-.233-.457-.22-.914-.444-1.354-.69-.106-.063-.212-.131-.318-.2a22.724,22.724,0,0,1-7.932-31.5l-43.806,21.374-.009-.013a16.527,16.527,0,0,1-23.736-13.176l32.6-5.532h0l-32.6,5.532h0l-10.717-103.8h0l19.33-3.284Z" fill="#ffd259"/>
    <path id="Trazado_17287" data-name="Trazado 17287" d="M1094.221,6125.515a9.648,9.648,0,0,1-7.584-11.339l18.923,3.755a9.643,9.643,0,0,1-11.339,7.584Zm8.135,19.959v25.675h-5.748v40.573l61.859-40.573H1140.94v-52.872l1.4.278a8.77,8.77,0,0,0,10.311-6.891h0a8.771,8.771,0,0,0-6.891-10.31l-1.723-.342h0a53.528,53.528,0,0,1-29.551-16.916,68.651,68.651,0,0,0-30.9-19.89l-11.728,44.437a28.421,28.421,0,0,0,21.941,35.129l8.554,1.7Z" fill="#ff95a9"/>
    <path id="Trazado_17288" data-name="Trazado 17288" d="M1105.56,6117.931a9.646,9.646,0,1,1-18.923-3.755l18.923,3.755Z" fill="#fff"/>
    <path id="Trazado_17289" data-name="Trazado 17289" d="M971.122,6111.939a14.8,14.8,0,0,1,12.325-23h3.877v-21.08a4.385,4.385,0,0,1,8.77,0V6118.1l3.615,15.3h0l.7,2.971-19.33,3.284-1.557-15.088-8.4-12.631Z" fill="#ff95a9"/>
    <path id="Trazado_17290" data-name="Trazado 17290" d="M1067.6,6266.969c.44.246.9.47,1.354.69.161.08.318.161.483.233.431.2.88.376,1.329.546.2.076.4.148.6.22.423.148.855.279,1.291.4.017,0,.034.013.055.017.237.068.474.123.711.182.4.1.8.19,1.2.262.347.068.7.115,1.05.161.334.047.66.1,1,.131.652.064,1.308.1,1.964.1.055,0,.106,0,.157,0v0h13.252v3.505h-14.183v-.042a25.946,25.946,0,0,1-4.982-.661,26.5,26.5,0,0,1-10.81-5.311l2.226-2.7a22.655,22.655,0,0,0,2.98,2.057c.106.064.212.132.318.2Z" fill="#fff"/>
    <path id="Trazado_17291" data-name="Trazado 17291" d="M1173.446,6225.757l2.015-2.87,49.373,34.66-2.015,2.874-.245-.173-42.622-29.924-6.505-4.567Z" fill="#fff"/>
    <path id="Trazado_17292" data-name="Trazado 17292" d="M981.636,6396.35h139.416v9.138H981.636v-9.138Z" fill="#40327a"/>
    <path id="Trazado_17293" data-name="Trazado 17293" d="M797.778,6267.663l21.992,106.724.161.788,6.239,30.322h194.824L992.6,6267.663Z" fill="#fff"/>
    <path id="Trazado_17294" data-name="Trazado 17294" d="M790.922,6267.663l21.992,106.724.161.788,6.239,30.322h193.169l-28.392-137.833Z" fill="#b3a4f5"/>
    <path id="Trazado_17295" data-name="Trazado 17295" d="M836.625,6405.5h175.858l-199.569-31.109.161.788,6.239,30.322h17.311Z" fill="#ddd6ff"/>
    <path id="Trazado_17296" data-name="Trazado 17296" d="M887.618,6336.569c1.6,7.779,9.206,14.086,16.985,14.086s12.787-6.307,11.187-14.086-9.21-14.086-16.989-14.086-12.787,6.307-11.183,14.086Z" fill="#fff"/>
    <path id="Trazado_17297" data-name="Trazado 17297" d="M897.215,6405.5h368.742v17.54H737.31V6405.5H897.215Z" fill="#b3a4f5"/>
    <path id="Trazado_17298" data-name="Trazado 17298" d="M774.234,6273.7h0Z" fill="#b3a4f5"/>
    <path id="Trazado_17299" data-name="Trazado 17299" d="M919.215,6285.129h0Z" fill="#f8f7ff"/>
    <path id="Trazado_17300" data-name="Trazado 17300" d="M919.215,6286.271h205.244v-2.287H919.215v2.287Z" fill="#40327a"/>
    <path id="Trazado_17301" data-name="Trazado 17301" d="M719.813,6285.129h0Z" fill="#f8f7ff"/>
    <path id="Trazado_17302" data-name="Trazado 17302" d="M743.212,6286.271h139.4v-2.287h-139.4v2.287Z" fill="#40327a"/>
    <path id="Trazado_17303" data-name="Trazado 17303" d="M985.8,6303.57h137.1v-2.858H985.8v2.858Z" fill="#f2f0ff"/>
    <path id="Trazado_17304" data-name="Trazado 17304" d="M911.706,6303.57h58.815v-2.858H911.706v2.858Z" fill="#f2f0ff"/>
    <path id="Trazado_17305" data-name="Trazado 17305" d="M751.835,6303.57H966.6v-2.858H751.835v2.858Z" fill="#f2f0ff"/>
    <path id="Trazado_17306" data-name="Trazado 17306" d="M807.958,6359.019l3.433-.707-18.319-88.9H984.091v-3.5H788.767l19.19,93.107Z" fill="#8b77e8"/>
  </g>
</svg>
