<svg xmlns="http://www.w3.org/2000/svg" width="407.113" height="414.798" viewBox="0 0 407.113 414.798">
  <g id="Grupo_15958" data-name="Grupo 15958" transform="translate(-812.758 -1153.574)">
    <rect id="Rectángulo_6001" data-name="Rectángulo 6001" width="407.113" height="395.234" rx="10" transform="translate(812.758 1153.574)" fill="#dff4ff"/>
    <g id="Grupo_14778" data-name="Grupo 14778">
      <path id="Trazado_16005" data-name="Trazado 16005" d="M966.051,1454.4c.015.22.039.437.068.653l8.495,113.316h14.013v-187.21l-27.962,1.054,5.374,72.188Z" fill="#ff95a9"/>
      <path id="Trazado_16006" data-name="Trazado 16006" d="M1039.747,1568.372l-10.758-188.023-27.855,2.667,24.53,185.356Z" fill="#ff95a9"/>
      <path id="Trazado_16007" data-name="Trazado 16007" d="M911.32,1292.553l8.617-67.075-3.526-10.242h.007a6.988,6.988,0,0,1,9.629-8.589v-11.367a2,2,0,0,1,4,0v20h-.013l.013,9.668h0l.088,68.809Z" fill="#ff95a9"/>
      <path id="Trazado_16008" data-name="Trazado 16008" d="M1063.737,1289.753c-3.805-3.2-7.586-6.307-9.054-11.983-3.616-13.985,2.48-16.137-1.7-29.978s-14.41-10.608-18.587-24.448a17.874,17.874,0,0,1-.806-4.917,36.608,36.608,0,0,0,1.26-6.513c.043-.388.074-.783.1-1.165a37.17,37.17,0,1,0-68.279,17.656c.2.323.419.633.634.954l.013.008a36.932,36.932,0,0,0,4.278,5.114,18.2,18.2,0,0,1,1.663,4.673c3.056,14.131-7.451,16.261-4.395,30.391s9.431,13.058,13.048,27.043c1.467,5.676-.333,10.226-2.12,14.872-1.764,4.651-3.514,9.4-1.953,15.437a32.391,32.391,0,0,0,39.475,23.254l32.37-8.371a32.38,32.38,0,0,0,23.243-39.472C1071.366,1296.27,1067.534,1292.966,1063.737,1289.753Z" fill="#40327a"/>
      <path id="Trazado_16009" data-name="Trazado 16009" d="M911.33,1292.552h-.014l7.584-59.01,11.161.715.057,44.157,42.252-21.367a13,13,0,1,1,11.412,23.2l.026.06-59.818,22.315-.006-.015a9.423,9.423,0,0,1-12.654-10.055Z" fill="#ffc7bd"/>
      <rect id="Rectángulo_6002" data-name="Rectángulo 6002" width="6.246" height="2" transform="matrix(0.127, -0.992, 0.992, 0.127, 916.425, 1244.95)" fill="#ff95a9"/>
      <rect id="Rectángulo_6003" data-name="Rectángulo 6003" width="3.425" height="2" transform="translate(915.649 1250.994) rotate(-82.675)" fill="#ff95a9"/>
      <path id="Trazado_16010" data-name="Trazado 16010" d="M955.511,1292.8a12.9,12.9,0,0,1,1.041-4.555l-.014-.006,10.789-25.293.009,0a13,13,0,0,1,12.5-7.892l48.3,2.005a8,8,0,0,1,7.338,10.266l-22.368,75.506h0a23.251,23.251,0,0,1-46.462-1.929l-.165-34.732A13,13,0,0,1,955.511,1292.8Z" fill="#ffc7bd"/>
      <path id="Trazado_16011" data-name="Trazado 16011" d="M968.505,1307.341a13.975,13.975,0,0,0,2.683-.259l-.384-1.963a11.98,11.98,0,0,1-13.333-16.48l.392-.918-.014-.007,6.9-16.177-1.839-.785-7.685,18.015.045.018a13.831,13.831,0,0,0-.76,3.975,14.015,14.015,0,0,0,13.407,14.568C968.114,1307.336,968.309,1307.341,968.505,1307.341Z" fill="#ff95a9"/>
      <path id="Trazado_16012" data-name="Trazado 16012" d="M974.485,1305.995a13.948,13.948,0,0,0,4.31-3.185l-1.473-1.352a11.985,11.985,0,0,1-3.7,2.731Z" fill="#ff95a9"/>
      <path id="Trazado_16013" data-name="Trazado 16013" d="M972.777,1218.782l7.923-30.346,36.878,7.232-3.658,18.656.981.192a5,5,0,0,1-1.924,9.813l-.981-.192-4.446,32.073,9.933.412-36.2,21.651.959-23.114,3.278.136c.015-.35.044-.7.093-1.055l2.079-15-2.352-.462A16.207,16.207,0,0,1,972.777,1218.782Z" fill="#ff95a9"/>
      <path id="Trazado_16014" data-name="Trazado 16014" d="M1013.92,1214.324l.981.192,5.558-28.344-29.211-5.728a14.233,14.233,0,0,0-16.706,11.228l-.109.556.982.192a39.133,39.133,0,0,1,21.628,12.3h0a30.529,30.529,0,0,0,16.877,9.6Z" fill="#40327a"/>
      <path id="Trazado_16015" data-name="Trazado 16015" d="M966.039,1454.4h67.187l-4.211-73.366-68.349,1.178Z" fill="#8b77e8"/>
      <path id="Trazado_16016" data-name="Trazado 16016" d="M966.622,1341.873h46.5l2.507,1.947a34.629,34.629,0,0,1,13.381,27.344v10a14,14,0,0,1-14,14H974.626a14,14,0,0,1-14-14v-13.695A57.642,57.642,0,0,1,966.622,1341.873Z" fill="#8b77e8"/>
      <path id="Trazado_16017" data-name="Trazado 16017" d="M1022.148,1356.326l9.474-1.6,32.492-57.929,15.808,10.274-41.1,55.178-.009-.005a4.966,4.966,0,0,1-1.616,1.386l.007.021-10.543,5.73,0-.006a7,7,0,1,1-4.509-13.047Z" fill="#ff95a9"/>
      <path id="Trazado_16018" data-name="Trazado 16018" d="M1016.055,1263.324a12.914,12.914,0,0,1,19.231-3.442l.008-.011,42.949,34.159-.006.009a9.357,9.357,0,0,1,1.677,13.025l.012.007-35.543,47.711-9.377-6.095,24.628-43.909-39.158-23.609A13,13,0,0,1,1016.055,1263.324Z" fill="#ffc7bd"/>
      <path id="Trazado_16019" data-name="Trazado 16019" d="M1077.433,1312.092l3.912-5.252-.046-.031c.057-.095.112-.189.165-.283a10.387,10.387,0,0,0-1.915-12.67l.021-.034-.7-.575-13.591-10.809-1.245,1.564,13.585,10.819a8.371,8.371,0,0,1,1.5,11.645l-.618.828.011.009-2.677,3.594Z" fill="#ff95a9"/>
      <rect id="Rectángulo_6004" data-name="Rectángulo 6004" width="1.999" height="4.799" transform="translate(1057.231 1278.594) rotate(-51.49)" fill="#ff95a9"/>
      <rect id="Rectángulo_6005" data-name="Rectángulo 6005" width="2" height="20.862" transform="matrix(0.998, -0.059, 0.059, 0.998, 1028.786, 1395.265)" fill="#624ac9"/>
      <path id="Trazado_16020" data-name="Trazado 16020" d="M1040.9,1568.372l-8.592-147.231-2,.117,8.585,147.114" fill="#624ac9"/>
      <rect id="Rectángulo_6006" data-name="Rectángulo 6006" width="4.079" height="2" transform="matrix(0.001, -1, 1, 0.001, 987.616, 1472.284)" fill="#624ac9"/>
      <rect id="Rectángulo_6007" data-name="Rectángulo 6007" width="54.939" height="2" transform="matrix(0.001, -1, 1, 0.001, 987.538, 1530.372)" fill="#624ac9"/>
      <rect id="Rectángulo_6008" data-name="Rectángulo 6008" width="7.278" height="2" transform="translate(989.817 1340.881) rotate(-0.061)" fill="#624ac9"/>
      <rect id="Rectángulo_6009" data-name="Rectángulo 6009" width="16.625" height="2" transform="translate(969.163 1340.873)" fill="#624ac9"/>
      <path id="Trazado_16021" data-name="Trazado 16021" d="M988.234,1225.412a15.131,15.131,0,0,0,2.862-.275l-.379-1.963a13.085,13.085,0,0,1-5.745-.175,13.393,13.393,0,0,1-2.512-.918l-.872,1.8a15.389,15.389,0,0,0,2.89,1.055A15.171,15.171,0,0,0,988.234,1225.412Z" fill="#e5659b"/>
    </g>
  </g>
</svg>
