<svg xmlns="http://www.w3.org/2000/svg" width="502.622" height="310.227" viewBox="0 0 502.622 310.227">
  <g id="Grupo_12632" data-name="Grupo 12632" transform="translate(-738.802 -848.391)">
    <g id="Grupo_12617" data-name="Grupo 12617">
      <path id="Trazado_11220" data-name="Trazado 11220" d="M1035.712,1104.262v18.415h36.1a18.442,18.442,0,0,1-2.431-9.208,18.657,18.657,0,1,1,37.315,0,18.443,18.443,0,0,1-2.432,9.208h36.1v-18.415h-10.6a42.489,42.489,0,0,0-5.716-13.789l7.5-7.5-13.022-13.021-7.5,7.5a42.745,42.745,0,0,0-13.778-5.717v-10.6H1078.83v10.6a42.736,42.736,0,0,0-13.778,5.717l-7.5-7.5-13.033,13.021,7.511,7.5a42.491,42.491,0,0,0-5.717,13.789Z" fill="#e9e6ff"/>
    </g>
    <g id="Grupo_12618" data-name="Grupo 12618">
      <path id="Trazado_11221" data-name="Trazado 11221" d="M1068.6,1113.469a19.444,19.444,0,0,1,38.49-3.919l-1.539.315a17.877,17.877,0,1,0-34.909,7.712l-1.529.359A19.56,19.56,0,0,1,1068.6,1113.469Zm70.987-8.421H1129.14l-.136-.618a41.621,41.621,0,0,0-5.611-13.534l-.34-.531,7.391-7.391-11.912-11.912-7.39,7.391-.532-.34a41.956,41.956,0,0,0-9.16-4.393l.5-1.488a43.556,43.556,0,0,1,8.967,4.221l7.612-7.612,14.133,14.133-7.612,7.611a43.164,43.164,0,0,1,5.346,12.892h10.758v14.259h-1.57Z" fill="#ccc2ff"/>
    </g>
    <g id="Grupo_12619" data-name="Grupo 12619">
      <path id="Trazado_11222" data-name="Trazado 11222" d="M822.275,1110.131v12.546h24.6a12.568,12.568,0,0,1-1.657-6.273,12.711,12.711,0,1,1,25.422,0,12.567,12.567,0,0,1-1.656,6.273h24.6v-12.546h-7.222a28.949,28.949,0,0,0-3.9-9.394l5.11-5.11-8.872-8.871-5.109,5.109a29.148,29.148,0,0,0-9.387-3.894v-7.223H851.65v7.223a29.138,29.138,0,0,0-9.387,3.894l-5.109-5.109-8.879,8.871,5.116,5.11a28.924,28.924,0,0,0-3.894,9.394Z" fill="#f2f0ff"/>
    </g>
    <g id="Grupo_12620" data-name="Grupo 12620">
      <path id="Trazado_11223" data-name="Trazado 11223" d="M892.793,1122.683v-11.767h-7.069l-.135-.617a28.124,28.124,0,0,0-3.789-9.14l-.34-.531,5-5-7.761-7.76-5,5-.532-.34a28.312,28.312,0,0,0-9.134-3.79l-.616-.136v-7.068H852.435v7.068l-.615.136a28.313,28.313,0,0,0-9.134,3.79l-.532.34-5-5-7.767,7.76,5.007,5-.34.532a28.113,28.113,0,0,0-3.789,9.14l-.135.617H823.06v11.761h-1.571v-13.331h7.383a29.63,29.63,0,0,1,3.522-8.495l-5.231-5.224,9.991-9.981,5.223,5.222a29.832,29.832,0,0,1,8.488-3.521v-7.384h14.123v7.384a29.856,29.856,0,0,1,8.488,3.521l5.223-5.222,9.982,9.981-5.223,5.223a29.651,29.651,0,0,1,3.523,8.5h7.383v13.337ZM844.43,1116.4a13.5,13.5,0,0,1,26.166-4.662l-1.474.542a11.931,11.931,0,0,0-22.618,7.566l-1.5.453A13.52,13.52,0,0,1,844.43,1116.4Z" fill="#dad5fd"/>
    </g>
    <path id="Trazado_11224" data-name="Trazado 11224" d="M807.217,1067.712l-3.573,2.063,4.435,7.686,3.579-2.066a15.414,15.414,0,0,0,6.18,3.572v4.126h8.873v-4.126a15.434,15.434,0,0,0,6.18-3.572l3.575,2.066,4.439-7.686-3.576-2.063a15.449,15.449,0,0,0,0-7.139l3.576-2.063-4.439-7.685-3.575,2.066a15.489,15.489,0,0,0-6.18-3.576v-4.123h-8.873v4.123a15.469,15.469,0,0,0-6.18,3.576l-3.579-2.066-4.435,7.685,3.573,2.063a15.414,15.414,0,0,0,0,7.139Zm8.3-3.569a6.757,6.757,0,1,1,6.756,6.755A6.758,6.758,0,0,1,815.517,1064.143Z" fill="#f2f0ff"/>
    <path id="Trazado_11225" data-name="Trazado 11225" d="M817.052,1079.541a16.314,16.314,0,0,1-5.5-3.179l-3.762,2.172-5.22-9.046,3.756-2.169a16.168,16.168,0,0,1,0-6.352l-3.756-2.169,5.22-9.046,3.762,2.172a16.347,16.347,0,0,1,5.5-3.182v-4.335H827.5v4.335a16.388,16.388,0,0,1,5.5,3.182l3.759-2.172,5.224,9.046-3.76,2.169a16.168,16.168,0,0,1,0,6.352l3.76,2.169-5.224,9.046-3.759-2.172a16.339,16.339,0,0,1-5.5,3.179v4.338H817.052Zm8.874-1.159.56-.167a14.735,14.735,0,0,0,5.866-3.392l.425-.4,3.4,1.966,3.653-6.325-3.4-1.963.134-.568a14.664,14.664,0,0,0,0-6.778l-.134-.569,3.4-1.962-3.653-6.325-3.4,1.966-.425-.4a14.778,14.778,0,0,0-5.867-3.4l-.559-.168v-3.921h-7.3v3.921l-.56.168a14.765,14.765,0,0,0-5.866,3.4l-.425.4-3.4-1.966-3.65,6.325,3.4,1.962-.134.569a14.662,14.662,0,0,0,0,6.778l.134.568-3.4,1.963,3.65,6.325,3.4-1.966.425.4a14.714,14.714,0,0,0,5.865,3.392l.561.167v3.926h7.3Zm-11.194-14.239a7.543,7.543,0,1,1,7.541,7.54A7.552,7.552,0,0,1,814.732,1064.143Zm1.571,0a5.971,5.971,0,1,0,5.97-5.974A5.977,5.977,0,0,0,816.3,1064.143Z" fill="#dad5fd"/>
    <path id="Trazado_11226" data-name="Trazado 11226" d="M938.673,934.776l1.563-.15c-.093-.974-.205-1.96-.333-2.931l-1.557.206Q938.534,933.331,938.673,934.776Z" fill="#b3a4f5"/>
    <g id="Grupo_12622" data-name="Grupo 12622">
      <path id="Trazado_11227" data-name="Trazado 11227" d="M899.723,1026.812a94.565,94.565,0,0,0,21.515-14.931L905.26,994.567a71.052,71.052,0,0,1-16.156,11.214Z" fill="#dad5fd"/>
      <path id="Trazado_11228" data-name="Trazado 11228" d="M857.372,1036.874a93.376,93.376,0,0,0,38.278-8.126l-9.6-21.517a69.96,69.96,0,0,1-28.68,6.083,70.749,70.749,0,0,1-52.967-23.936l-17.654,15.6A94.323,94.323,0,0,0,857.372,1036.874Z" fill="#f2f0ff"/>
      <path id="Trazado_11229" data-name="Trazado 11229" d="M781.118,997.963,800.172,984.1q-.71-.977-1.387-1.979l-19.519,13.2C779.863,996.205,780.486,997.094,781.118,997.963Z" fill="#f2f0ff"/>
      <path id="Trazado_11230" data-name="Trazado 11230" d="M768.206,973.165l22.284-7.65a70.183,70.183,0,0,1-2.592-9.827l-23.157,4.341A93.9,93.9,0,0,0,768.206,973.165Z" fill="#e9e6ff"/>
      <path id="Trazado_11231" data-name="Trazado 11231" d="M763.573,951.8l23.45-2.277c-.221-2.275-.333-4.594-.333-6.895a70.761,70.761,0,0,1,70.682-70.681,70.049,70.049,0,0,1,27.194,5.441l9.1-21.733A94.242,94.242,0,0,0,763.13,942.632C763.13,945.69,763.279,948.776,763.573,951.8Z" fill="#f2f0ff"/>
      <path id="Trazado_11232" data-name="Trazado 11232" d="M910.081,895.6l17.57-15.7a94.362,94.362,0,0,0-26.987-20.968L889.81,879.846A70.86,70.86,0,0,1,910.081,895.6Z" fill="#f2f0ff"/>
      <path id="Trazado_11233" data-name="Trazado 11233" d="M930.918,1001.505a94.44,94.44,0,0,0,20.695-58.873,93.113,93.113,0,0,0-10.17-42.566l-21.005,10.673a70.554,70.554,0,0,1-7.9,76.026Z" fill="#f2f0ff"/>
      <path id="Trazado_11234" data-name="Trazado 11234" d="M857.372,1025.879v-1.57A81.711,81.711,0,0,1,777.982,923.4l-1.527-.37a83.286,83.286,0,0,0,80.917,102.848Z" fill="#b3a4f5"/>
      <path id="Trazado_11235" data-name="Trazado 11235" d="M780.086,916.192q.311-.9.64-1.794l-1.474-.545q-.336.912-.651,1.83Z" fill="#b3a4f5"/>
      <path id="Trazado_11236" data-name="Trazado 11236" d="M936.074,920.76l1.513-.421A83.232,83.232,0,0,0,788.2,896.354l1.3.876a81.661,81.661,0,0,1,146.567,23.53Z" fill="#b3a4f5"/>
      <path id="Trazado_11237" data-name="Trazado 11237" d="M879.634,1022.857a83.579,83.579,0,0,0,59.805-66.212l-1.549-.264a82,82,0,0,1-58.677,64.962Z" fill="#b3a4f5"/>
      <circle id="Elipse_389" data-name="Elipse 389" cx="65.184" cy="65.184" r="65.184" transform="translate(792.188 877.448)" fill="#f8f7ff"/>
      <rect id="Rectángulo_4519" data-name="Rectángulo 4519" width="14.098" height="27.196" transform="translate(901.147 981.008) rotate(-180)" fill="#ccc2ff"/>
      <rect id="Rectángulo_4520" data-name="Rectángulo 4520" width="14.098" height="53.625" transform="translate(883.962 981.008) rotate(-180)" fill="#ccc2ff"/>
      <rect id="Rectángulo_4521" data-name="Rectángulo 4521" width="14.098" height="8.085" transform="translate(883.962 957.854) rotate(-180)" fill="#ffb0bf"/>
      <rect id="Rectángulo_4522" data-name="Rectángulo 4522" width="14.098" height="4.043" transform="translate(883.962 949.769) rotate(-180)" fill="#ffd4cc"/>
      <rect id="Rectángulo_4523" data-name="Rectángulo 4523" width="14.098" height="46.307" transform="translate(866.777 981.008) rotate(-180)" fill="#ccc2ff"/>
      <rect id="Rectángulo_4524" data-name="Rectángulo 4524" width="14.098" height="84.604" transform="translate(849.591 981.008) rotate(-180)" fill="#ccc2ff"/>
      <rect id="Rectángulo_4525" data-name="Rectángulo 4525" width="14.098" height="70.212" transform="translate(832.406 981.008) rotate(-180)" fill="#ccc2ff"/>
      <rect id="Rectángulo_4526" data-name="Rectángulo 4526" width="14.098" height="4.043" transform="translate(866.777 957.854) rotate(-180)" fill="#ffb0bf"/>
      <rect id="Rectángulo_4527" data-name="Rectángulo 4527" width="14.098" height="4.043" transform="translate(901.147 965.944) rotate(-180)" fill="#ffb0bf"/>
      <rect id="Rectángulo_4528" data-name="Rectángulo 4528" width="14.098" height="4.043" transform="translate(901.147 961.901) rotate(-180)" fill="#ffd4cc"/>
      <rect id="Rectángulo_4529" data-name="Rectángulo 4529" width="14.098" height="4.043" transform="translate(866.777 953.811) rotate(-180)" fill="#ffd4cc"/>
      <rect id="Rectángulo_4530" data-name="Rectángulo 4530" width="14.098" height="16.155" transform="translate(849.591 957.854) rotate(-180)" fill="#ffb0bf"/>
      <rect id="Rectángulo_4531" data-name="Rectángulo 4531" width="14.098" height="6.999" transform="translate(849.591 941.699) rotate(-180)" fill="#ffd4cc"/>
      <rect id="Rectángulo_4532" data-name="Rectángulo 4532" width="14.098" height="26.488" transform="translate(832.406 946.623) rotate(-180)" fill="#ffd4cc"/>
      <g id="Grupo_12621" data-name="Grupo 12621">
        <rect id="Rectángulo_4533" data-name="Rectángulo 4533" width="14.098" height="8.085" transform="translate(883.962 965.944) rotate(-180)" fill="#b3a4f5"/>
        <rect id="Rectángulo_4534" data-name="Rectángulo 4534" width="14.098" height="4.043" transform="translate(901.147 969.986) rotate(-180)" fill="#b3a4f5"/>
        <rect id="Rectángulo_4535" data-name="Rectángulo 4535" width="14.098" height="4.043" transform="translate(849.591 961.901) rotate(-180)" fill="#b3a4f5"/>
        <rect id="Rectángulo_4536" data-name="Rectángulo 4536" width="14.098" height="16.014" transform="translate(866.777 973.873) rotate(-180)" fill="#b3a4f5"/>
        <rect id="Rectángulo_4537" data-name="Rectángulo 4537" width="14.098" height="7.401" transform="translate(832.406 957.895) rotate(-180)" fill="#b3a4f5"/>
      </g>
      <rect id="Rectángulo_4538" data-name="Rectángulo 4538" width="14.098" height="4.043" transform="translate(832.406 950.495) rotate(-180)" fill="#ffb0bf"/>
    </g>
    <path id="Trazado_11238" data-name="Trazado 11238" d="M1140.372,1063.024l-7.668-10.736h15.336Z" fill="#ffccd6"/>
    <rect id="Rectángulo_4539" data-name="Rectángulo 4539" width="32.378" height="4.909" transform="translate(1187.759 1080.745) rotate(-180)" fill="#f0edff"/>
    <rect id="Rectángulo_4540" data-name="Rectángulo 4540" width="21.973" height="4.909" transform="translate(1177.353 1105.484) rotate(-180)" fill="#f0edff"/>
    <g id="Grupo_12623" data-name="Grupo 12623">
      <rect id="Rectángulo_4541" data-name="Rectángulo 4541" width="49.692" height="4.909" transform="translate(1205.072 1064.253) rotate(-180)" fill="#f8f7ff"/>
      <rect id="Rectángulo_4542" data-name="Rectángulo 4542" width="57.51" height="4.909" transform="translate(1212.89 1072.499) rotate(-180)" fill="#f8f7ff"/>
      <rect id="Rectángulo_4543" data-name="Rectángulo 4543" width="42.172" height="4.909" transform="translate(1197.552 1088.992) rotate(-180)" fill="#f8f7ff"/>
      <rect id="Rectángulo_4544" data-name="Rectángulo 4544" width="73.806" height="4.909" transform="translate(1229.186 1097.238) rotate(-180)" fill="#f8f7ff"/>
      <rect id="Rectángulo_4545" data-name="Rectángulo 4545" width="10.843" height="4.909" transform="translate(1166.224 1113.73) rotate(-180)" fill="#f8f7ff"/>
    </g>
    <g id="Grupo_12624" data-name="Grupo 12624">
      <path id="Trazado_11239" data-name="Trazado 11239" d="M1046.143,1096.926l.1.168Z" fill="none"/>
      <path id="Trazado_11240" data-name="Trazado 11240" d="M997.008,1060.651c-.049-.028-.095-.059-.143-.088C996.913,1060.592,996.959,1060.623,997.008,1060.651Z" fill="none"/>
      <path id="Trazado_11241" data-name="Trazado 11241" d="M1052.892,1116.238c.043.31.085.62.122.93C1052.978,1116.857,1052.935,1116.548,1052.892,1116.238Z" fill="none"/>
      <path id="Trazado_11242" data-name="Trazado 11242" d="M1053.143,1118.4c.044.459.078.919.108,1.379C1053.221,1119.318,1053.186,1118.859,1053.143,1118.4Z" fill="none"/>
      <path id="Trazado_11243" data-name="Trazado 11243" d="M1046.123,1090.635h0l27.2-21.213c-1.13,17.385-13.3,24.952-26.589,25.484q-1-1.587-2.119-3.1Z" fill="#40327a"/>
      <path id="Trazado_11244" data-name="Trazado 11244" d="M1036.927,1085.536h0l10.391-41.294,19.086,13.4-26.112,26.426h0l-2.389,2.419C1037.578,1086.17,1037.261,1085.845,1036.927,1085.536Z" fill="#40327a"/>
      <path id="Trazado_11245" data-name="Trazado 11245" d="M1050.112,1020.4c-.235-.213-.478-.419-.736-.613a10.151,10.151,0,0,0-5.923-2.03c-.067,0-.137-.012-.2-.012h-13.4V994.068l.627.124a3.927,3.927,0,0,0,4.617-3.086h0a3.927,3.927,0,0,0-3.085-4.617l-.771-.153h0A23.97,23.97,0,0,1,1018,978.762a30.73,30.73,0,0,0-13.835-8.907l-5.251,19.9a12.728,12.728,0,0,0,9.825,15.732l3.83.762v11.5h-4.616c-.072,0-.142.01-.214.011-.21,0-.42.014-.631.032-.072.006-.146.005-.217.013s-.129.021-.194.029h0c-.187.024-.374.052-.561.086-.092.017-.186.028-.277.046-.072.015-.14.038-.211.054-.152.036-.3.075-.456.118-.11.03-.221.057-.33.091-.078.025-.153.057-.231.084-.124.043-.247.088-.37.136s-.238.088-.354.138c-.082.036-.161.078-.242.116-.062.029-.126.05-.187.08s-.1.057-.149.083c-.11.056-.221.109-.33.169-.075.042-.146.09-.22.134-.122.072-.243.143-.361.22-.032.02-.065.037-.1.058l0,0-12.566,8.291c-.017-.175-.035-.345-.05-.526-.929-11.316,7.571-11.9,6.543-23.211-.234-2.573-2.818-6.667-3.62-8.231l-.01-.007c-.135-.272-.269-.535-.4-.808a29.191,29.191,0,1,1,54.975-6.735c-.057.295-.122.6-.195.9-.4,1.7-1.958,6.058-1.527,8.853,1.729,11.222,10.13,9.739,11.96,20.945a24.2,24.2,0,0,1,.113,8.225l-7.435-6.737Z" fill="#40327a"/>
      <path id="Trazado_11246" data-name="Trazado 11246" d="M1000.406,1085.536h0a45.113,45.113,0,0,0-2.108,5c-3.6-2.905-5.828-7.2-5.828-13.018,0-4.9,2.643-8.476,3.984-13.515.127-.477.284-1.038.449-1.638a11.822,11.822,0,0,0,2.47.868Z" fill="#40327a"/>
      <path id="Trazado_11247" data-name="Trazado 11247" d="M997.829,1061.064c-.073-.032-.144-.069-.215-.1C997.685,1060.995,997.756,1061.031,997.829,1061.064Z" fill="#40327a"/>
      <path id="Trazado_11248" data-name="Trazado 11248" d="M998.7,1061.407c-.091-.031-.181-.065-.271-.1C998.515,1061.342,998.6,1061.376,998.7,1061.407Z" fill="#40327a"/>
      <path id="Trazado_11249" data-name="Trazado 11249" d="M999.3,1061.594h0l-.025-.008Z" fill="#40327a"/>
      <path id="Trazado_11250" data-name="Trazado 11250" d="M1036.927,1085.536h0Z" fill="#f04f4f"/>
      <path id="Trazado_11251" data-name="Trazado 11251" d="M1003.227,1018.917c-.074.038-.152.071-.226.112.109-.06.22-.113.33-.169C1003.295,1018.877,1003.262,1018.9,1003.227,1018.917Z" fill="#ff95a9"/>
      <path id="Trazado_11252" data-name="Trazado 11252" d="M1002.327,1019.446l0-.005c.031-.021.064-.038.1-.058C1002.388,1019.4,1002.359,1019.426,1002.327,1019.446Z" fill="#ff95a9"/>
      <path id="Trazado_11253" data-name="Trazado 11253" d="M1006.082,1017.925c-.073.014-.149.02-.221.035.091-.018.185-.029.277-.046Z" fill="#ff95a9"/>
      <path id="Trazado_11254" data-name="Trazado 11254" d="M1004.179,1018.479c-.089.036-.182.064-.27.1.116-.05.236-.092.354-.138C1004.235,1018.454,1004.207,1018.467,1004.179,1018.479Z" fill="#ff95a9"/>
      <path id="Trazado_11255" data-name="Trazado 11255" d="M1007.08,1017.789c-.061.005-.125,0-.186.01.071-.008.145-.007.217-.013Z" fill="#ff95a9"/>
      <path id="Trazado_11256" data-name="Trazado 11256" d="M1006.7,1017.828Z" fill="#ff95a9"/>
      <path id="Trazado_11257" data-name="Trazado 11257" d="M1005.122,1018.154c-.085.025-.173.042-.258.069.109-.034.22-.061.33-.091Z" fill="#ff95a9"/>
      <path id="Trazado_11258" data-name="Trazado 11258" d="M1007.959,1017.743c-.069,0-.135.01-.2.011h-.014c.072,0,.142-.011.214-.011Z" fill="#ff95a9"/>
      <path id="Trazado_11259" data-name="Trazado 11259" d="M977.662,1047.645h0l-14.6,2.477h0Z" fill="#ff95a9"/>
      <path id="Trazado_11260" data-name="Trazado 11260" d="M1053.143,1118.4q-.057-.617-.129-1.232c-.037-.31-.079-.62-.122-.93a51.113,51.113,0,0,0-6.649-19.144l-.1-.168q-1.276-2.139-2.759-4.156l1.236-.964q1.115,1.513,2.119,3.1a53.05,53.05,0,0,1,8.2,28.2h-1.571c0-.8-.024-1.6-.063-2.394-.014-.314-.038-.625-.059-.938C1053.221,1119.319,1053.187,1118.859,1053.143,1118.4Z" fill="#fff"/>
      <path id="Trazado_11261" data-name="Trazado 11261" d="M1016.557,1085.536h20.37c.334.309.651.634.977.951l-1.674,1.694-7.884.374a5.5,5.5,0,1,0,2.289,10.6v.006l8.76-3.477,0-.017a3.9,3.9,0,0,0,.961-.539l.005.005,3.026-2.36q1.484,2.015,2.759,4.156l.1.168a51.113,51.113,0,0,1,6.649,19.144c.043.31.086.619.122.93q.072.615.129,1.232c.043.459.078.918.108,1.379.021.313.045.624.059.938.038.8.063,1.594.063,2.394v4.278h-46.68a11,11,0,0,1-10.995-11v-10.755a45.522,45.522,0,0,1,4.709-20.1Z" fill="#7060d7"/>
      <path id="Trazado_11262" data-name="Trazado 11262" d="M1043.384,1092.77l-3.026,2.36-.005-.005a3.9,3.9,0,0,1-.961.539l0,.017-8.76,3.477v-.006a5.5,5.5,0,1,1-2.289-10.6l7.884-.374,1.674-1.694,2.389-2.419,5.83,6.567-1.5,1.171Z" fill="#ff95a9"/>
      <path id="Trazado_11263" data-name="Trazado 11263" d="M966.923,1002.172l8.3,35.145,14.53-9.588,12.566-8.291,0,0,0,.005c.032-.02.061-.043.093-.063.118-.077.239-.148.361-.22.074-.044.145-.092.22-.134s.152-.074.226-.112c.035-.019.068-.04.1-.057.051-.026.1-.058.149-.083s.125-.051.187-.08c.081-.038.16-.08.242-.116s.181-.066.27-.1c.028-.012.056-.025.084-.036.123-.048.246-.093.37-.136.078-.027.153-.059.231-.084s.173-.044.258-.069l.072-.022c.152-.043.3-.082.456-.118.071-.016.139-.039.211-.054s.148-.021.221-.035l.056-.011c.187-.034.374-.062.561-.086h0c.065-.008.128-.023.194-.029s.125-.005.186-.01l.031,0c.211-.018.421-.028.631-.032h.014c.068,0,.134-.011.2-.011H1010v18.168l27.7-18.168h5.553c.066,0,.136.01.2.012a10.151,10.151,0,0,1,5.923,2.03c.258.194.5.4.736.613l0,0,7.435,6.737,25.84,23.413-.006.008c.081.072.165.139.243.217a7.367,7.367,0,0,1-.664,11.127l.007.008-9.642,7.518-27.2,21.213h0l-5.83-6.567h0l26.112-26.426.111.077.9-1.285-22.11-15.522-.9,1.286,2.914,2.045-10.391,41.294h-36.521l-1.032-22.307a11.672,11.672,0,0,0,2.232.3v.019h6.351v-1.571h-5.934c-.024,0-.046,0-.07,0q-.442,0-.88-.044c-.151-.014-.3-.038-.447-.059s-.314-.042-.47-.072c-.182-.033-.36-.075-.538-.118-.107-.026-.214-.051-.319-.081h0l-.025-.007q-.293-.081-.578-.18c-.091-.031-.181-.065-.271-.1-.2-.076-.4-.155-.6-.244-.073-.033-.144-.069-.215-.1-.206-.1-.409-.2-.606-.31-.049-.028-.095-.059-.143-.088a10.173,10.173,0,0,1-3.552-14.1l-19.616,9.57,0-.006a7.4,7.4,0,0,1-10.629-5.9l14.6-2.477h0l-14.6,2.478h0l-4.8-46.481h0l8.656-1.47Z" fill="#ffd259"/>
      <path id="Trazado_11264" data-name="Trazado 11264" d="M1012.572,1017.743H1010v18.168l27.7-18.168h-7.848V994.068l.627.124a3.927,3.927,0,0,0,4.617-3.086h0a3.927,3.927,0,0,0-3.085-4.617l-.771-.153h0A23.97,23.97,0,0,1,1018,978.762a30.73,30.73,0,0,0-13.835-8.907l-5.251,19.9a12.728,12.728,0,0,0,9.825,15.732l3.83.762Zm-7.039-25.512,8.474,1.682a4.32,4.32,0,0,1-8.474-1.682Z" fill="#ff95a9"/>
      <path id="Trazado_11265" data-name="Trazado 11265" d="M1014.007,993.913a4.32,4.32,0,0,1-8.474-1.682Z" fill="#fff"/>
      <path id="Trazado_11266" data-name="Trazado 11266" d="M953.806,991.229a6.627,6.627,0,0,1,5.519-10.3h1.736v-9.439a1.964,1.964,0,1,1,3.927,0v22.495l1.619,6.853h0l.314,1.331-8.656,1.47-.7-6.756Z" fill="#ff95a9"/>
      <path id="Trazado_11267" data-name="Trazado 11267" d="M997.008,1060.651c.2.111.4.211.606.31.071.034.142.071.215.1.2.089.394.168.6.244.09.034.18.068.271.1q.285.1.578.18l.025.008c.1.03.212.055.319.081.178.043.356.085.538.118.156.03.313.05.47.072s.3.045.447.059q.438.04.88.044c.024,0,.046,0,.07,0h5.934v1.571h-6.351v-.019a11.672,11.672,0,0,1-2.232-.3,11.847,11.847,0,0,1-4.84-2.379l1-1.208a10.242,10.242,0,0,0,1.335.921C996.913,1060.592,996.959,1060.623,997.008,1060.651Z" fill="#fff"/>
      <path id="Trazado_11268" data-name="Trazado 11268" d="M1044.4,1042.2l.9-1.285,22.11,15.521-.9,1.285-.11-.077-19.087-13.4Z" fill="#fff"/>
    </g>
    <g id="Grupo_12626" data-name="Grupo 12626">
      <rect id="Rectángulo_4546" data-name="Rectángulo 4546" width="62.43" height="4.092" transform="translate(1020.943 1122.678) rotate(-180)" fill="#40327a"/>
      <g id="Grupo_12625" data-name="Grupo 12625">
        <path id="Trazado_11269" data-name="Trazado 11269" d="M876.183,1060.962l9.848,47.791.072.351,2.793,13.579h87.241l-12.714-61.721Z" fill="#fff"/>
        <path id="Trazado_11270" data-name="Trazado 11270" d="M873.113,1060.962l9.848,47.791.072.351,2.793,13.579h86.5l-12.714-61.721Z" fill="#b3a4f5"/>
        <path id="Trazado_11271" data-name="Trazado 11271" d="M888.9,1122.683h0Z" fill="#ddd6ff"/>
        <path id="Trazado_11272" data-name="Trazado 11272" d="M893.578,1122.682h78.748l-89.365-13.93.072.351,2.793,13.579h7.752Z" fill="#ddd6ff"/>
        <ellipse id="Elipse_390" data-name="Elipse 390" cx="5.691" cy="6.99" rx="5.691" ry="6.99" transform="translate(913.719 1091.36) rotate(-47.94)" fill="#fff"/>
      </g>
    </g>
    <g id="Grupo_12631" data-name="Grupo 12631">
      <path id="Trazado_11273" data-name="Trazado 11273" d="M849.876,1122.683h0Z" fill="#b3a4f5"/>
      <path id="Trazado_11274" data-name="Trazado 11274" d="M896.583,1122.682h309.512v7.854H762.363v-7.854h134.22Z" fill="#b3a4f5"/>
      <path id="Trazado_11275" data-name="Trazado 11275" d="M874.473,1122.683h0Z" fill="#b3a4f5"/>
      <g id="Grupo_12627" data-name="Grupo 12627">
        <path id="Trazado_11276" data-name="Trazado 11276" d="M974.082,1130.536h0Z" fill="#f8f7ff"/>
        <rect id="Rectángulo_4547" data-name="Rectángulo 4547" width="141.011" height="1.571" transform="translate(974.082 1129.751)" fill="#40327a"/>
      </g>
      <g id="Grupo_12628" data-name="Grupo 12628">
        <path id="Trazado_11277" data-name="Trazado 11277" d="M1134.368,1130.536h0Z" fill="#f8f7ff"/>
        <rect id="Rectángulo_4548" data-name="Rectángulo 4548" width="36.556" height="1.571" transform="translate(1134.368 1129.751)" fill="#40327a"/>
      </g>
      <g id="Grupo_12629" data-name="Grupo 12629">
        <path id="Trazado_11278" data-name="Trazado 11278" d="M1122.07,1130.536h0Z" fill="#f8f7ff"/>
        <rect id="Rectángulo_4549" data-name="Rectángulo 4549" width="5.866" height="1.571" transform="translate(1122.07 1129.751)" fill="#40327a"/>
      </g>
      <g id="Grupo_12630" data-name="Grupo 12630">
        <path id="Trazado_11279" data-name="Trazado 11279" d="M837.085,1130.536h0Z" fill="#f8f7ff"/>
        <rect id="Rectángulo_4550" data-name="Rectángulo 4550" width="95.776" height="1.571" transform="translate(837.085 1129.751)" fill="#40327a"/>
      </g>
      <rect id="Rectángulo_4551" data-name="Rectángulo 4551" width="152.406" height="7.853" transform="translate(738.802 1138.985)" fill="#f2f0ff"/>
      <rect id="Rectángulo_4552" data-name="Rectángulo 4552" width="17.675" height="7.853" transform="translate(898.072 1138.985)" fill="#e9e6ff"/>
      <rect id="Rectángulo_4553" data-name="Rectángulo 4553" width="28.293" height="3.927" transform="translate(1132.317 1154.692)" fill="#f2f0ff"/>
      <rect id="Rectángulo_4554" data-name="Rectángulo 4554" width="4.095" height="3.927" transform="translate(1122.074 1154.692)" fill="#f2f0ff"/>
      <rect id="Rectángulo_4555" data-name="Rectángulo 4555" width="94.193" height="3.927" transform="translate(1019.831 1154.692)" fill="#f2f0ff"/>
      <rect id="Rectángulo_4556" data-name="Rectángulo 4556" width="40.407" height="3.927" transform="translate(968.923 1154.692)" fill="#f2f0ff"/>
      <rect id="Rectángulo_4557" data-name="Rectángulo 4557" width="147.551" height="3.927" transform="translate(816.116 1154.692)" fill="#f2f0ff"/>
      <rect id="Rectángulo_4558" data-name="Rectángulo 4558" width="4.587" height="3.927" transform="translate(801.704 1154.692)" fill="#f2f0ff"/>
      <rect id="Rectángulo_4559" data-name="Rectángulo 4559" width="128.281" height="7.853" transform="translate(920.446 1138.985)" fill="#f2f0ff"/>
      <rect id="Rectángulo_4560" data-name="Rectángulo 4560" width="22.262" height="7.853" transform="translate(1055.508 1138.985)" fill="#e9e6ff"/>
      <rect id="Rectángulo_4561" data-name="Rectángulo 4561" width="6.714" height="7.853" transform="translate(1082.202 1138.985)" fill="#dad5fd"/>
      <rect id="Rectángulo_4562" data-name="Rectángulo 4562" width="53.783" height="7.853" transform="translate(1092.058 1138.985)" fill="#f2f0ff"/>
      <rect id="Rectángulo_4563" data-name="Rectángulo 4563" width="87.745" height="7.853" transform="translate(1153.68 1138.985)" fill="#f2f0ff"/>
    </g>
    <path id="Trazado_11280" data-name="Trazado 11280" d="M880.741,1101.871l1.538-.318-8.2-39.807h85.536v-1.571H872.149Z" fill="#8b77e8"/>
    <rect id="Rectángulo_4564" data-name="Rectángulo 4564" width="1.571" height="6.84" transform="matrix(0.98, -0.201, 0.201, 0.98, 881.856, 1107.281)" fill="#8b77e8"/>
  </g>
</svg>
