<svg xmlns="http://www.w3.org/2000/svg" width="211.013" height="504.438" viewBox="0 0 211.013 504.438">
  <g id="Grupo_12644" data-name="Grupo 12644" transform="translate(-930.808 -2427.548)">
    <g id="Grupo_12641" data-name="Grupo 12641">
      <g id="Grupo_12640" data-name="Grupo 12640">
        <rect id="Rectángulo_4575" data-name="Rectángulo 4575" width="115.18" height="79.186" transform="translate(930.816 2708.522)" fill="#e27f9b"/>
        <rect id="Rectángulo_4576" data-name="Rectángulo 4576" width="11.998" height="79.186" transform="translate(942.806 2787.712) rotate(-180)" fill="#3f3577"/>
      </g>
      <path id="Trazado_11292" data-name="Trazado 11292" d="M988.958,2708.522l5.9,79.186H1046v-79.186Z" fill="#e5659b"/>
      <rect id="Rectángulo_4577" data-name="Rectángulo 4577" width="103.183" height="2.4" transform="translate(942.81 2746.919)" fill="#3f3577"/>
      <rect id="Rectángulo_4578" data-name="Rectángulo 4578" width="16.797" height="10.798" transform="translate(1000.397 2757.718) rotate(-180)" fill="#fff"/>
      <path id="Trazado_11293" data-name="Trazado 11293" d="M971.6,2708.59H974v-12h28.8v12h2.4v-14.4H971.6Z" fill="#3f3577"/>
    </g>
    <g id="Grupo_12642" data-name="Grupo 12642">
      <path id="Trazado_11294" data-name="Trazado 11294" d="M1094.738,2920.777h-.01c.007.137.02.271.02.41a7.795,7.795,0,0,1-15.527.991h-.008L1048.792,2682.5l33.436-3.02Z" fill="#ff95a9"/>
      <path id="Trazado_11295" data-name="Trazado 11295" d="M1006.658,2767.22H1033.8v153.958a7.8,7.8,0,1,1-15.6.01h0Z" fill="#ff95a9"/>
    </g>
    <path id="Trazado_11296" data-name="Trazado 11296" d="M1095.9,2585.432c-3.573-4.777-7.143-9.438-7.31-16.469-.411-17.327,7.3-18.179,6.193-35.489s-13.943-16.324-15.048-33.635a21.477,21.477,0,0,1,.4-5.964,43.806,43.806,0,0,0,3.249-7.267c.157-.44.3-.894.432-1.334a44.6,44.6,0,1,0-84.592,2.007c.152.433.317.854.481,1.287l.013.013a44.288,44.288,0,0,0,3.6,7.142,21.882,21.882,0,0,1,.667,5.913c-.283,17.344-13.14,16.967-13.423,34.311s7.458,17.828,7.869,35.155c.167,7.031-3.178,11.856-6.533,16.8-3.33,4.953-6.669,10.023-6.492,17.5a38.862,38.862,0,0,0,39.779,37.936l40.1-.952a38.85,38.85,0,0,0,37.922-39.779C1103.039,2595.128,1099.462,2590.222,1095.9,2585.432Z" fill="#3f3577"/>
    <path id="Trazado_11297" data-name="Trazado 11297" d="M979.5,2693.351l4.352-12.246-9.548-80.574,22.587-1.222-.917,82.552h0l-.16,14.4a8.4,8.4,0,1,1-16.306-2.905Z" fill="#ff95a9"/>
    <path id="Trazado_11298" data-name="Trazado 11298" d="M1007.416,2632.043l-.338-87.343a15.6,15.6,0,0,1,16.258-15.644l57.945,2.457a9.6,9.6,0,0,1,8.8,12.324l-26.917,90.569h0a27.9,27.9,0,0,1-55.743-2.363Z" fill="#ffc7bd"/>
    <path id="Trazado_11299" data-name="Trazado 11299" d="M1007.4,2633.228h55.793l3.007,2.337a41.544,41.544,0,0,1,16.054,32.806v12a16.8,16.8,0,0,1-16.8,16.8H1017a16.8,16.8,0,0,1-16.8-16.8v-16.432A69.172,69.172,0,0,1,1007.4,2633.228Z" fill="#8b77e8"/>
    <path id="Trazado_11300" data-name="Trazado 11300" d="M974.225,2599.057a11.271,11.271,0,0,1,1.518-5.532l-.022-.015,33.569-56.64.013.009a15.79,15.79,0,0,1,1.136-1.689A15.6,15.6,0,1,1,1035,2554.423h0l-38.149,48.716-.75,67.554-13.4.726-8.4-70.885h.016A11.254,11.254,0,0,1,974.225,2599.057Z" fill="#ffc7bd"/>
    <path id="Trazado_11301" data-name="Trazado 11301" d="M976.61,2630.225l2.383-.283-3.355-28.3h0l-.133-1.251a9.829,9.829,0,0,1-.082-1.319,10.129,10.129,0,0,1,1.357-4.946l.549-.95-.012-.009,13.234-22.327-2.065-1.223-14.365,24.237.072.05a12.549,12.549,0,0,0-1.17,5.141q0,.186,0,.378l-.052,0,.132,1.25Z" fill="#ff95a9"/>
    <rect id="Rectángulo_4579" data-name="Rectángulo 4579" width="2.4" height="14.884" transform="translate(977.166 2634.935) rotate(-6.785)" fill="#ff95a9"/>
    <path id="Trazado_11302" data-name="Trazado 11302" d="M1094.748,2921.188h-15.6v10.8H1101a3.344,3.344,0,0,0,3.344-3.344h0a3.343,3.343,0,0,0-1.677-2.9Z" fill="#3f3577"/>
    <path id="Trazado_11303" data-name="Trazado 11303" d="M1018.2,2921.188h15.6v10.8h-21.853a3.344,3.344,0,0,1-3.344-3.344h0a3.345,3.345,0,0,1,1.677-2.9Z" fill="#3f3577"/>
    <g id="Grupo_12643" data-name="Grupo 12643">
      <path id="Trazado_11304" data-name="Trazado 11304" d="M1033.8,2680.366v86.854l-27.1,1.022-6.447-86.611Z" fill="#8b77e8"/>
    </g>
    <path id="Trazado_11305" data-name="Trazado 11305" d="M1006.7,2768.242l80.119.042-4.565-88.278-82,1.625Z" fill="#8b77e8"/>
    <path id="Trazado_11306" data-name="Trazado 11306" d="M1010.739,2491.117l3.912-37.426,45.048,1.91-.966,22.789,1.2.051a6,6,0,0,1-.508,11.988l-1.2-.051-.323,7.612-.557,13.146-.111,2.617-.708,16.71h0l11.978.508-43.455,25.938,1.175-27.731,3.93.167h0l.708-16.711-1.606-.068A19.445,19.445,0,0,1,1010.739,2491.117Z" fill="#ff95a9"/>
    <path id="Trazado_11307" data-name="Trazado 11307" d="M1067.479,2650.282l11.033.2,42.407-66.843,18.271,13.337-52.827,63.434-.03-.023a5.963,5.963,0,0,1-2.732,1.839l0,.027-13.7,4.417v-.008a8.4,8.4,0,1,1-2.423-16.384Z" fill="#ff95a9"/>
    <path id="Trazado_11308" data-name="Trazado 11308" d="M1067.672,2537.6a15.494,15.494,0,0,1,23.369-1.818l.011-.012,45.954,44.685a11.245,11.245,0,0,1,2.175,16.512l.013.009-45.682,54.851-10.837-7.913,32.539-51.288-44.391-33.2h0A15.6,15.6,0,0,1,1067.672,2537.6Z" fill="#ffc7bd"/>
    <rect id="Rectángulo_4580" data-name="Rectángulo 4580" width="2.399" height="44.401" transform="translate(1096.66 2543.105) rotate(-45.956)" fill="#ff95a9"/>
    <rect id="Rectángulo_4581" data-name="Rectángulo 4581" width="2.399" height="4.242" transform="translate(1131.488 2576.786) rotate(-44.998)" fill="#ff95a9"/>
    <rect id="Rectángulo_4582" data-name="Rectángulo 4582" width="2.399" height="18.273" transform="translate(1087.267 2801.209) rotate(-2.909)" fill="#624ac9"/>
    <rect id="Rectángulo_4583" data-name="Rectángulo 4583" width="2.399" height="94.61" transform="matrix(0.999, -0.051, 0.051, 0.999, 1082.135, 2700.478)" fill="#624ac9"/>
    <rect id="Rectángulo_4584" data-name="Rectángulo 4584" width="2.4" height="4.901" transform="translate(1032.606 2896.881)" fill="#624ac9"/>
    <rect id="Rectángulo_4585" data-name="Rectángulo 4585" width="2.4" height="36.894" transform="translate(1032.626 2853.546)" fill="#624ac9"/>
    <rect id="Rectángulo_4586" data-name="Rectángulo 4586" width="2.4" height="74.142" transform="translate(1032.676 2768.305)" fill="#624ac9"/>
    <rect id="Rectángulo_4587" data-name="Rectángulo 4587" width="2.4" height="8.036" transform="matrix(0.998, -0.056, 0.056, 0.998, 1081.311, 2686.761)" fill="#624ac9"/>
    <rect id="Rectángulo_4588" data-name="Rectángulo 4588" width="17.773" height="2.399" transform="matrix(0.509, -0.861, 0.861, 0.509, 992.928, 2562.03)" fill="#ff95a9"/>
    <rect id="Rectángulo_4589" data-name="Rectángulo 4589" width="15.258" height="2.4" transform="translate(1007.303 2632.023)" fill="#624ac9"/>
    <path id="Trazado_11309" data-name="Trazado 11309" d="M1058.733,2478.391l1.2.05,1.469-34.624-35.683-1.513a17.078,17.078,0,0,0-17.785,16.339l-.029.678,1.2.051a46.944,46.944,0,0,1,27.876,10.682h0a36.637,36.637,0,0,0,21.754,8.337Z" fill="#3f3577"/>
    <path id="Trazado_11310" data-name="Trazado 11310" d="M1025.567,2496.024a18.039,18.039,0,0,0,6.887-1.358l-.911-2.219a15.631,15.631,0,0,1-6.8,1.157,15.931,15.931,0,0,1-3.171-.483l-.6,2.324a18.4,18.4,0,0,0,3.649.556Q1025.1,2496.024,1025.567,2496.024Z" fill="#e5659b"/>
  </g>
</svg>
