<svg xmlns="http://www.w3.org/2000/svg" width="177.972" height="177.972" viewBox="0 0 177.972 177.972">
  <g id="Grupo_13001" data-name="Grupo 13001" transform="translate(-362.544 -739.126)">
    <circle id="Elipse_391" data-name="Elipse 391" cx="88.986" cy="88.986" r="88.986" transform="translate(362.544 739.126)" fill="#5fc6ff"/>
    <path id="Trazado_11709" data-name="Trazado 11709" d="M496.59,822.432a29.6,29.6,0,0,0,0-15.867l5.153-3.791a1.886,1.886,0,0,0,.516-2.463l-5.192-8.993a1.886,1.886,0,0,0-2.391-.785l-5.837,2.558a30.311,30.311,0,0,0-13.764-7.922l-.706-6.36a1.887,1.887,0,0,0-1.875-1.678H462.108a1.886,1.886,0,0,0-1.874,1.678l-.707,6.36a30.32,30.32,0,0,0-13.764,7.922l-5.837-2.558a1.885,1.885,0,0,0-2.39.785l-5.192,8.993a1.886,1.886,0,0,0,.515,2.463l5.153,3.791a29.626,29.626,0,0,0,0,15.867l-5.153,3.791a1.886,1.886,0,0,0-.515,2.463l5.192,8.993a1.886,1.886,0,0,0,2.39.785l5.837-2.558a30.325,30.325,0,0,0,13.764,7.922l.707,6.36a1.886,1.886,0,0,0,1.874,1.678h10.386a1.887,1.887,0,0,0,1.875-1.678l.706-6.36a30.32,30.32,0,0,0,13.764-7.922l5.837,2.558a1.888,1.888,0,0,0,2.391-.785l5.192-8.993a1.885,1.885,0,0,0-.516-2.463ZM467.3,835.208a20.71,20.71,0,1,1,20.71-20.71A20.733,20.733,0,0,1,467.3,835.208Z" fill="#e56353"/>
    <g id="Grupo_13000" data-name="Grupo 13000">
      <path id="Trazado_11710" data-name="Trazado 11710" d="M467.3,791.391A23.107,23.107,0,1,0,490.408,814.5,23.133,23.133,0,0,0,467.3,791.391Zm0,43.817a20.71,20.71,0,1,1,20.71-20.71A20.733,20.733,0,0,1,467.3,835.208Z" fill="#d15241"/>
      <circle id="Elipse_392" data-name="Elipse 392" cx="13.846" cy="13.846" r="13.846" transform="translate(453.46 800.652)" fill="#d15241"/>
    </g>
    <ellipse id="Elipse_393" data-name="Elipse 393" cx="35.224" cy="35.26" rx="35.224" ry="35.26" transform="translate(400.552 808.574)" fill="#fcd462"/>
    <ellipse id="Elipse_394" data-name="Elipse 394" cx="29.351" cy="29.372" rx="29.351" ry="29.372" transform="translate(406.425 814.461)" fill="#f6c358"/>
    <path id="Trazado_11711" data-name="Trazado 11711" d="M434.566,866.7v-4.025a23.909,23.909,0,0,1-13.557-6.009l4.023-4.8a19.111,19.111,0,0,0,9.534,4.8v-10.7q-6.23-1.488-9.122-3.916t-2.893-7.2a10.071,10.071,0,0,1,3.332-7.8,13.5,13.5,0,0,1,8.682-3.307v-2.758h3.525V823.8a23.031,23.031,0,0,1,11.463,4.137l-3.583,5.074a17.773,17.773,0,0,0-7.88-3.2v10.366h.166q6.337,1.491,9.31,4.026t2.978,7.361a10.01,10.01,0,0,1-3.418,7.858,14.189,14.189,0,0,1-9.036,3.31V866.7ZM430.678,831.1a3.942,3.942,0,0,0-1.4,3.087,3.891,3.891,0,0,0,1.1,2.922,11.143,11.143,0,0,0,4.189,2.069v-9.541A6.6,6.6,0,0,0,430.678,831.1Zm11.6,24.179a4.26,4.26,0,0,0,.332-6.258,12.05,12.05,0,0,0-4.52-2.123v9.925A7.7,7.7,0,0,0,442.279,855.284Z" fill="#dc8744"/>
  </g>
</svg>
